<?xml version="1.0" encoding="utf-8"?>
<!-- Generator: Adobe Illustrator 21.1.0, SVG Export Plug-In . SVG Version: 6.00 Build 0)  -->
<svg version="1.1" id="Capa_1" xmlns="http://www.w3.org/2000/svg" xmlns:xlink="http://www.w3.org/1999/xlink" x="0px" y="0px"
	 viewBox="0 0 440 440" style="enable-background:new 0 0 440 440;" xml:space="preserve">
<style type="text/css">
	.st0{fill:#3F3F3F;}
	.st1{fill:#B0BEC5;}
</style>
<g>
	<g>
		<path class="st0" d="M390.1,362.1h-98.1v-7.9c7-4.5,11.4-12.3,11.4-21c0-13.8-11.2-25.1-25.1-25.1h-23.6c5.5-2,9.1-7.6,8.3-13.6
			l-14.3-114.1c3.1-4.2,5-9.2,5-14.8l0-71c29.1-11,66.9-39.9,71.7-43.6c4.6-3.6,5.5-10.3,1.9-14.9c-3.6-4.6-10.3-5.5-14.9-1.9
			c-12.1,9.4-45.3,33-67.1,40.9c-0.6-0.3-8.2-3.8-10.6-4.9l-4.7-4c-0.3-0.3-0.8-0.3-1.1,0l-7.5,7.4c-0.3,0.3-0.2,0.8-0.2,0.8
			l1.1,7.1l7,50.8c0.1,0.4-0.1,0.8-0.3,1l-7.9,9.6c-0.3,0.3-0.6,0.5-1,0.5c-0.4,0-0.8-0.2-1-0.5l-7.9-9.6c-0.2-0.3-0.3-0.7-0.3-1
			l5.5-39.7l2.9-18.1c0,0,0.1-0.5-0.2-0.8l-7.5-7.4c-0.1-0.1-0.3-0.2-0.5-0.2c0,0,0,0,0,0l0,0c-0.2,0-0.4,0.1-0.6,0.2l-4.7,3.9
			c-2.4,1.1-10,4.6-10.9,5c-21.8-7.9-55-31.5-67.1-40.9c-4.6-3.6-11.3-2.7-14.9,1.9c-3.6,4.6-2.7,11.3,1.9,14.9
			c4.7,3.7,42.6,32.6,71.6,43.6l0,71c0,5.6,1.9,10.6,5,14.8l-14.2,114.1c-0.8,6,2.8,11.6,8.3,13.6h-23.6
			c-13.8,0-25.1,11.2-25.1,25.1c0,8.7,4.4,16.5,11.4,21v7.9H49.9c-13.8,0-25.1,11.2-25.1,25.1c0,8.5,4.3,17.4,11.4,21.9v31h20.1
			v-45.3c0,0-11.4-1-11.4-7.6c0-2.7,2.2-4.9,4.9-4.9h118.3v-41c0,0-11.4-3.1-11.4-8.1c0-2.7,2.2-4.9,4.9-4.9h116.5
			c2.7,0,4.9,2.2,4.9,4.9c0,5-11.4,8.1-11.4,8.1v41h118.3c2.7,0,4.9,2.2,4.9,4.9c0,6.6-11.4,7.6-11.4,7.6V440h20.1v-31
			c7.1-4.5,11.4-13.4,11.4-21.9C415.1,373.3,403.9,362.1,390.1,362.1z M194.2,308.1c1.8-0.7,3.4-1.7,4.8-3.1c-3.7,0-7.5,0-10.9,0
			c3.5,0,7.2,0,10.9,0c1.9-1.9,3.2-4.5,3.6-7.4l12.9-103.4c1.5,0.2,3.1,0.3,4.6,0.3c1.5,0,3-0.1,4.6-0.3l12.9,103.4
			c0.6,4.9,4,8.8,8.3,10.4H194.2z"/>
		<path class="st1" d="M220,65.8c15.6,0,27.2-14.5,27.5-38.8c0.2-16.9-7.9-27-27.5-27c-19.6,0-27.6,10.1-27.4,27
			C192.8,51.3,204.4,65.8,220,65.8z"/>
	</g>
</g>
</svg>
