<?xml version="1.0" encoding="utf-8"?>
<!-- Generator: Adobe Illustrator 21.0.2, SVG Export Plug-In . SVG Version: 6.00 Build 0)  -->
<svg version="1.1" id="Layer_1" xmlns="http://www.w3.org/2000/svg" xmlns:xlink="http://www.w3.org/1999/xlink" x="0px" y="0px"
	 viewBox="0 0 128 128" style="enable-background:new 0 0 128 128;" xml:space="preserve">
<style type="text/css">
	.st0{fill:#4CC8EF;}
	.st1{fill:#3F3F3F;}
</style>
<g>
	<g>
		<path class="st0" d="M24,80H8.5v8H24c2.2,0,4-1.8,4-4S26.2,80,24,80z M27.2,41.6l-6.6,3.9c0.2,0.6,0.5,1.2,1,1.7l11.3,11.3
			c1.6,1.6,4.1,1.6,5.7,0c1.6-1.6,1.6-4.1,0-5.7L27.2,41.6z M60,28.5V44c0,2.2,1.8,4,4,4s4-1.8,4-4V28h-4L60,28.5z M100.8,41.6
			L89.5,52.9c-1.6,1.6-1.6,4.1,0,5.7c1.6,1.6,4.1,1.6,5.7,0l10.7-10.7L100.8,41.6z M104,80c-2.2,0-4,1.8-4,4s1.8,4,4,4h13.5v-8H104z
			"/>
	</g>
</g>
<path class="st1" d="M64,24C30.9,24,4,50.9,4,84c0,7,1.3,13.7,3.5,20h113c2.2-6.3,3.5-13,3.5-20C124,50.9,97.1,24,64,24z M52.9,96
	c1.7-4.6,5.9-8,11.1-8s9.4,3.4,11.1,8H52.9z M82.5,92.5l23.4-33.7L72.6,82c0.1,0,0.2,0.1,0.3,0.2C70.2,80.8,67.2,80,64,80
	c-9.6,0-17.6,6.9-19.5,16H13.4c-1-4-1.4-8-1.4-12c0-28.7,23.3-52,52-52s52,23.3,52,52c0,4-0.5,8-1.4,12H83.5"/>
</svg>
