<?xml version="1.0" encoding="utf-8"?>
<!-- Generator: Adobe Illustrator 21.1.0, SVG Export Plug-In . SVG Version: 6.00 Build 0)  -->
<svg version="1.1" id="Capa_1" xmlns="http://www.w3.org/2000/svg" xmlns:xlink="http://www.w3.org/1999/xlink" x="0px" y="0px"
	 viewBox="0 0 750.8 612.8" style="enable-background:new 0 0 750.8 612.8;" xml:space="preserve">
<style type="text/css">
	.st0{fill:#3F3F3F;}
	.st1{fill:#B0BEC5;}
	.st2{fill:#4CC8EF;}
</style>
<g>
	<g>
		<path class="st0" d="M576.3,154.4c9.1-7.9,10-21.9,2-30.9c-3.9-4.5-7.9-8.8-12.2-12.9l0,0l0,0l0,0l0,0
			c-51-51.1-118.8-79.2-190.9-79.2c-64.7,0-126,22.7-174.7,64.3l-37.1-37.1c-5.5-5.5-13.6-7.7-21.1-5.7c-7.6,2.1-13.5,7.9-15.4,15.4
			L88.8,210.2c-2.1,7.5,0.1,15.7,5.7,21.1c4.1,4.1,9.8,6.4,15.4,6.4c1.8,0,3.8-0.2,5.7-0.8l141.9-38c7.5-2.1,13.5-7.9,15.4-15.4
			c2.1-7.5-0.1-15.7-5.7-21.1l-35.7-35.7c40.4-33.4,90.6-51.6,143.7-51.6c60.4,0,117.3,23.5,159.9,66.3l0,0l0,0
			c3.6,3.6,7,7.2,10.2,11c4.4,4.9,10.3,7.4,16.4,7.4C567,159.8,572.2,157.9,576.3,154.4z"/>
		<path class="st1" d="M315,519.4c-9.8-2.7-19.5-6.1-28.7-10c-11.1-4.7-24,0.4-28.7,11.5c-4.8,11.1,0.4,24,11.5,28.7
			c11.1,4.8,22.6,8.8,34.3,12c2,0.5,3.9,0.8,5.8,0.8c9.6,0,18.4-6.4,21.1-16.1C333.5,534.7,326.7,522.7,315,519.4z"/>
		<path class="st1" d="M415.7,523.9c-10,1.7-20.1,2.9-30.2,3.4c-12.1,0.5-21.4,10.8-20.9,22.8c0.5,11.7,10.2,20.9,21.9,20.9
			c0.3,0,0.7,0,1,0c12.1-0.5,24.3-2,36.1-4c11.9-2.2,19.8-13.6,17.6-25.5C439.1,529.7,427.5,521.7,415.7,523.9z"/>
		<path class="st1" d="M583.2,212.2c4,9.2,7.4,18.9,10.1,28.7c2.7,9.7,11.5,16.1,21.1,16.1c2,0,3.9-0.2,5.9-0.8
			c11.6-3.3,18.5-15.2,15.3-27c-3.3-11.6-7.3-23.2-12-34.3c-4.8-11.1-17.6-16.3-28.7-11.5C583.6,188.2,578.5,201.1,583.2,212.2z"/>
		<path class="st1" d="M508.2,484.3c-8.2,6-16.9,11.4-25.8,16.2c-10.7,5.8-14.6,19-8.9,29.7c3.9,7.3,11.5,11.5,19.3,11.5
			c3.5,0,7.1-0.9,10.3-2.6c10.6-5.8,21-12.3,30.8-19.4c9.8-7.2,11.9-20.8,4.8-30.6C531.7,479.4,518,477.2,508.2,484.3z"/>
		<path class="st1" d="M604.2,399.6c-10.7-5.8-23.9-1.7-29.7,8.9c-4.8,8.9-10.2,17.5-16.2,25.8c-7.1,9.8-5,23.5,4.8,30.6
			c3.9,2.8,8.4,4.2,12.8,4.2c6.7,0,13.4-3.2,17.7-9c7.1-9.8,13.6-20.1,19.4-30.8C618.9,418.5,614.9,405.3,604.2,399.6z"/>
		<path class="st1" d="M624.1,290.4c-0.3,0-0.7,0-1,0c-11.6,0-21.3,9.1-21.9,20.9c-0.4,10.1-1.6,20.3-3.4,30.2
			c-2.2,11.9,5.8,23.3,17.7,25.5c1.3,0.2,2.6,0.3,3.9,0.3c10.4,0,19.6-7.4,21.5-18.1c2.2-11.9,3.5-24,4-36.1
			C645.5,301.2,636.2,291,624.1,290.4z"/>
		<path class="st1" d="M215.3,461.3c-8.6-8.6-22.4-8.6-31,0c-8.6,8.6-8.6,22.4,0,31c4.2,4.2,8.6,8.3,13.1,12.2
			c4.1,3.7,9.2,5.4,14.5,5.4c6.1,0,12.2-2.5,16.4-7.4c7.9-9,7.1-23-2-30.9C222.5,468.3,218.9,464.8,215.3,461.3z"/>
	</g>
</g>
<g id="Layer_1">
</g>
<rect x="519.9" y="221.4" class="st0" width="16.8" height="44.9"/>
<rect x="519.7" y="393" class="st0" width="16.6" height="33.1"/>
<g id="api-code-window">
	<g>
		<g id="_x34_">
			<path class="st0" d="M521.8,425.9c-0.8,0-1.4-0.1-2.1-0.3c-1.4,6.9-6.9,12.1-13.5,12.2H244c-7.6,0-13.8-7.1-13.8-15.7V222.5
				h289.9v9.9c0.6-0.1,1.2-0.1,1.8-0.1h14.7v-32c0-19.1-13.6-34.6-30.4-34.6H244c-16.8,0-30.4,15.5-30.4,34.6v221.8
				c0,19.1,13.6,34.6,30.4,34.6h262.2c15.6,0,28.3-13.6,30-30.8L521.8,425.9L521.8,425.9z M503.1,188c3.8,0,6.9,3.5,6.9,7.9
				c0,4.4-3.1,7.9-6.9,7.9s-6.9-3.5-6.9-7.9C496.2,191.5,499.2,188,503.1,188z M448.9,188.4h34c3.6,0,6.5,3.4,6.5,7.4
				s-2.9,7.4-6.5,7.4h-34c-3.6,0-6.5-3.4-6.5-7.4S445.3,188.4,448.9,188.4z"/>
			<g>
				<path class="st1" d="M536.6,304.1c-2.4-0.7-4.8-1-7.4-1c-1.6,0-3.1,0.2-4.7,0.4c-5.7,1-10.8,3.7-14.7,7.6c-5,5-8,11.8-8,19.4
					c0,7.6,3,14.4,8,19.4c3.6,3.6,8.1,6.1,13.1,7.3c2,0.5,4.1,0.7,6.3,0.7c2.3,0,4.6-0.3,6.7-0.9c4.9-1.2,9.2-3.7,12.7-7.2
					c5-5,8-11.8,8-19.4c0-7.6-3.1-14.4-8-19.4C545.3,307.8,541.1,305.4,536.6,304.1z M536.6,337.5c-1.9,2-4.5,3.2-7.4,3.2
					c-1.7,0-3.3-0.5-4.7-1.2c-3.3-1.7-5.6-5.1-5.6-9c0-4,2.3-7.3,5.6-9.1c1.4-0.7,3-1.2,4.7-1.2c2.9,0,5.5,1.2,7.4,3.2
					c1.8,1.8,2.8,4.3,2.8,7C539.4,333.2,538.3,335.7,536.6,337.5z"/>
				<path class="st2" d="M586.2,322.3l-12.4-1.5c-1.2-5.6-3.4-10.9-6.5-15.5l7.7-9.8c0.6-0.7,0.5-1.8-0.1-2.4l-8.8-8.8
					c-0.6-0.6-1.7-0.7-2.4-0.1l-9.8,7.7c-4.7-3-9.9-5.3-15.5-6.4l-1.5-12.4c0-0.4-0.3-0.8-0.6-1.1c-0.3-0.3-0.7-0.5-1.2-0.5h-10.9
					h-1.5c-0.9,0-1.7,0.7-1.8,1.6l-1.5,12.4c-5.6,1.2-10.9,3.4-15.5,6.4l-9.8-7.7c-0.7-0.6-1.8-0.5-2.4,0.1l-8.8,8.8
					c-0.6,0.6-0.7,1.7-0.1,2.4l7.7,9.8c-3,4.7-5.3,9.9-6.4,15.5l-12.4,1.5c-0.9,0.1-1.6,0.9-1.6,1.8v12.4c0,0.9,0.7,1.7,1.6,1.8
					l12.4,1.5c1.2,5.6,3.4,10.9,6.4,15.6l-5,6.4l-2.7,3.4c-0.6,0.7-0.5,1.8,0.1,2.4l6.3,6.3l0.1,0.1l2.4,2.4
					c0.6,0.6,1.7,0.7,2.4,0.1l3.2-2.5l0.1-0.1l6.4-5.1c3.2,2.1,6.8,3.8,10.5,5.1c0.1,0,0.3,0.1,0.4,0.2c1.5,0.5,3,0.9,4.6,1.2
					l1.5,12.4c0.1,0.9,0.9,1.6,1.8,1.6H535c0.9,0,1.7-0.7,1.8-1.6l1.5-12.4c1.6-0.3,3.1-0.8,4.6-1.2c3.9-1.3,7.6-3,10.9-5.2l6.6,5.2
					l3.2,2.5c0.7,0.6,1.8,0.5,2.4-0.1l2.4-2.4l6.4-6.4c0.6-0.6,0.7-1.7,0.1-2.4l-7.7-9.8c3.1-4.7,5.3-9.9,6.5-15.6l12.4-1.5
					c0.9-0.1,1.6-0.9,1.6-1.8v-12.4C587.8,323.2,587.1,322.4,586.2,322.3z M533.1,363c-1.4,0.2-2.7,0.3-4.1,0.3
					c-4.1,0-8-0.8-11.6-2.2c-12.5-4.7-21.4-16.7-21.4-30.8c0-16.6,12.3-30.4,28.3-32.6c1.5-0.2,3.1-0.4,4.7-0.4c2.5,0,5,0.3,7.4,0.9
					c14.7,3.4,25.6,16.5,25.6,32.1C562,347.1,549.4,360.9,533.1,363z"/>
			</g>
			<g>
				<path class="st0" d="M287.7,286.8l-28.7,88h26l4.5-16.5H318l4.3,16.5h25.8l-28.8-88C319.4,286.8,287.7,286.8,287.7,286.8z
					 M294.5,338.9c3.6-13.7,6-23,7.1-27.5c1.1-4.7,1.7-8.1,2.1-10.1c0.4,2.2,1.3,5.8,2.4,10.9c1.3,5.1,2.2,9.2,3.2,12.4L313,339
					L294.5,338.9L294.5,338.9z"/>
				<path class="st0" d="M384.2,286.3h-25.6v88.8h19.9v-29.4h5.7c9,0,15.8-2.7,20.7-8.2c4.9-5.3,7.3-13.1,7.3-23
					c0-9.1-2.4-15.9-7-20.9C400.5,288.7,393.6,286.3,384.2,286.3z M389.3,323.1c-1.7,2.1-4.1,3-7.1,3h-3.6v-20.3h5.2
					c5.5,0,8.2,3,8.2,8.9C392,318.1,391,321,389.3,323.1z"/>
				<rect x="424.6" y="286.2" class="st0" width="24.1" height="88.7"/>
			</g>
		</g>
	</g>
</g>
</svg>
