<?xml version="1.0" encoding="utf-8"?>
<!-- Generator: Adobe Illustrator 21.1.0, SVG Export Plug-In . SVG Version: 6.00 Build 0)  -->
<svg version="1.1" id="Capa_1" xmlns="http://www.w3.org/2000/svg" xmlns:xlink="http://www.w3.org/1999/xlink" x="0px" y="0px"
	 viewBox="0 0 29.1 29.1" style="enable-background:new 0 0 29.1 29.1;" xml:space="preserve">
<style type="text/css">
	.st0{fill:#3F3F3F;}
	.st1{fill:#B0BEC5;}
	.st2{fill:#4CC8EF;}
</style>
<g>
	<path class="st0" d="M21.7,6.1c1.1,0,2-0.9,2-2V2c0-1.1-0.9-2-2-2s-2,0.9-2,2v2.1C19.7,5.2,20.6,6.1,21.7,6.1z"/>
	<path class="st1" d="M28.8,3.5h-3.9c0,0-0.1,0-0.1,0.1v0.8c0,1.5-1,2.9-2.5,3.2c-1.9,0.3-3.6-1.2-3.6-3v-1h-8.1c0,0-0.1,0-0.1,0.1
		l0,0.8c0,1.5-1,2.9-2.5,3.2C6,7.9,4.3,6.4,4.3,4.5v-1l-4-0.1c0,0-0.1,0-0.1,0.1V29c0,0,0,0.1,0.1,0.1h2h24.6l2,0c0,0,0.1,0,0.1-0.1
		L28.8,3.5C28.9,3.5,28.8,3.5,28.8,3.5z M26.9,27.1H2.3c0,0-0.1,0-0.1-0.1V10.7c0,0,0-0.1,0.1-0.1h24.5c0,0,0.1,0,0.1,0.1L26.9,27.1
		L26.9,27.1z"/>
	<path class="st0" d="M7.4,6.1c1.1,0,2-0.9,2-2V2c0-1.1-0.9-2-2-2s-2,0.9-2,2v2.1C5.3,5.2,6.2,6.1,7.4,6.1z"/>
	<rect x="7.7" y="11.4" width="3.2" height="2.9"/>
	<rect x="12.7" y="11.4" width="3.2" height="2.9"/>
	<rect x="17.9" y="11.4" width="3.2" height="2.9"/>
	<rect x="7.7" y="15.4" width="3.2" height="2.9"/>
	<rect x="12.7" y="15.4" width="3.2" height="2.9"/>
	<rect x="17.9" y="15.4" class="st2" width="3.2" height="2.9"/>
	<rect x="7.7" y="19.3" width="3.2" height="2.9"/>
	<rect x="3.1" y="15.4" width="3.2" height="2.9"/>
	<rect x="3.1" y="19.3" width="3.2" height="2.9"/>
	<rect x="12.7" y="19.3" width="3.2" height="2.9"/>
	<rect x="17.9" y="19.3" width="3.2" height="2.9"/>
</g>
<rect x="22.8" y="11.4" width="3.2" height="2.9"/>
<rect x="7.7" y="23.1" width="3.2" height="2.9"/>
<rect x="3.1" y="23.1" width="3.2" height="2.9"/>
<rect x="12.7" y="23.1" width="3.2" height="2.9"/>
<rect x="17.9" y="23.1" width="3.2" height="2.9"/>
<rect x="22.8" y="15.4" width="3.2" height="2.9"/>
<rect x="22.8" y="19.3" width="3.2" height="2.9"/>
</svg>
