<?xml version="1.0" encoding="utf-8"?>
<!-- Generator: Adobe Illustrator 21.1.0, SVG Export Plug-In . SVG Version: 6.00 Build 0)  -->
<svg version="1.1" id="Capa_1" xmlns="http://www.w3.org/2000/svg" xmlns:xlink="http://www.w3.org/1999/xlink" x="0px" y="0px"
	 viewBox="0 0 471.8 365" style="enable-background:new 0 0 471.8 365;" xml:space="preserve">
<style type="text/css">
	.st0{fill:#3F3F3F;}
	.st1{fill:#4CC8EF;}
</style>
<title>cargos-automaticos</title>
<path class="st0" d="M434.7,74.3c0-22.2-18-40.3-40.3-40.3H40.3C18,34,0,52,0,74.3v35.3h434.7V74.3z"/>
<path class="st1" d="M410.9,226h-26.5v-26.5c0-1.4-1.1-2.5-2.5-2.5h-20c-1.4,0-2.5,1.1-2.5,2.5V226H333c-1.4,0-2.5,1.1-2.5,2.5v20
	c0,1.4,1.1,2.5,2.5,2.5h26.5v26.5c0,1.4,1.1,2.5,2.5,2.5h20c1.4,0,2.5-1.1,2.5-2.5V251H411c1.4,0,2.5-1.1,2.5-2.5v-20
	C413.5,227.1,412.4,226,410.9,226C411,226,411,226,410.9,226z"/>
<path class="st0" d="M372,138.8c-17.6,0-34.8,4.6-50,13.5H0v122.1c0,22.2,18,40.3,40.3,40.3h267.2c42,35.7,105,30.5,140.6-11.5
	s30.5-105-11.5-140.6C418.6,147.2,395.7,138.8,372,138.8z M148.6,259.4c0,2.8-2.3,5.2-5.2,5.2l0,0H63.8c-2.9,0-5.2-2.3-5.2-5.2
	v-15.7c0-2.9,2.3-5.2,5.2-5.2h79.6c2.8,0,5.2,2.3,5.2,5.2c0,0,0,0,0,0L148.6,259.4z M372,301.8c-34.9,0-63.3-28.3-63.3-63.3
	s28.3-63.3,63.3-63.3s63.3,28.3,63.3,63.3S406.9,301.8,372,301.8L372,301.8z"/>
</svg>
