<?xml version="1.0" encoding="utf-8"?>
<!-- Generator: Adobe Illustrator 21.1.0, SVG Export Plug-In . SVG Version: 6.00 Build 0)  -->
<svg version="1.1" id="Capa_1" xmlns="http://www.w3.org/2000/svg" xmlns:xlink="http://www.w3.org/1999/xlink" x="0px" y="0px"
	 viewBox="0 0 500 387.1" style="enable-background:new 0 0 500 387.1;" xml:space="preserve">
<style type="text/css">
	.st0{fill:#B0BEC5;}
	.st1{fill:#484C4D;}
	.st2{fill:#3F3F3F;}
	.st3{display:none;}
	.st4{display:none;fill:#4CC8EF;}
	.st5{fill:none;}
	.st6{fill:#4CC8EF;}
</style>
<g id="cloud-basket">
	<g id="cloud-basket_1_">
		<path class="st0" d="M404.1,119.5c-4.3,0-8.5,0.4-12.7,0.9C387.7,53.3,332.2,0,264.2,0c-55.5,0-97.8,40.4-115.3,90
			c-9.3-2.4-24-8.7-34.1-8.7C51.4,81.3,0,132.8,0,196.2c0,63.5,51.4,114.9,114.9,114.9c2,0,4.2,0,6.4,0l7.6,38.6
			c1.6,8.3,4.7,15.4,9.4,21.4c3,3.8,6.6,7,10.6,9.4c3.2,1.9,6.6,3.4,10.2,4.5c0,0,1.2,0.4,1.5,0.5c1.2,0.3,2.1,0.5,2.5,0.6
			c0.5,0.1,1.3,0.2,1.8,0.3c1.1,0.2,1.9,0.2,2.3,0.2c1.4,0.1,2.9,0.2,4.6,0.3c4.4,0.2,10.3,0.3,15.8,0.3c3.5,0,6.8,0,10.2-0.2l3-0.2
			c0.2,0,0.9-0.1,1.2-0.1h92.5c0.9,0.1,1.7,0.1,3.1,0.1c3.1,0.1,8.4,0.1,13.8,0.1c4.2,0,8.5,0,11.8-0.1l6.3-0.1
			c0.2,0,0.7-0.1,1.2-0.1c4.6-0.3,9-1.2,13-2.9c3.9-1.5,7.5-3.7,10.8-6.5c4.3-3.6,7.8-8.2,10.6-13.6c2-4,3.4-8.3,4.6-13.6l7.7-38.9
			c11.8,0,21.1,0,27,0c52.9,0,95.8-42.9,95.8-95.8C500,162.4,457.1,119.5,404.1,119.5z M371.2,247.7l-12.6,63.4l-7,35.3v0.1
			c-0.7,3.2-1.6,6.2-3,9s-3.4,5.6-6,7.8c-1.7,1.4-3.7,2.7-5.9,3.5c-2.5,1-5.1,1.5-7.6,1.6c-0.1,0-0.1,0-0.1,0
			c-0.5,0.1-0.7,0.1-0.9,0.1c-0.5,0-0.9,0-1.4,0c-1,0-2.4,0-4,0.1c-3.2,0-7.4,0.1-11.5,0.1c-5.2,0-10.3,0-13.3-0.1
			c-1,0-1.8,0-2.5-0.1c-0.1,0-0.2,0-0.4,0h-94.2c-0.6,0.1-0.9,0.1-1.3,0.2c-1,0.1-2,0.1-3.2,0.1c-2.4,0.1-5.4,0.1-8.7,0.1
			c-5.2,0-10.9-0.1-15-0.2c-1.4-0.1-2.6-0.1-3.7-0.2c-0.6,0-1.2-0.1-1.9-0.2c-0.4-0.1-0.8-0.1-1.6-0.3c-0.2-0.1-0.5-0.2-0.9-0.3
			c-2.1-0.6-4.1-1.4-5.9-2.6c-2.3-1.4-4.2-3.2-5.9-5.2c-3.1-4-4.8-8.6-5.7-13.5l-7-35.2l-12.6-63.6c-3.5-0.6-6.8-1.8-9.7-3.6
			c-4.2-2.5-7.7-6.2-9.9-10.8c-1.4-3-2.3-6.5-2.3-10s0.8-7,2.3-10.1c1.4-3,3.5-5.7,5.9-7.9c4.8-4.3,11.3-6.9,18.3-6.9h45.4
			l44.5-74.4l0,0c1-1.7,2.2-3.2,3.6-4.4c1.4-1.2,2.9-2.2,4.4-3c3.1-1.5,6.3-2.2,9.6-2.3c3.3,0,6.7,0.7,10,2.6
			c0.1,0.1,0.2,0.2,0.4,0.3c0.1-0.1,0.2-0.2,0.3-0.2l0,0l0,0l0,0l0,0c3.3-1.9,6.7-2.6,10.1-2.6c3.2,0,6.4,0.7,9.4,2.2
			c2.9,1.5,5.8,3.9,7.7,7.2l0,0l44.6,74.5h46.1c5.2,0,10.1,1.4,14.3,4c4.2,2.5,7.7,6.2,9.8,10.7c1.5,3,2.3,6.5,2.3,10.1
			s-0.8,7-2.3,10c-1.4,3-3.5,5.7-5.9,7.9C382.2,244.7,376.9,247.1,371.2,247.7z"/>
		<path class="st1" d="M333.5,366.9C333.5,366.8,333.5,366.8,333.5,366.9C333.5,366.8,333.5,366.8,333.5,366.9L333.5,366.9z"/>
		<path class="st1" d="M336.2,364.4L336.2,364.4C336.2,364.4,336.2,364.5,336.2,364.4C336.2,364.5,336.2,364.4,336.2,364.4z"/>
		<polygon class="st2" points="256.9,196.3 250.8,182.1 244.3,196.3 		"/>
		<path class="st2" d="M359.8,211.1h-48.5l-44.3-74c-2.3-3.9-8-5-12-2.8c-3.9,2.3-7.2,8.1-5,12l38.8,64.8h-79.1l38.3-64
			c2.3-3.9,0.3-10.6-3.6-12.8c-3.9-2.3-10-1-12.3,3L188,211.1h-47.8c-8.1,0-14.7,5.9-14.7,13.1s6.6,13.1,14.7,13.1h3.9l14.6,73.8
			l5.1,25.6c1.2,6.8,4.5,11.2,9.9,12.3c-0.3,0.7,29.5,0.9,29.3,0.2h89.4c0,0.2,30,0.2,30,0c6.8-0.1,10.5-4.2,12.3-12.6l5.1-25.6
			l14.7-73.8h5.3c8.1,0,14.7-5.9,14.7-13.1C374.5,217,367.9,211.1,359.8,211.1z M185.2,339.6c-6.1,0-9.8-4.1-11.1-11.1l-1.4-6.9
			h23.6l2.8,18H185.2z M210.7,339.6l-2.8-17.9H228l1.1,17.9H210.7z M260.5,339.6h-19.9l-1.1-17.8l21.6,0.1L260.5,339.6z
			 M290.7,339.6h-20.9l0.9-17.7h22.2L290.7,339.6z M324.4,328.5c-1.6,7.4-4.9,11.1-11.1,11.1h-11.1l2.3-17.7l21.2,0.1L324.4,328.5z
			 M311.5,268.1l25.2,0.1l-3.1,15.1l-24-0.1L311.5,268.1z M308.1,294.7l23.2,0.1l-3.2,15.8l-22-0.1L308.1,294.7z M275.3,237.3H304
			l-2.5,19.3l-27.2-0.1L275.3,237.3z M273.6,268l26.4,0.1l-2,15.1l-25.2-0.1L273.6,268z M272.2,294.6l24.3,0.1l-2,15.8h-23.1
			L272.2,294.6z M263.9,237.3l-0.7,19.2l-28.1-0.1l-1.2-19.2h30L263.9,237.3L263.9,237.3z M236.9,283.1l-1-15.1l27,0.1l-0.5,15.1
			L236.9,283.1z M262,294.6l-0.5,15.8l-22.8-0.1l-1-15.9L262,294.6z M227.2,310.3h-21.1l-2.5-15.9h22.5L227.2,310.3z M225.4,283
			h-23.5l-2.4-15.1l24.9,0.1L225.4,283z M222.5,237.3l1.2,19.1h-26l-3-19.1L222.5,237.3L222.5,237.3z M194.6,310.2l-24.2-0.1
			l-3.2-15.9l24.9,0.1L194.6,310.2z M190.3,282.9h-25.4l-3.1-15.1l26.2,0.1L190.3,282.9z M155.7,237.4c0,0,0,0,0-0.1l27.2-0.1
			c1.3,7.3,3.3,19.1,3.3,19.1l-26.7-0.1L155.7,237.4z M342.9,237.4l-3.9,19.3l-26-0.1c0,0,2.1-10.8,3.4-19.7l26.5,0.4
			C342.9,237.4,342.9,237.4,342.9,237.4z"/>
	</g>
</g>
<g id="Layer_1" class="st3">
</g>
<path class="st4" d="M288.3,211.3"/>
<line class="st5" x1="280" y1="209" x2="323.5" y2="209"/>
<path class="st6" d="M312,211.3c-7.7,0-15.5,0-23.2,0l-38.5-63.9c-2.6-4.3-1.2-9.8,3.1-12.4l1.9-1.2c4.3-2.6,9.8-1.2,12.4,3.1
	C282.4,161.7,297.2,186.5,312,211.3z"/>
<path class="st6" d="M186.7,211.1c7.7,0,15.5,0,23.2,0l38.7-63.8c2.6-4.3,1.2-9.8-3-12.4l-1.9-1.2c-4.3-2.6-9.8-1.2-12.4,3
	C216.4,161.6,201.6,186.4,186.7,211.1z"/>
</svg>
