<?xml version="1.0" encoding="utf-8"?>
<!-- Generator: Adobe Illustrator 21.0.2, SVG Export Plug-In . SVG Version: 6.00 Build 0)  -->
<svg version="1.1" id="Layer_1" xmlns="http://www.w3.org/2000/svg" xmlns:xlink="http://www.w3.org/1999/xlink" x="0px" y="0px"
	 viewBox="0 0 128 128" style="enable-background:new 0 0 128 128;" xml:space="preserve">
<style type="text/css">
	.st0{fill:#4CC8EF;}
	.st1{fill:#3F3F3F;}
</style>
<g>
	<g>
		<path class="st0" d="M106.8,85.2L83.3,61.7l23.2-18.5c1.7-1.4,2-3.9,0.6-5.6s-3.9-2-5.6-0.6L64,67L26.5,37
			c-1.7-1.4-4.2-1.1-5.6,0.6c-1.4,1.7-1.1,4.2,0.6,5.6l23.2,18.5L21.2,85.2c-1.6,1.6-1.6,4.1,0,5.7c0.8,0.8,1.8,1.2,2.8,1.2
			s2-0.4,2.8-1.2l24-24c0,0,0.1-0.1,0.1-0.2l10.6,8.5c0.7,0.6,1.6,0.9,2.5,0.9s1.8-0.3,2.5-0.9l10.6-8.5c0,0,0.1,0.1,0.1,0.2l24,24
			c0.8,0.8,1.8,1.2,2.8,1.2s2-0.4,2.8-1.2C108.4,89.3,108.4,86.7,106.8,85.2z"/>
	</g>
</g>
<path class="st1" d="M104,16H24C10.7,16,0,26.7,0,40v48c0,13.3,10.7,24,24,24h80c13.3,0,24-10.7,24-24V40C128,26.7,117.3,16,104,16z
	 M120,88c0,8.8-7.2,16-16,16H24c-8.8,0-16-7.2-16-16V40c0-8.8,7.2-16,16-16h80c8.8,0,16,7.2,16,16V88z"/>
</svg>
