<!DOCTYPE svg PUBLIC "-//W3C//DTD SVG 20010904//EN" "http://www.w3.org/TR/2001/REC-SVG-20010904/DTD/svg10.dtd">
<svg version="1.0" xmlns="http://www.w3.org/2000/svg" width="225px" height="225px" viewBox="0 0 2250 2250" preserveAspectRatio="xMidYMid meet">
<g id="layer101" fill="#3f3f3f" stroke="none">
 <path d="M371 2223 c-18 -9 -45 -34 -60 -57 l-26 -40 -3 -978 c-2 -694 1 -991 9 -1021 14 -53 64 -102 117 -117 29 -7 176 -10 475 -8 l434 3 36 28 c67 51 71 64 79 247 4 91 11 185 15 209 7 39 12 45 44 57 36 12 37 12 65 -27 35 -47 53 -48 124 -5 63 37 69 53 42 116 l-19 44 25 27 24 27 45 -19 c24 -10 50 -19 56 -19 13 0 87 124 87 146 0 7 -6 17 -14 21 -7 4 -28 20 -46 36 -28 24 -31 32 -26 62 6 32 9 34 61 40 l55 7 0 88 0 89 -55 6 c-58 8 -69 15 -78 55 -5 21 1 30 34 54 22 17 39 38 39 49 0 25 -68 137 -83 137 -7 0 -33 -7 -58 -16 -45 -17 -47 -16 -77 5 l-31 22 19 45 c11 25 20 51 20 57 -1 13 -124 87 -144 87 -7 0 -27 -20 -46 -45 -35 -47 -38 -49 -64 -39 -14 5 -16 38 -16 263 0 247 -1 257 -23 296 -12 22 -38 50 -56 62 l-34 23 -456 0 c-403 0 -460 -2 -490 -17z m542 -149 c34 -34 41 -59 27 -94 -25 -61 -89 -77 -139 -34 -25 20 -31 34 -31 64 0 30 6 44 31 64 39 33 79 33 112 0z m427 -319 l0 -35 -64 0 -63 0 -9 -62 c-9 -59 -10 -62 -46 -74 -21 -7 -38 -10 -38 -6 0 15 -58 72 -73 72 -17 0 -80 -32 -117 -60 l-25 -19 18 -49 c21 -62 21 -64 -3 -95 l-20 -25 -55 21 c-30 11 -57 18 -59 16 -15 -18 -76 -133 -76 -143 0 -7 20 -27 45 -46 33 -25 45 -41 45 -59 0 -40 -11 -49 -68 -57 l-52 -7 0 -88 0 -88 55 -6 c48 -6 58 -12 70 -36 20 -38 20 -40 -25 -73 -22 -17 -40 -38 -40 -47 0 -30 69 -139 88 -138 9 0 37 8 62 17 43 17 44 17 69 -6 l24 -23 -17 -56 c-20 -63 -26 -55 72 -105 l62 -33 28 34 c15 19 32 40 37 47 6 7 25 10 46 7 36 -5 37 -6 44 -59 l6 -54 40 0 c38 0 39 -1 39 -35 l0 -35 -482 2 -483 3 -3 718 -2 717 485 0 485 0 0 -35z m125 -354 c163 -74 253 -250 212 -416 -37 -148 -147 -253 -298 -284 -161 -34 -339 81 -398 256 -27 79 -27 136 0 217 32 98 96 172 189 218 67 34 83 38 153 38 64 0 88 -5 142 -29z m-457 -1243 c-3 -10 -43 -14 -143 -16 -143 -3 -171 0 -160 18 10 16 308 13 303 -2z"/>
 <path d="M1246 1286 c-106 -39 -166 -137 -153 -248 10 -83 53 -145 127 -184 51 -27 161 -25 217 4 163 85 164 330 0 413 -52 27 -140 34 -191 15z"/>
 </g>
<g id="layer102" fill="#4cc8ef" stroke="none">
 <path d="M1204 1658 c-9 -59 -10 -62 -46 -74 -21 -7 -38 -10 -38 -6 0 15 -58 72 -73 72 -17 0 -80 -32 -117 -60 l-25 -19 18 -49 c21 -62 21 -64 -3 -95 l-20 -25 -55 21 c-30 11 -57 18 -59 16 -15 -18 -76 -133 -76 -143 0 -7 20 -27 45 -46 33 -25 45 -41 45 -59 0 -40 -11 -49 -68 -57 l-52 -7 0 -88 0 -88 55 -6 c48 -6 58 -12 70 -36 20 -38 20 -40 -25 -73 -22 -17 -40 -38 -40 -47 0 -30 69 -139 88 -138 9 0 37 8 62 17 43 17 44 17 69 -6 l24 -23 -17 -56 c-20 -63 -26 -55 72 -105 56 -29 64 -31 75 -17 56 73 61 76 98 72 36 -5 37 -6 44 -59 l6 -54 89 0 89 0 6 48 c9 67 9 67 48 79 34 10 36 9 64 -28 34 -47 52 -48 123 -5 63 37 69 53 42 116 l-19 44 25 27 24 27 45 -19 c24 -10 50 -19 56 -19 13 0 87 124 87 146 0 7 -6 17 -14 21 -7 4 -28 20 -46 36 -28 24 -31 32 -26 62 6 32 9 34 61 40 l55 7 0 88 0 89 -55 6 c-58 8 -69 15 -78 55 -5 21 1 30 34 54 22 17 39 38 39 49 0 25 -68 137 -83 137 -7 0 -33 -7 -58 -16 -45 -17 -47 -16 -77 5 l-31 22 19 45 c11 25 20 51 20 57 -1 13 -124 87 -144 87 -7 0 -27 -20 -46 -44 -28 -38 -38 -44 -64 -43 -45 3 -53 11 -60 66 -6 44 -9 49 -37 55 -18 3 -55 6 -84 6 l-52 0 -9 -62z m261 -257 c163 -74 253 -250 212 -416 -37 -148 -147 -253 -298 -284 -161 -34 -339 81 -398 256 -27 79 -27 136 0 217 32 98 96 172 189 218 67 34 83 38 153 38 64 0 88 -5 142 -29z"/>
 <path d="M1246 1286 c-106 -39 -166 -137 -153 -248 10 -83 53 -145 127 -184 51 -27 161 -25 217 4 163 85 164 330 0 413 -52 27 -140 34 -191 15z"/>
 </g>
<g id="layer103" fill="#b0bec5" stroke="none">
 <path d="M1246 1286 c-106 -39 -166 -137 -153 -248 10 -83 53 -145 127 -184 51 -27 161 -25 217 4 163 85 164 330 0 413 -52 27 -140 34 -191 15z"/>
 </g>

</svg>