<?xml version="1.0" encoding="utf-8"?>
<!-- Generator: Adobe Illustrator 21.1.0, SVG Export Plug-In . SVG Version: 6.00 Build 0)  -->
<svg version="1.1" id="Layer_1" xmlns="http://www.w3.org/2000/svg" xmlns:xlink="http://www.w3.org/1999/xlink" x="0px" y="0px"
	 viewBox="0 0 512 512" style="enable-background:new 0 0 512 512;" xml:space="preserve">
<style type="text/css">
	.st0{fill:#3F3F3F;}
	.st1{fill:#B0BEC5;}
	.st2{fill:#4CC8EF;}
</style>
<g>
	<g>
		<g>
			<path class="st0" d="M183.8,210.4c2.3,2.3,6,2.3,8.3,0c29.1-28.5,100.6-98.6,156.4-153.3c3.5-3.4,1.6-9.4-3.2-10.1
				c-4.2-0.6-310.8-0.6-314.7,0c-4.8,0.7-6.7,6.7-3.2,10.1L183.8,210.4z"/>
			<path class="st0" d="M375.9,293.7c0-227.8,0.2-212.7-0.3-216.3c-0.7-4.9-6.6-7-10.1-3.5c-68.2,66.9-160,156.9-169.2,165.8
				c-4.6,4.5-12,4.5-16.7,0L10.5,73.8c-3.5-3.5-9.4-1.4-10.1,3.5C-0.2,81.2,0,294.9,0,293.7c0,19.8,16,35.8,35.8,35.8h304.4
				C359.9,329.4,375.9,313.4,375.9,293.7z"/>
			<path class="st1" d="M476.2,182.6c-3.7,0-8.5,0.5-8.5,6v173.1c0,32.9-26.7,59.6-59.6,59.6H142.1c-3.3,0-6,2.7-6,6
				c0,24.7,17.7,38.3,35.8,38.3h304.4c19.8,0,35.8-16,35.8-35.8V218.4C512,198.7,496,182.6,476.2,182.6z"/>
			<path class="st2" d="M444,361.7V150.4c0-19.8-16-35.8-35.8-35.8c-3.7,0-8.5,0.5-8.5,6v173.1c0,32.9-26.7,59.6-59.6,59.6H74
				c-3.3,0-6,2.7-6,6c0,24.7,17.7,38.3,35.8,38.3h304.4C428,397.5,444,381.4,444,361.7z"/>
		</g>
	</g>
</g>
</svg>
