<?xml version="1.0" encoding="utf-8"?>
<!-- Generator: Adobe Illustrator 21.1.0, SVG Export Plug-In . SVG Version: 6.00 Build 0)  -->
<svg version="1.1" id="Layer_3" xmlns="http://www.w3.org/2000/svg" xmlns:xlink="http://www.w3.org/1999/xlink" x="0px" y="0px"
	 viewBox="0 0 48 41" style="enable-background:new 0 0 48 41;" xml:space="preserve">
<style type="text/css">
	.st0{fill:#B0BEC5;}
	.st1{fill:#3F3F3F;}
	.st2{fill:#4CC8EF;}
</style>
<g>
	<path class="st0" d="M19.4,24.3l1.5-1.5l-2.7-2.7l-1.5,1.5c-0.9-0.6-1.8-1-2.9-1.3v-2.2H9v2.2c-1.1,0.3-2,0.7-2.9,1.3l-1.4-1.4
		L2,22.9l1.4,1.4c-0.6,0.8-1,1.8-1.2,2.8H0V32h2.2c0.3,1,0.7,2,1.3,2.9L2,36.3L4.7,39l1.5-1.5C7,38.1,8,38.5,9,38.8V41h4.8v-2.2
		c1-0.3,2-0.7,2.8-1.2l1.5,1.5l2.7-2.7l-1.5-1.5c0.6-0.9,1-1.9,1.3-2.9h2.2v-4.7h-2.2C20.4,26.2,19.9,25.2,19.4,24.3z M11.4,33.5
		c-2.2,0-3.9-1.8-3.9-3.9s1.8-3.9,3.9-3.9s3.9,1.8,3.9,3.9S13.6,33.5,11.4,33.5z"/>
	<path class="st1" d="M0,0v17.1h4V4h27.3v5.2h3.4V4H44v4.6c-3.4,0.9-6,4-6,7.7s2.6,6.8,6,7.7v4h-9.3v-5.4h-3.4V28h-5.3v4H48v-8v-3
		v-0.8h-2c-2.2,0-4-1.8-4-4s1.8-4,4-4h2v-0.9V8.6V0H0z"/>
	<rect x="31.3" y="12.9" class="st2" width="3.4" height="6.2"/>
</g>
</svg>
