<!DOCTYPE svg PUBLIC "-//W3C//DTD SVG 20010904//EN" "http://www.w3.org/TR/2001/REC-SVG-20010904/DTD/svg10.dtd">
<svg version="1.0" xmlns="http://www.w3.org/2000/svg" width="513px" height="513px" viewBox="0 0 5130 5130" preserveAspectRatio="xMidYMid meet">
<g id="layer101" fill="#3f3f3f" stroke="none">
 <path d="M1580 5115 c-199 -38 -398 -147 -589 -323 -222 -204 -376 -433 -453 -673 -32 -101 -33 -108 -33 -279 0 -155 3 -183 22 -240 12 -36 30 -92 39 -125 9 -33 26 -98 39 -145 56 -203 88 -321 109 -400 13 -47 37 -136 55 -199 l32 -114 -324 -326 c-365 -366 -362 -363 -362 -501 0 -146 -39 -100 813 -951 506 -505 770 -762 797 -775 32 -15 62 -19 145 -19 91 0 111 3 150 24 29 15 195 173 473 450 235 234 430 428 432 430 2 2 32 -22 66 -53 69 -62 105 -76 194 -76 73 0 128 24 180 76 79 81 102 205 55 296 -23 46 -403 435 -456 469 -18 10 -57 24 -87 29 -105 20 -195 -18 -264 -113 -32 -43 -37 -58 -41 -120 -7 -113 6 -143 105 -248 l87 -90 -350 -350 -349 -349 -785 785 -785 785 185 185 c102 101 188 185 193 185 4 0 7 -7 7 -16 0 -9 11 -53 25 -98 13 -44 36 -121 50 -171 95 -326 125 -391 206 -448 52 -38 139 -47 203 -23 53 20 119 84 148 145 32 67 36 239 9 456 -41 324 -52 399 -81 548 l-29 150 778 779 c428 428 782 778 787 778 5 0 360 -351 789 -780 l780 -780 -53 -53 -53 -53 -79 78 c-93 93 -146 120 -232 120 -99 0 -196 -61 -243 -153 -10 -18 -20 -61 -23 -95 -8 -106 17 -146 231 -361 100 -102 202 -199 227 -218 55 -40 126 -56 197 -45 67 11 88 22 146 79 106 102 103 258 -6 372 l-54 57 163 165 c197 199 219 235 218 362 0 61 -6 92 -23 130 -19 41 -162 189 -779 808 -854 855 -804 812 -952 812 -125 0 -154 -17 -326 -185 l-142 -141 -128 128 c-223 222 -258 246 -519 364 -110 50 -385 72 -535 44z m2448 -1115 c126 -77 74 -270 -73 -270 -117 0 -187 124 -127 222 41 65 134 88 200 48z m-2896 -2937 c236 -236 263 -271 221 -287 -12 -5 -79 56 -260 236 -134 133 -243 247 -243 253 0 14 21 35 34 35 6 0 118 -107 248 -237z"/>
 <path d="M3083 3164 l-113 -105 -33 25 c-55 42 -158 85 -234 97 -190 31 -383 -64 -383 -188 0 -65 65 -133 127 -133 17 0 65 16 107 35 100 46 139 51 211 30 l58 -16 -54 -55 c-30 -31 -102 -100 -161 -155 l-107 -100 -78 40 c-115 57 -181 74 -273 69 -95 -6 -150 -31 -231 -105 -39 -37 -69 -77 -91 -121 -31 -62 -33 -74 -33 -167 0 -111 16 -161 81 -252 l33 -47 -49 -52 c-55 -58 -65 -98 -32 -127 23 -21 75 -22 92 -2 7 9 30 29 52 46 l38 31 61 -41 c85 -57 151 -74 258 -69 152 7 241 67 241 161 0 72 -53 127 -123 127 -19 0 -59 -11 -89 -25 -57 -27 -116 -32 -168 -14 l-32 12 137 137 138 138 91 -48 c122 -65 190 -84 285 -78 129 7 245 79 320 196 88 139 81 338 -18 488 l-38 59 108 111 c90 91 109 116 109 141 0 37 -27 63 -66 63 -23 0 -52 -22 -141 -106z m-140 -389 c54 -113 11 -238 -100 -287 -45 -20 -89 -15 -174 18 l-41 17 143 143 c79 79 146 144 150 144 3 0 13 -16 22 -35z m-702 -341 c30 -9 58 -19 62 -23 8 -8 -228 -241 -243 -241 -13 0 -40 78 -40 116 0 59 37 112 105 147 38 20 49 21 116 1z"/>
 <path d="M3607 2546 c-146 -54 -219 -228 -152 -362 36 -72 434 -466 490 -485 60 -20 162 -16 210 9 86 44 155 149 155 236 0 100 -17 124 -249 357 -119 120 -232 225 -251 235 -46 23 -154 28 -203 10z"/>
 <path d="M3185 2122 c-32 -11 -98 -57 -126 -88 -60 -66 -77 -210 -35 -292 23 -45 422 -444 466 -467 43 -22 143 -31 196 -16 100 27 194 151 194 255 0 96 -30 139 -248 356 -241 240 -258 252 -355 256 -40 2 -81 0 -92 -4z"/>
 </g>
<g id="layer102" fill="#4cc8ef" stroke="none">
 <path d="M3083 3164 l-113 -105 -33 25 c-55 42 -158 85 -234 97 -190 31 -383 -64 -383 -188 0 -65 65 -133 127 -133 17 0 65 16 107 35 100 46 139 51 211 30 l58 -16 -54 -55 c-30 -31 -102 -100 -161 -155 l-107 -100 -78 40 c-115 57 -181 74 -273 69 -95 -6 -150 -31 -231 -105 -39 -37 -69 -77 -91 -121 -31 -62 -33 -74 -33 -167 0 -111 16 -161 81 -252 l33 -47 -49 -52 c-55 -58 -65 -98 -32 -127 23 -21 75 -22 92 -2 7 9 30 29 52 46 l38 31 61 -41 c85 -57 151 -74 258 -69 152 7 241 67 241 161 0 72 -53 127 -123 127 -19 0 -59 -11 -89 -25 -57 -27 -116 -32 -168 -14 l-32 12 137 137 138 138 91 -48 c122 -65 190 -84 285 -78 129 7 245 79 320 196 88 139 81 338 -18 488 l-38 59 108 111 c90 91 109 116 109 141 0 37 -27 63 -66 63 -23 0 -52 -22 -141 -106z m-140 -389 c54 -113 11 -238 -100 -287 -45 -20 -89 -15 -174 18 l-41 17 143 143 c79 79 146 144 150 144 3 0 13 -16 22 -35z m-702 -341 c30 -9 58 -19 62 -23 8 -8 -228 -241 -243 -241 -13 0 -40 78 -40 116 0 59 37 112 105 147 38 20 49 21 116 1z"/>
 </g>

</svg>