<?xml version="1.0" encoding="utf-8"?>
<!-- Generator: Adobe Illustrator 21.1.0, SVG Export Plug-In . SVG Version: 6.00 Build 0)  -->
<svg version="1.1" id="Layer_1" xmlns="http://www.w3.org/2000/svg" xmlns:xlink="http://www.w3.org/1999/xlink" x="0px" y="0px"
	 viewBox="0 0 512 512" style="enable-background:new 0 0 512 512;" xml:space="preserve">
<style type="text/css">
	.st0{fill:#B0BEC5;}
	.st1{fill:#4CC8EF;}
	.st2{fill:#3F3F3F;}
</style>
<g id="XMLID_174_">
	<path id="XMLID_3390_" class="st0" d="M41,315.8c-5.8,0-11.4-1.6-16.4-4.6L6,300v172.5h67.5V297.1l-11,10.2
		C56.7,312.8,49,315.8,41,315.8z"/>
	<polygon id="XMLID_183_" class="st1" points="143.2,232.4 143.2,472.6 210.8,472.6 210.8,225.5 176.1,201.8 	"/>
	<path id="XMLID_182_" class="st0" d="M290.2,273.1c-6.4,0-12.6-1.9-17.9-5.5l-13.3-9.1v214h67.5V251.8L311,265.4
		C305.2,270.4,297.8,273.1,290.2,273.1z"/>
	<polygon id="XMLID_175_" class="st1" points="378.5,472.6 446,472.6 446,148 378.5,206.7 	"/>
	<path id="XMLID_498_" class="st2" d="M401.1,69.3L429,96.4L288.8,217.5l-105.1-71.8c-7.3-5-17.2-4.3-23.7,1.8l-121.6,113L6.1,240.9
		v44.4l25.1,15.1c7.3,4.4,16.5,3.4,22.8-2.4l120.9-112.4l104.6,71.5c7.1,4.9,16.7,4.3,23.2-1.3l153.7-132.9l23,22.3L506,39.4
		L401.1,69.3z"/>
</g>
</svg>
