<?xml version="1.0" encoding="utf-8"?>
<!-- Generator: Adobe Illustrator 21.1.0, SVG Export Plug-In . SVG Version: 6.00 Build 0)  -->
<svg version="1.1" id="Layer_1" xmlns="http://www.w3.org/2000/svg" xmlns:xlink="http://www.w3.org/1999/xlink" x="0px" y="0px"
	 viewBox="0 0 512 375" style="enable-background:new 0 0 512 375;" xml:space="preserve">
<style type="text/css">
	.st0{fill:#3F3F3F;}
	.st1{fill:#B0BEC5;}
	.st2{fill:#4CC8EF;}
</style>
<g>
	<g>
		<path class="st0" d="M463.1,84.9c-3.5-4.7-11.6-5.8-16.3-2.3l-123.3,94.3c-12.8,9.3-30.3,9.3-43.1,0L157.1,82.6
			c-4.7-3.5-12.8-3.5-16.3,2.3c-3.5,4.7-3.5,12.8,2.3,16.3l124.5,94.3c10.5,8.1,23.3,11.6,34.9,11.6s25.6-3.5,34.9-11.6l123.3-94.3
			C465.5,97.7,466.6,89.6,463.1,84.9z"/>
	</g>
</g>
<g>
	<g>
		<path class="st0" d="M477.1,33.7H104.7c-7,0-11.6,4.7-11.6,11.6S97.7,57,104.7,57h372.4c7,0,11.6,4.7,11.6,11.6v232.7
			c0,7-4.7,11.6-11.6,11.6H104.7c-7,0-11.6,4.7-11.6,11.6c0,7,4.7,11.6,11.6,11.6h372.4c19.8,0,34.9-15.1,34.9-34.9V68.6
			C512,48.9,496.9,33.7,477.1,33.7z"/>
	</g>
</g>
<g>
	<g>
		<path class="st1" d="M462,269.9l-69.8-69.8c-4.7-4.7-11.6-4.7-16.3,0s-4.7,11.6,0,16.3l69.8,69.8c2.3,2.3,5.8,3.5,8.1,3.5
			s5.8-1.2,8.1-3.5C466.6,281.6,466.6,274.6,462,269.9z"/>
	</g>
</g>
<g>
	<g>
		<path class="st2" d="M106.5,116.8c-6.3-4.7-15.9-8.2-28.7-11.2h-0.6V76.3c8.9,1.1,16.6,4.1,24.2,8.8L112.3,71
			c-10.8-7.1-22.9-11.2-35-11.7V51H66.4v7c-10.8,0.6-19.8,3.5-26.8,9.4c-7,5.9-10.2,13.4-10.2,22.4c0,9.4,3.2,15.9,8.9,20.6
			c5.8,4.7,15.2,8.2,28,11.2V152c-10.2-1.1-19.8-5.9-29.2-13.4L25,152.1c12.1,9.9,26.1,15.9,41.3,17.1v11.2h10.8v-11.2
			c11.5-0.6,21-3.5,28-9.4c7-5.9,10.2-13.4,10.2-22.4C115.3,128.5,112.8,121.6,106.5,116.8L106.5,116.8z M65.8,102.8
			C59.4,101,55.6,98.8,53,97c-1.9-1.8-3.2-4.7-3.2-8.2c0-3.5,1.2-6.4,4.4-8.8c2.6-2.4,7-4.1,11.5-4.1V102.8L65.8,102.8z M89.8,148
			c-3.2,2.4-7.7,4.1-13.3,4.7v-28.2c7,1.8,11.5,3.5,14,5.9c2.6,2.4,3.8,5.3,3.8,8.8C94.3,142.7,93.1,145.6,89.8,148z"/>
	</g>
</g>
<path class="st2" d="M163.6,248.5h-130c-4.8,0-8.7-3.9-8.7-8.7v0c0-4.8,3.9-8.7,8.7-8.7h130c4.8,0,8.7,3.9,8.7,8.7v0
	C172.3,244.6,168.4,248.5,163.6,248.5z"/>
<path class="st2" d="M187.3,289.2h-130c-4.8,0-8.7-3.9-8.7-8.7v0c0-4.8,3.9-8.8,8.7-8.8h130c4.8,0,8.7,3.9,8.7,8.8v0
	C196,285.2,192.1,289.2,187.3,289.2z"/>
<path class="st2" d="M138.9,208.2H8.9c-4.8,0-8.7-3.9-8.7-8.8v0c0-4.8,3.9-8.7,8.7-8.7h130c4.8,0,8.8,3.9,8.8,8.7v0
	C147.7,204.2,143.7,208.2,138.9,208.2z"/>
</svg>
