<?xml version="1.0" encoding="utf-8"?>
<!-- Generator: Adobe Illustrator 21.1.0, SVG Export Plug-In . SVG Version: 6.00 Build 0)  -->
<svg version="1.1" id="Capa_1" xmlns:sketch="http://www.bohemiancoding.com/sketch/ns"
	 xmlns="http://www.w3.org/2000/svg" xmlns:xlink="http://www.w3.org/1999/xlink" x="0px" y="0px" viewBox="0 0 27.5 30.8"
	 style="enable-background:new 0 0 27.5 30.8;" xml:space="preserve">
<style type="text/css">
	.st0{fill:#3F3F3F;}
	.st1{fill:#4CC8EF;}
</style>
<title></title>
<desc></desc>
<g id="icon-24-one-finger-tap">
	<path id="one-finger-tap" class="st0" d="M16.9,29.1c4.1,0,7.5-3.6,7.5-7.5c0,0,0,2.3,0,0v-3.8v-2.2c0-0.8-0.7-1.5-1.5-1.5
		c-0.8,0-1.5,0.7-1.5,1.5v0.5h-1v-2.5c0-0.8-0.7-1.5-1.5-1.5c-0.8,0-1.5,0.7-1.5,1.5v1.5h-1v-2.5c0-0.8-0.7-1.5-1.5-1.5
		c-0.8,0-1.5,0.7-1.5,1.5v3.5h-1V5.6c0-0.8-0.7-1.5-1.5-1.5c-0.8,0-1.5,0.7-1.5,1.5v11.3c-2.1-2.2-4.8-4.6-5.9-3.5
		c-1.1,1.1,1.7,4.1,5.6,10.7C10.9,27.1,13.1,29.1,16.9,29.1L16.9,29.1z M25.4,21.6c0,4.7-3.8,8.5-8.5,8.5c-3.1,0-6.4-1.5-8.7-5.6
		C5,18.6,0.8,14.7,2.8,12.7c1.4-1.4,3.7-0.1,5.6,1.8l0,0V5.6c0-1.4,1.1-2.5,2.5-2.5c1.4,0,2.5,1.1,2.5,2.5v5
		c0.4-0.3,0.9-0.5,1.5-0.5c1.1,0,2,0.7,2.3,1.6c0.4-0.4,1-0.6,1.7-0.6c1.4,0,2.5,1.1,2.5,2.5v0c0.4-0.3,0.9-0.5,1.5-0.5
		c1.4,0,2.5,1.1,2.5,2.5V21.6L25.4,21.6z"/>
	<g>
		<path class="st1" d="M14.4,8.2c0.6-0.8,1-1.8,1-2.8c0-2.5-2-4.5-4.5-4.5s-4.5,2-4.5,4.5c0,1.1,0.4,2.1,1,2.8V5.3
			c0-1.9,1.6-3.5,3.5-3.5c1.9,0,3.5,1.6,3.5,3.5V8.2L14.4,8.2L14.4,8.2z"/>
	</g>
</g>
</svg>
