<?xml version="1.0" encoding="utf-8"?>
<!-- Generator: Adobe Illustrator 21.1.0, SVG Export Plug-In . SVG Version: 6.00 Build 0)  -->
<svg version="1.1" id="Capa_1" xmlns="http://www.w3.org/2000/svg" xmlns:xlink="http://www.w3.org/1999/xlink" x="0px" y="0px"
	 viewBox="0 0 339.1 339.1" style="enable-background:new 0 0 339.1 339.1;" xml:space="preserve">
<style type="text/css">
	.st0{fill:#3F3F3F;}
	.st1{fill:#4CC8EF;}
</style>
<g>
	<path class="st0" d="M238.5,47.4c-2.4,0-4.8,0.1-7.2,0.3V26.4c0-14.6-11.8-26.4-26.4-26.4H41.7C27.2,0,15.3,11.8,15.3,26.4v286.3
		c0,14.6,11.8,26.4,26.4,26.4h163.1c14.6,0,26.4-11.8,26.4-26.4v-94.9c2.4,0.2,4.8,0.3,7.2,0.3c47.1,0,85.3-38.3,85.3-85.3
		C323.8,85.7,285.5,47.4,238.5,47.4z M101.3,25.2h38.2c4.7,0,8.5,3.8,8.5,8.5s-3.8,8.5-8.5,8.5h-38.2c-4.7,0-8.5-3.8-8.5-8.5
		S96.6,25.2,101.3,25.2z M131.8,304.7c0,4.7-3.8,8.5-8.5,8.5s-8.5-3.8-8.5-8.5v-8.5h17V304.7z M214.2,279.2H32.3V66.2
		c0-5.2,4.2-9.4,9.4-9.4h157.9c-27.6,14.2-46.5,42.9-46.5,75.9c0,10.1,1.8,20,5.2,29.4l-14,55.1c-0.9,3.4,0.1,7,2.6,9.5
		c1.9,1.9,4.5,2.9,7.1,2.9c0.8,0,1.6-0.1,2.5-0.3l57.7-14.6L214.2,279.2L214.2,279.2z M238.5,198.1c-7,0-13.8-1.1-20.4-3.3
		c-1.8-0.6-3.7-0.7-5.6-0.2L167.9,206l10.6-42c0.5-2.1,0.4-4.3-0.5-6.3c-3.3-7.9-4.9-16.3-4.9-24.9c0-36,29.3-65.3,65.3-65.3
		c36,0,65.3,29.3,65.3,65.3C303.8,168.8,274.5,198.1,238.5,198.1z"/>
	<path class="st1" d="M240.1,123.2c-10.2-3.1-12.2-4.5-12.2-8.7c0-4.1,6.8-5.2,10.7-5.2c3.8,0,8.4,1.2,11.1,3
		c0.6,0.4,1.3,0.5,1.9,0.4c0.7-0.1,1.2-0.5,1.6-1.1l5.3-8.2c0.4-0.6,0.5-1.3,0.4-1.9c-0.1-0.7-0.5-1.2-1.1-1.6
		c-3.3-2.1-7.4-3.7-11.8-4.6v-8.1c0-1.4-1.1-2.6-2.6-2.6l-9.7,0l0,0c-0.7,0-1.3,0.3-1.8,0.8c-0.5,0.5-0.8,1.1-0.8,1.8l0,8
		c-11.1,2.2-18.2,9.7-18.2,19.4c0,16,13.7,20.2,22.7,22.9c10,3,11.4,4.3,11.3,7.6c0,0.8-0.2,1.8-1.6,2.8c-1.8,1.3-5,2-8.6,2
		c0,0,0,0-0.1,0c-4.7,0-10-2.1-12.9-5.2c-1-1-2.6-1.1-3.6-0.1l-7.1,6.7c-1,1-1.1,2.6-0.1,3.6c4.5,4.7,11.1,8.1,18.1,9.3v7.8
		c0,1.4,1.1,2.6,2.6,2.6h9.7c1.4,0,2.6-1.1,2.6-2.6v-8.4c3-0.8,5.6-2,7.9-3.5c5.2-3.6,8-8.9,8-14.9
		C262.1,129.9,248.8,125.8,240.1,123.2z"/>
</g>
</svg>
