<?xml version="1.0" encoding="utf-8"?>
<!-- Generator: Adobe Illustrator 21.0.2, SVG Export Plug-In . SVG Version: 6.00 Build 0)  -->
<svg version="1.1" id="Layer_1" xmlns="http://www.w3.org/2000/svg" xmlns:xlink="http://www.w3.org/1999/xlink" x="0px" y="0px"
	 viewBox="0 0 128 128" style="enable-background:new 0 0 128 128;" xml:space="preserve">
<style type="text/css">
	.st0{fill:#3F3F3F;}
	.st1{fill:#B0BEC5;}
	.st2{fill:#4CC8EF;}
</style>
<g>
	<g>
		<path class="st0" d="M108,8h-8l0-3.8c0-1.9-1.3-3.7-3.1-4.1C94.3-0.4,92,1.5,92,4v4h-8l0-3.8c0-1.9-1.3-3.7-3.1-4.1
			C78.3-0.4,76,1.5,76,4v4h-8l0-3.8c0-1.9-1.3-3.7-3.1-4.1C62.3-0.4,60,1.5,60,4v4h-8l0-3.8c0-1.9-1.3-3.7-3.1-4.1
			C46.3-0.4,44,1.5,44,4v4h-8l0-3.8c0-1.9-1.3-3.7-3.1-4.1C30.3-0.4,28,1.5,28,4v4h-8C11.2,8,4,15.2,4,24v88c0,8.8,7.2,16,16,16h88
			c8.8,0,16-7.2,16-16V24C124,15.2,116.8,8,108,8z M116,112c0,4.4-3.6,8-8,8H20c-4.4,0-8-3.6-8-8V24c0-4.4,3.6-8,8-8h8l0,3.8
			c0,1.9,1.3,3.7,3.1,4.1c2.6,0.5,4.9-1.4,4.9-3.9v-4h8l0,3.8c0,1.9,1.3,3.7,3.1,4.1c2.6,0.5,4.9-1.4,4.9-3.9v-4h8l0,3.8
			c0,1.9,1.3,3.7,3.1,4.1c2.6,0.5,4.9-1.4,4.9-3.9v-4h8l0,3.8c0,1.9,1.3,3.7,3.1,4.1c2.6,0.5,4.9-1.4,4.9-3.9v-4h8l0,3.8
			c0,1.9,1.3,3.7,3.1,4.1c2.6,0.5,4.9-1.4,4.9-3.9v-4h8c4.4,0,8,3.6,8,8V112z"/>
	</g>
</g>
<path class="st1" d="M20,40v72h88V40H20z M84,48v8h-8v-8H84z M52,72h-8v-8h8V72z M60,64h8v8h-8V64z M52,80v8h-8v-8H52z M60,80h8v8
	h-8V80z M76,80h8v8h-8V80z M76,72v-8h8v8H76z M68,48v8h-8v-8H68z M52,48v8h-8v-8H52z M28,48h8v8h-8V48z M28,64h8v8h-8V64z M28,80h8
	v8h-8V80z M28,104v-8h8v8H28z M44,104v-8h8v8H44z M60,104v-8h8v8H60z M76,104v-8h8v8H76z M100,104h-8v-8h8V104z M100,88h-8v-8h8V88z
	 M100,72h-8v-8h8V72z M100,56h-8v-8h8V56z"/>
<g>
	<path class="st2" d="M36,20c0,2.2-1.8,4-4,4s-4-1.8-4-4V4c0-2.2,1.8-4,4-4s4,1.8,4,4V20z"/>
</g>
<g>
	<path class="st2" d="M52,20.1c0,2.2-1.8,4-4,4s-4-1.8-4-4V4c0-2.2,1.8-4,4-4s4,1.8,4,4V20.1z"/>
</g>
<g>
	<path class="st2" d="M68,20c0,2.2-1.8,4-4,4c-2.2,0-4-1.8-4-4V4c0-2.2,1.8-4,4-4c2.2,0,4,1.8,4,4V20z"/>
</g>
<g>
	<path class="st2" d="M84,20c0,2.2-1.8,4-4,4s-4-1.8-4-4V4c0-2.2,1.8-4,4-4s4,1.8,4,4V20z"/>
</g>
<g>
	<path class="st2" d="M100,20c0,2.2-1.8,4-4,4h0c-2.2,0-4-1.8-4-4V4c0-2.2,1.8-4,4-4h0c2.2,0,4,1.8,4,4V20z"/>
</g>
</svg>
