<?xml version="1.0" encoding="utf-8"?>
<!-- Generator: Adobe Illustrator 21.1.0, SVG Export Plug-In . SVG Version: 6.00 Build 0)  -->
<svg version="1.1" id="Capa_1" xmlns="http://www.w3.org/2000/svg" xmlns:xlink="http://www.w3.org/1999/xlink" x="0px" y="0px"
	 viewBox="0 0 374 371" style="enable-background:new 0 0 374 371;" xml:space="preserve">
<style type="text/css">
	.st0{fill:#3F3F3F;}
	.st1{fill:#4CC8EF;}
</style>
<g id="gear-tools-settings">
	<g>
		<g id="_x32_7">
			<g>
				<g>
					<path class="st0" d="M312.6,212.1l35.5-4.2c2.5-0.3,4.6-2.6,4.6-5.2v-35.5c0-2.5-2.1-4.9-4.6-5.1l-35.5-4.2
						c-3.4-16.2-9.8-31.2-18.5-44.6l22.2-28.1c1.6-2,1.4-5.1-0.4-6.9l-25.1-25.2c-1.8-1.8-4.9-2-6.9-0.4l-28.1,22.1
						c-13.4-8.7-28.4-15.1-44.6-18.5L207,20.8c-0.3-2.5-2.6-4.6-5.2-4.6h-35.5c-2.6,0-4.9,2.1-5.2,4.6l-4.2,35.5
						c-16.2,3.4-31.2,9.8-44.6,18.5L84.2,52.7c-2-1.6-5.1-1.4-6.9,0.4L52.1,78.3c-1.8,1.8-2,4.9-0.4,6.9l22.1,28.1
						c-8.7,13.4-15.1,28.4-18.5,44.6L19.9,162c-2.5,0.3-4.6,2.6-4.6,5.1l0,35.5c0,2.6,2.1,4.9,4.6,5.2l35.5,4.2
						c3.4,16.2,9.8,31.2,18.5,44.6l-22.1,28.1c-1.6,2-1.4,5.1,0.4,6.9l25.1,25.1c1.8,1.8,4.9,2,6.9,0.4l28.1-22.2
						c13.4,8.7,28.4,15.1,44.6,18.5l4.2,35.5c0.3,2.5,2.6,4.6,5.2,4.6l35.5,0c2.6,0,4.9-2.1,5.2-4.6l4.2-35.5
						c10.1-2.1,19.6-5.5,28.7-9.8l-29-28.1c-8.5,2.5-17.5,3.9-26.8,3.9c-52.3,0-94.6-42.4-94.6-94.6c0-52.3,42.4-94.6,94.6-94.6
						c52.3,0,94.6,42.4,94.6,94.6c0,9-1.3,17.6-3.7,25.8l28.7,27.9C307.5,230.2,310.7,221.4,312.6,212.1z"/>
				</g>
			</g>
			<path class="st1" d="M348,303.2L348,303.2l-98.1-95.2c7.1-23.9,0.7-51.1-18.9-70c-19.7-19-47.4-24.3-71.1-16l23.3,22.4
				c5.4,5.2,5.6,13.8,0.4,19.2L161,186.9c-5.2,5.4-13.7,5.6-19.1,0.4l-23.3-22.4c-7.3,24-0.9,51.5,18.8,70.4
				c19.8,19.1,47.7,24.3,71.4,15.8l97.9,95l0.3-0.3c11.7,11,30.2,10.6,41.4-1C359.7,333,359.4,314.5,348,303.2z M339,338.1
				c-3.7,3.8-9.8,3.9-13.6,0.2c-3.8-3.7-3.9-9.8-0.3-13.7c3.7-3.8,9.8-3.9,13.6-0.2C342.6,328.1,342.7,334.2,339,338.1z"/>
		</g>
	</g>
</g>
<g id="Layer_1">
</g>
</svg>
