<?xml version="1.0" encoding="UTF-8" standalone="no"?>
<svg
   xmlns:dc="http://purl.org/dc/elements/1.1/"
   xmlns:cc="http://creativecommons.org/ns#"
   xmlns:rdf="http://www.w3.org/1999/02/22-rdf-syntax-ns#"
   xmlns:svg="http://www.w3.org/2000/svg"
   xmlns="http://www.w3.org/2000/svg"
   xmlns:sodipodi="http://sodipodi.sourceforge.net/DTD/sodipodi-0.dtd"
   xmlns:inkscape="http://www.inkscape.org/namespaces/inkscape"
   version="1.0"
   width="1600px"
   height="500px"
   viewBox="0 0 16000 5000"
   preserveAspectRatio="xMidYMid meet"
   id="svg46"
   sodipodi:docname="jumpseller.svg"
   inkscape:version="0.92.3 (2405546, 2018-03-11)">
  <metadata
     id="metadata52">
    <rdf:RDF>
      <cc:Work
         rdf:about="">
        <dc:format>image/svg+xml</dc:format>
        <dc:type
           rdf:resource="http://purl.org/dc/dcmitype/StillImage" />
      </cc:Work>
    </rdf:RDF>
  </metadata>
  <defs
     id="defs50" />
  <sodipodi:namedview
     pagecolor="#ffffff"
     bordercolor="#666666"
     borderopacity="1"
     objecttolerance="10"
     gridtolerance="10"
     guidetolerance="10"
     inkscape:pageopacity="0"
     inkscape:pageshadow="2"
     inkscape:window-width="1600"
     inkscape:window-height="1251"
     id="namedview48"
     showgrid="false"
     inkscape:zoom="3.0829856"
     inkscape:cx="283.92715"
     inkscape:cy="133.23007"
     inkscape:window-x="-9"
     inkscape:window-y="-9"
     inkscape:window-maximized="1"
     inkscape:current-layer="layer102" />
  <g
     id="layer101"
     fill="#000000"
     stroke="none"
     style="fill:#3f3f3f;fill-opacity:1">
    <path
       d="M7206 4153 c37 -161 346 -1824 377 -2030 l42 -283 183 0 c139 0 182 3 182 13 0 6 -7 57 -15 112 -8 55 -15 106 -15 114 0 8 28 -15 63 -51 143 -146 305 -218 492 -218 163 0 267 42 365 147 66 70 111 156 137 259 21 84 23 325 4 423 -89 455 -370 782 -748 872 -75 18 -110 20 -233 17 -122 -4 -157 -9 -220 -31 -41 -14 -76 -24 -77 -24 -2 3 -133 682 -133 691 0 3 -92 6 -204 6 -189 0 -204 -1 -200 -17z m961 -951 c140 -44 256 -157 345 -337 68 -136 100 -267 100 -408 0 -151 -50 -250 -148 -298 -62 -29 -166 -24 -239 14 -143 72 -265 248 -324 468 -11 41 -37 167 -57 282 -40 226 -40 223 18 253 85 44 212 55 305 26z"
       id="path2"
       style="fill:#3f3f3f;fill-opacity:1" />
    <path
       d="M3395 3510 c-116 -38 -202 -130 -243 -260 -13 -42 -17 -89 -16 -205 1 -146 3 -162 92 -625 51 -261 97 -499 103 -527 l10 -53 200 0 c174 0 199 2 199 16 0 8 -41 230 -92 492 -82 428 -91 489 -92 597 -1 99 2 127 18 158 40 81 151 117 255 82 115 -38 229 -155 302 -310 53 -114 61 -146 148 -611 l78 -419 201 -3 c183 -2 202 -1 202 14 0 9 -52 287 -115 618 -112 587 -156 837 -171 964 l-7 62 -184 0 -185 0 6 -27 c2 -16 10 -68 16 -118 6 -49 13 -99 15 -111 3 -13 -28 11 -88 70 -158 156 -294 216 -485 215 -77 0 -124 -6 -167 -19z"
       id="path4"
       style="fill:#3f3f3f;fill-opacity:1" />
    <path
       d="M4730 3484 c0 -8 51 -293 114 -632 63 -339 126 -696 141 -792 14 -96 28 -185 31 -197 4 -23 6 -23 179 -23 160 0 175 1 175 18 0 9 -7 62 -15 117 -21 145 -21 146 22 94 92 -109 210 -192 324 -230 63 -21 93 -24 209 -24 125 0 139 2 191 26 99 47 175 145 194 251 l7 37 38 -47 c98 -124 229 -213 375 -253 114 -31 265 -25 352 15 108 49 181 145 209 275 30 143 17 260 -105 906 l-88 470 -196 3 c-109 1 -197 -1 -197 -6 0 -4 41 -228 91 -497 116 -623 122 -713 52 -796 -98 -116 -295 -60 -427 120 -101 138 -132 238 -221 721 -42 223 -78 417 -81 433 l-6 27 -194 0 c-169 0 -194 -2 -194 -16 0 -8 41 -227 90 -485 50 -258 95 -508 101 -556 23 -204 -46 -311 -195 -301 -80 5 -126 29 -206 104 -83 79 -158 202 -199 331 -19 58 -60 255 -101 483 -39 212 -73 397 -76 413 l-6 27 -194 0 c-170 0 -194 -2 -194 -16z"
       id="path6"
       style="fill:#3f3f3f;fill-opacity:1" />
    <path
       d="M2153 1459 c-180 -35 -291 -187 -248 -336 13 -45 29 -68 78 -118 68 -67 117 -95 217 -122 70 -19 196 -22 472 -13 80 3 150 1 155 -3 4 -5 8 -68 7 -140 0 -116 -4 -141 -27 -207 -15 -41 -27 -78 -27 -82 0 -8 65 -38 80 -38 13 0 58 148 71 230 6 42 9 109 5 153 -7 89 -11 87 87 61 121 -31 227 -96 323 -196 57 -59 164 -209 164 -229 0 -5 7 -9 15 -9 25 0 75 29 75 43 0 21 -95 168 -152 234 -127 149 -279 235 -471 267 l-71 12 -50 99 c-41 82 -65 115 -136 187 -48 49 -92 88 -98 88 -6 0 -22 -15 -36 -33 l-26 -34 83 -84 c75 -77 158 -201 144 -216 -3 -3 -133 -6 -289 -6 l-283 -2 -66 31 c-113 54 -178 138 -164 213 17 92 108 160 227 169 74 5 79 11 58 66 -10 29 -35 32 -117 15z"
       id="path8"
       style="fill:#3f3f3f;fill-opacity:1" />
  </g>
  <g
     id="layer102"
     fill="#abca03"
     stroke="none">
    <path
       d="m 1457,4420 c -450,-81 -836,-152 -858,-159 -90,-27 -161,-127 -161,-229 0,-54 410,-2354 434,-2436 7,-21 30,-58 52,-81 44,-46 1016,-680 1076,-702 72,-25 180,-9 240,37 l 25,18 -30,7 c -123,28 -200,70 -270,147 -47,53 -82,140 -71,180 3,14 -4,31 -19,50 -35,41 -51,126 -36,190 24,108 104,165 216,156 138,-12 225,-103 225,-235 -1,-130 -83,-213 -212,-213 -20,0 -48,4 -62,9 -24,10 -24,9 -14,-19 28,-81 167,-169 281,-177 l 62,-4 90,122 c 50,67 110,150 135,185 25,35 126,171 224,301 223,295 236,315 242,384 4,43 -40,306 -210,1249 -119,657 -223,1212 -233,1233 -19,44 -81,103 -129,123 -67,28 -162,15 -997,-136 z m 968,61 c 53,-24 101,-75 120,-125 8,-23 28,-120 45,-216 17,-96 32,-183 34,-193 4,-16 0,-15 -27,6 61.7138,-305.8553 65.7835,382.2451 -104.2165,508.2451 C 2322.7835,4587.2451 1953,4436 1960,4438 c 6,2 78,17 158,32 177,34 252,36 307,11 z M 1395,4175 c 239,-61 376,-242 461,-610 15,-67 324,-1712 324,-1727 0,-5 -88,-8 -195,-8 -147,0 -197,3 -200,13 -3,6 -77,396 -165,864 -156,826 -182,948 -221,1024 -53,105 -111,139 -238,139 -104,0 -91,-18 -116,150 -9,58 -18,115 -20,127 -4,19 1,23 37,31 70,16 267,14 333,-3 z"
       id="path11"
       style="fill:#b0bec5;fill-opacity:1"
       inkscape:connector-curvature="0"
       sodipodi:nodetypes="ccscsccccccccccscccccsccccccccsccscccccsscccscccc" />
    <path
       d="M9312 3529 c-100 -13 -214 -45 -281 -78 -33 -17 -61 -35 -61 -39 0 -4 23 -70 51 -148 l51 -141 76 33 c122 53 194 69 312 69 89 0 111 -3 145 -22 141 -76 155 -221 32 -329 -25 -22 -88 -64 -142 -94 -227 -127 -325 -273 -312 -464 15 -241 176 -414 452 -486 101 -27 313 -30 421 -6 95 20 184 55 184 70 0 13 -88 278 -94 284 -2 1 -45 -12 -97 -29 -252 -84 -459 -20 -459 141 0 85 49 142 185 216 175 94 273 181 326 290 28 56 34 80 37 153 8 167 -43 296 -159 406 -153 144 -401 209 -667 174z"
       id="path13"
       style="fill:#3f3f3f;fill-opacity:1" />
    <path
       d="M10789 3529 c-149 -19 -285 -85 -375 -182 -277 -298 -206 -920 144 -1275 172 -174 379 -263 617 -264 183 -1 307 39 410 134 186 169 181 505 -10 675 -143 127 -437 203 -786 203 l-149 0 0 48 c0 60 22 141 49 186 77 124 225 178 428 155 103 -11 241 -47 303 -79 22 -11 43 -20 48 -20 10 0 46 256 41 285 -8 39 -254 114 -437 134 -116 12 -187 12 -283 0z m253 -1034 c48 -8 112 -24 143 -36 148 -55 199 -197 106 -290 -89 -89 -274 -74 -411 34 -68 53 -140 158 -175 251 l-26 69 138 -6 c76 -4 177 -13 225 -22z"
       id="path15"
       style="fill:#3f3f3f;fill-opacity:1" />
    <path
       d="M13600 3528 c-152 -21 -307 -100 -390 -196 -50 -58 -104 -167 -127 -252 -14 -51 -18 -103 -17 -240 0 -157 3 -185 27 -273 54 -200 160 -381 307 -520 188 -179 435 -265 681 -237 143 16 233 54 316 132 103 98 137 191 131 357 -3 100 -6 112 -41 183 -62 127 -179 214 -362 271 -135 42 -256 58 -472 64 l-203 6 0 27 c0 55 23 147 48 193 101 187 387 226 710 96 41 -16 77 -28 79 -25 3 2 11 53 18 113 8 59 17 124 20 144 l5 37 -88 35 c-198 79 -452 112 -642 85z m145 -1018 c274 -26 405 -102 405 -236 0 -164 -244 -218 -425 -94 -92 63 -198 213 -221 313 l-6 27 68 0 c38 0 119 -5 179 -10z"
       id="path17"
       style="fill:#3f3f3f;fill-opacity:1" />
    <path
       d="M11673 3464 c3 -20 106 -562 228 -1205 l223 -1169 203 0 c112 0 203 3 203 7 0 8 -449 2351 -457 2381 -5 22 -6 22 -205 22 l-201 0 6 -36z"
       id="path19"
       style="fill:#3f3f3f;fill-opacity:1" />
    <path
       d="M12351 3458 c16 -77 449 -2357 449 -2363 0 -3 93 -5 206 -5 l206 0 -5 23 c-7 27 -457 2375 -457 2382 0 3 -92 5 -204 5 l-204 0 9 -42z"
       id="path21"
       style="fill:#3f3f3f;fill-opacity:1" />
    <path
       d="M14480 3495 c0 -3 47 -254 105 -557 93 -489 140 -772 160 -978 3 -36 8 -77 11 -92 l6 -28 174 0 c159 0 174 1 174 18 0 9 -7 80 -15 156 -8 77 -13 141 -11 143 1 2 20 -25 42 -59 94 -153 252 -267 398 -287 91 -13 168 -4 162 18 -5 18 -76 359 -76 366 0 3 -29 5 -64 5 -188 0 -336 112 -442 335 -57 120 -74 189 -153 605 l-66 355 -203 3 c-111 1 -202 0 -202 -3z"
       id="path23"
       style="fill:#3f3f3f;fill-opacity:1" />
  </g>
  <g
     id="layer103"
     fill="#dcea92"
     stroke="none"
     style="fill:#3f3f3f;fill-opacity:1">
    <path
       d="M1108 4183 c6 -2 18 -2 25 0 6 3 1 5 -13 5 -14 0 -19 -2 -12 -5z"
       id="path28"
       style="fill:#3f3f3f;fill-opacity:1" />
    <path
       d="M1318 4183 c6 -2 18 -2 25 0 6 3 1 5 -13 5 -14 0 -19 -2 -12 -5z"
       id="path30"
       style="fill:#3f3f3f;fill-opacity:1" />
    <path
       d="M1138 3873 c17 -2 47 -2 65 0 17 2 3 4 -33 4 -36 0 -50 -2 -32 -4z"
       id="path32"
       style="fill:#3f3f3f;fill-opacity:1" />
    <path
       d="M1789 1837 c4 -4 95 -6 202 -5 l194 3 -202 5 c-111 3 -199 2 -194 -3z"
       id="path34"
       style="fill:#3f3f3f;fill-opacity:1" />
    <path
       d="M1833 1390 c0 -25 2 -35 4 -22 2 12 2 32 0 45 -2 12 -4 2 -4 -23z"
       id="path36"
       style="fill:#3f3f3f;fill-opacity:1" />
  </g>
  <g
     id="layer104"
     fill="#ffffff"
     stroke="none">
    <path
       d="M1091 4179 c-30 -5 -57 -11 -59 -14 -3 -3 5 -70 18 -149 l22 -145 67 6 c88 7 143 -9 195 -57 50 -47 89 -121 117 -227 11 -43 91 -454 178 -913 l157 -835 196 -3 c183 -2 196 -1 192 15 -2 10 -74 393 -159 850 -86 458 -167 876 -181 930 -80 309 -200 463 -414 527 -66 21 -253 29 -329 15z"
       id="path39" />
    <path
       d="M1984 1591 c-55 -14 -102 -50 -123 -95 -35 -71 -24 -199 20 -253 9 -10 17 0 39 45 47 100 141 161 273 177 31 4 57 9 57 12 0 3 -9 17 -19 32 -42 59 -170 101 -247 82z"
       id="path41" />
    <path
       d="M2148 1370 c-89 -27 -156 -96 -161 -165 -2 -38 -1 -39 38 -47 136 -25 255 65 255 193 0 28 -1 29 -52 28 -29 0 -65 -4 -80 -9z"
       id="path43" />
  </g>
</svg>
