<?xml version="1.0" encoding="utf-8"?>
<!-- Generator: Adobe Illustrator 21.1.0, SVG Export Plug-In . SVG Version: 6.00 Build 0)  -->
<svg version="1.1" id="Layer_1" xmlns="http://www.w3.org/2000/svg" xmlns:xlink="http://www.w3.org/1999/xlink" x="0px" y="0px"
	 viewBox="0 0 501.6 359.5" style="enable-background:new 0 0 501.6 359.5;" xml:space="preserve">
<style type="text/css">
	.st0{fill:#3F3F3F;}
	.st1{fill:#FFFFFF;}
	.st2{fill:#B0BEC5;}
	.st3{fill:#CDD6E0;}
	.st4{fill:#ACB3BA;}
	.st5{fill:#989EA0;}
	.st6{fill:#4CC8EF;}
</style>
<path class="st0" d="M480.7,4.4H20.9C9.4,4.4,0,13.8,0,25.3v311.4c0,11.5,9.4,20.9,20.9,20.9h459.8c11.5,0,20.9-9.4,20.9-20.9V25.3
	C501.6,13.8,492.1,4.4,480.7,4.4z"/>
<rect x="31.3" y="35.7" class="st1" width="438.9" height="289.4"/>
<g>
	<path class="st1" d="M252.9,117.2v39.7c-1,0-1,0-2.1,0s-1,0-2.1,0v-39.7H252.9z"/>
	<path class="st1" d="M252.9,269.8v39.7h-4.2v-39.7c1,0,1,0,2.1,0S251.8,269.8,252.9,269.8z"/>
	<path class="st1" d="M319.7,146.5l-28.2,28.2c-1-1-2.1-2.1-3.1-3.1l28.2-28.2L319.7,146.5z"/>
	<path class="st1" d="M212.1,255.1l-28.2,28.2l-3.1-3.1L209,252C210,253.1,211.1,254.1,212.1,255.1z"/>
	<path class="st1" d="M346.9,211.3v4.2h-38.7c0-1,0-1,0-2.1c0-1,0-1,0-2.1H346.9L346.9,211.3z"/>
	<path class="st1" d="M194.4,213.3c0,1,0,1,0,2.1h-38.7v-4.2h38.7C194.4,211.3,194.4,212.3,194.4,213.3z"/>
	<path class="st1" d="M319.7,279.2l-3.1,3.1l-27.2-27.2c1-1,2.1-2.1,3.1-3.1L319.7,279.2z"/>
	<path class="st1" d="M212.1,171.6c-1,1-2.1,2.1-3.1,3.1l-28.2-28.2l3.1-3.1L212.1,171.6z"/>
	<path class="st1" d="M230.9,160.1c-1,0-2.1,1-4.2,2.1l-9.4-21.9l4.2-2.1L230.9,160.1z"/>
	<path class="st1" d="M283.2,287.5l-4.2,2.1l-9.4-21.9c1,0,2.1-1,4.2-2.1L283.2,287.5z"/>
	<path class="st1" d="M199.6,189.3c-1,1-1,2.1-2.1,4.2l-21.9-9.4l2.1-4.2L199.6,189.3z"/>
	<path class="st1" d="M326,242.6l-2.1,4.2l-21.9-9.4c1-1,1-2.1,2.1-4.2L326,242.6z"/>
	<path class="st1" d="M199.6,236.3l-21.9,9.4l-2.1-4.2l21.9-9.4C198.5,234.2,198.5,235.3,199.6,236.3z"/>
	<path class="st1" d="M326,184.1l-21.9,9.4c0-1-1-2.1-2.1-4.2l21.9-9.4L326,184.1z"/>
	<path class="st1" d="M230.9,266.6l-9.4,21.9l-4.2-2.1l9.4-21.9C228.8,265.6,229.9,265.6,230.9,266.6z"/>
	<path class="st1" d="M283.2,139.2l-8.4,21.9c-1-1-2.1-1-4.2-2.1l9.4-21.9L283.2,139.2z"/>
</g>
<polygon class="st0" points="325,199.8 344.8,270.8 362.6,253.1 379.3,270.8 395,255.1 378.3,237.4 395,219.6 "/>
<polygon class="st2" points="131.7,43 52.2,43 69,1.2 141.1,1.2 "/>
<polygon class="st3" points="211.1,43 131.7,43 141.1,1.2 214.2,1.2 "/>
<polygon class="st2" points="290.5,43 211.1,43 214.2,1.2 287.3,1.2 "/>
<polygon class="st3" points="369.9,43 290.5,43 287.3,1.2 360.5,1.2 "/>
<polygon class="st2" points="449.3,43 369.9,43 360.5,1.2 432.6,1.2 "/>
<g>
	<path class="st4" d="M131.7,60.8c0,21.9,17.8,39.7,39.7,39.7s39.7-17.8,39.7-39.7V43h-79.4V60.8L131.7,60.8z"/>
	<path class="st4" d="M290.5,43v17.8c0,21.9,17.8,39.7,39.7,39.7s39.7-17.8,39.7-39.7V43C369.9,43,290.5,43,290.5,43z"/>
</g>
<g>
	<path class="st5" d="M52.2,60.8c0,21.9,17.8,39.7,39.7,39.7s39.7-17.8,39.7-39.7V43H52.2V60.8z"/>
	<path class="st5" d="M211.1,60.8c0,21.9,17.8,39.7,39.7,39.7s39.7-17.8,39.7-39.7V43h-79.4L211.1,60.8L211.1,60.8z"/>
	<path class="st5" d="M369.9,43v17.8c0,21.9,17.8,39.7,39.7,39.7s39.7-17.8,39.7-39.7V43C449.3,43,369.9,43,369.9,43z"/>
</g>
<ellipse class="st6" cx="250.8" cy="213.3" rx="61.6" ry="62.7"/>
<g>
	<path class="st1" d="M240.3,232.2l-2.1-7.3h48.1v-36.6h-57.5l-3.1-13.6H209v6.3h12.5l14.6,57.5h52.2v-6.3H240.3z M280,193.5v24
		h-42.8l-6.3-24H280z"/>
	<ellipse class="st1" cx="249.7" cy="249.9" rx="7.3" ry="7.3"/>
	<ellipse class="st1" cx="276.9" cy="249.9" rx="7.3" ry="7.3"/>
</g>
</svg>
