<?xml version="1.0" encoding="utf-8"?>
<!-- Generator: Adobe Illustrator 21.1.0, SVG Export Plug-In . SVG Version: 6.00 Build 0)  -->
<svg version="1.1" id="Capa_1" xmlns="http://www.w3.org/2000/svg" xmlns:xlink="http://www.w3.org/1999/xlink" x="0px" y="0px"
	 viewBox="0 0 1000 1000" style="enable-background:new 0 0 1000 1000;" xml:space="preserve">
<style type="text/css">
	.st0{fill:#3F3F3F;}
</style>
<g>
	<path class="st0" d="M658.1,782.8c0,19.3-6.8,35.7-20.4,49.3c-13.6,13.6-30,20.4-49.3,20.4s-35.8-6.8-49.5-20.4
		c-13.8-13.6-20.6-30-20.6-49.3s6.9-35.8,20.6-49.5c13.8-13.8,30.3-20.6,49.5-20.6s35.7,6.9,49.3,20.6S658.1,763.6,658.1,782.8z
		 M339.6,782.8c0,19.3-6.9,35.7-20.6,49.3c-13.8,13.6-30.3,20.4-49.5,20.4s-35.7-6.8-49.3-20.4c-13.6-13.6-20.4-30-20.4-49.3
		s6.8-35.8,20.4-49.5c13.6-13.8,30-20.6,49.3-20.6s35.8,6.9,49.5,20.6C332.7,747.1,339.6,763.6,339.6,782.8z M10,147.5
		c16.1,17,31.8,31.8,47,44.4c15.2,12.6,32.3,24.2,51.4,34.9s38.4,19.6,57.8,26.8s42.9,13.6,70.6,19.3c27.7,5.7,56,10.2,85.1,13.4
		c29.1,3.2,64.5,5.9,106.3,7.9s84.9,3.4,129.3,4c44.4,0.7,97.2,1,158.4,1.1c39.4,0,74.1,0.7,104,2.1s55.6,3.8,77,7s39,7.2,52.7,11.7
		c13.8,4.5,23.8,10.1,30.2,16.8c6.4,6.7,9.8,14,10.2,21.9s-2.4,17-8.3,27.2c-5.9,10.2-13.9,21.1-24,32.6s-22.8,24.4-38,38.7
		c-15.3,14.3-31.7,29.1-49.3,44.4s-37.3,32.2-59.1,50.6c-52.4,44.5-93,79.5-121.6,105.1c8.2-14.4,19.1-29.9,32.6-46.4
		s26.8-31.4,40-44.9c13.2-13.4,26.6-27.4,40.2-41.9c13.6-14.5,25.4-27.5,35.3-38.9c9.9-11.4,17.6-22.8,23-34.2
		c5.4-11.4,7.3-21.3,5.6-29.8s-8.1-16.3-19.3-23.6c-11.2-7.3-27.7-13.1-49.5-17.4s-50.8-7.7-86.8-10s-79.1-3.1-129.3-2.1
		c-47.6,0.6-92.2-0.3-133.5-2.6c-41.4-2.3-77.7-5.6-108.9-9.8c-31.2-4.2-60.2-10.1-87-17.4s-49.4-14.7-67.8-21.9
		c-18.4-7.2-35.8-16.1-52.1-26.6s-29.3-19.9-38.9-28.3c-9.7-8.4-19.3-18.5-28.9-30.4s-16.8-21.8-21.5-29.6s-10.4-17.4-17-28.9
		S13.8,152.8,10,147.5L10,147.5z"/>
</g>
</svg>
