<?xml version="1.0" encoding="utf-8"?>
<!-- Generator: Adobe Illustrator 21.1.0, SVG Export Plug-In . SVG Version: 6.00 Build 0)  -->
<svg version="1.1" id="Layer_1" xmlns="http://www.w3.org/2000/svg" xmlns:xlink="http://www.w3.org/1999/xlink" x="0px" y="0px"
	 viewBox="0 0 512 512" style="enable-background:new 0 0 512 512;" xml:space="preserve">
<style type="text/css">
	.st0{fill:#3F3F3F;}
	.st1{fill:#4CC8EF;}
</style>
<g>
	<g>
		<path class="st0" d="M492.4,97h-88.2V8.1c0-4.5-3.6-8.1-8.1-8.1H353c-4.5,0-8.1,3.6-8.1,8.1V97h-69.1
			c12.1-12.5,22.7-25.2,31.7-38.1l5.5,16.4c1.4,4.2,6,6.5,10.2,5.1c4.2-1.4,6.5-6,5.1-10.2l-10.8-32.3c-0.1-0.3-0.3-0.7-0.4-1
			c0-0.1-0.1-0.2-0.1-0.2c-0.1-0.3-0.3-0.5-0.5-0.8c0,0,0-0.1-0.1-0.1c-0.2-0.3-0.4-0.6-0.7-0.8c0,0-0.1-0.1-0.1-0.1
			c-0.2-0.2-0.4-0.4-0.6-0.6c-0.1,0-0.1-0.1-0.2-0.1c-0.3-0.2-0.5-0.4-0.8-0.6c-0.1,0-0.1-0.1-0.2-0.1c-0.2-0.1-0.5-0.3-0.7-0.4
			c-0.1,0-0.2-0.1-0.2-0.1c-0.3-0.1-0.6-0.2-0.9-0.3c-0.1,0-0.1,0-0.2,0c-0.3-0.1-0.6-0.1-0.9-0.2c0,0-0.1,0-0.1,0c0,0-0.1,0-0.1,0
			c-0.3,0-0.7,0-1.1,0c0,0-0.1,0-0.1,0c-0.3,0-0.6,0-0.9,0.1c-0.1,0-0.2,0-0.3,0c-0.3,0.1-0.7,0.1-1,0.2c0,0,0,0,0,0c0,0,0,0,0,0
			L275,43.5c-4.2,1.4-6.5,6-5.1,10.2c1.1,3.4,4.3,5.5,7.7,5.5c0.8,0,1.7-0.1,2.6-0.4l9.9-3.3c-11,14.8-23.8,28.7-37.4,41.4h-233
			C8.8,97,0,105.8,0,116.6v20c0,10.8,8.8,19.6,19.6,19.6h12.7v234.8c0,13.2,10.7,23.9,23.9,23.9h159.3v80.8h-24.3
			c-4.5,0-8.1,3.6-8.1,8.1c0,4.5,3.6,8.1,8.1,8.1h129.3c4.5,0,8.1-3.6,8.1-8.1c0-4.5-3.6-8.1-8.1-8.1h-24.3V415h159.3
			c13.2,0,23.9-10.7,23.9-23.9V156.3h12.7c10.8,0,19.6-8.8,19.6-19.6v-20C512,105.8,503.2,97,492.4,97z M361.1,16.2H388v318h-26.9
			V16.2z M259.1,113.2h85.8v26.9h-16.2v-13.5c0-4.5-3.6-8.1-8.1-8.1h-43.1c-4.5,0-8.1,3.6-8.1,8.1v13.5h-42.9
			C238.3,131.3,249.1,122.3,259.1,113.2z M320.7,267.1c-4.5,0-8.1,3.6-8.1,8.1v59h-26.9V134.7h26.9v13.5c0,0,0,0,0,0c0,0,0,0,0,0
			v87.6c0,4.5,3.6,8.1,8.1,8.1c4.5,0,8.1-3.6,8.1-8.1v-79.5h16.2v177.9h-16.2v-59C328.8,270.7,325.1,267.1,320.7,267.1z M19.6,140.1
			c-1.9,0-3.5-1.6-3.5-3.5v-20c0-1.9,1.5-3.5,3.5-3.5h214.7c-11.8,9.8-23.7,18.8-35.4,26.9L19.6,140.1L19.6,140.1z M280.3,495.8
			h-48.5V415h48.5V495.8z M463.5,391.1c0,4.3-3.5,7.8-7.8,7.8H56.3c-4.3,0-7.8-3.5-7.8-7.8V156.3h126c-2,1.3-4,2.5-6,3.7
			c-47.4,29-87.6,45.2-88,45.4c-4.1,1.7-6.2,6.4-4.5,10.5c1.3,3.2,4.3,5.1,7.5,5.1c1,0,2-0.2,3-0.6c1.7-0.7,41.6-16.8,90.1-46.4
			c9.5-5.8,18.6-11.7,27.4-17.7h65.4v177.9h-16.2V191.3c0-4.5-3.6-8.1-8.1-8.1h-43.1c-4.5,0-8.1,3.6-8.1,8.1v142.8h-16.2v-88.9
			c0-4.5-3.6-8.1-8.1-8.1h-43.1c-4.5,0-8.1,3.6-8.1,8.1v88.9H94.3c-4.5,0-8.1,3.6-8.1,8.1c0,4.5,3.6,8.1,8.1,8.1h334.1
			c4.5,0,8.1-3.6,8.1-8.1c0-4.5-3.6-8.1-8.1-8.1h-24.3V156.3h59.3L463.5,391.1L463.5,391.1z M237.1,199.4v134.7h-26.9V199.4H237.1z
			 M161.7,253.3v80.8h-26.9v-80.8H161.7z M495.8,136.7c0,1.9-1.5,3.5-3.5,3.5h-88.2v-26.9h88.2c1.9,0,3.5,1.6,3.5,3.5V136.7z"/>
	</g>
</g>
<path class="st1" d="M361.3,334.1H344V5c0-2.8,2.3-5,5-5h12.3V334.1z"/>
<path class="st1" d="M404.7,334.1h-17.3V0h12.3c2.8,0,5,2.2,5,5V334.1z"/>
<path class="st1" d="M404.8,16.1H344V5c0-2.8,2.2-5,5-5h50.8c2.8,0,5,2.2,5,5V16.1z"/>
</svg>
