<?xml version="1.0" encoding="utf-8"?>
<!-- Generator: Adobe Illustrator 21.1.0, SVG Export Plug-In . SVG Version: 6.00 Build 0)  -->
<svg version="1.1" id="Layer_1" xmlns="http://www.w3.org/2000/svg" xmlns:xlink="http://www.w3.org/1999/xlink" x="0px" y="0px"
	 viewBox="0 0 510 455" style="enable-background:new 0 0 510 455;" xml:space="preserve">
<style type="text/css">
	.st0{display:none;}
	.st1{fill:#3F3F3F;}
	.st2{fill:#B0BEC5;}
	.st3{fill:#4CC8EF;}
</style>
<g>
	<path id="XMLID_5_" class="st0" d="M55.1,390.1V156.5h399.8v233.6h26.9V151.9c0-12.3-10-22.3-22.3-22.3h-409
		c-12.3,0-22.3,10-22.3,22.3v238.2L55.1,390.1L55.1,390.1z"/>
	<path class="st1" d="M5,403.5v22c0,13.8,11.2,24.9,24.9,24.9h450.2c13.8,0,24.9-11.2,24.9-24.9v-22H5z M71.6,436.8
		c-5.4,0-9.9-4.4-9.9-9.9c0-5.4,4.4-9.9,9.9-9.9c5.4,0,9.9,4.4,9.9,9.9C81.4,432.4,77,436.8,71.6,436.8z M98.1,436.8
		c-5.4,0-9.9-4.4-9.9-9.9c0-5.4,4.4-9.9,9.9-9.9c5.4,0,9.9,4.4,9.9,9.9S103.6,436.8,98.1,436.8z M124.7,436.8
		c-5.4,0-9.9-4.4-9.9-9.9c0-5.4,4.4-9.9,9.9-9.9c5.4,0,9.9,4.4,9.9,9.9C134.5,432.4,130.1,436.8,124.7,436.8z"/>
</g>
<path class="st1" d="M48,389.7H34.7c-4.1,0-7.3-3.3-7.3-7.3V137c0-4.1,3.3-7.3,7.3-7.3H48c4.1,0,7.3,3.3,7.3,7.3v245.3
	C55.3,386.4,52.1,389.7,48,389.7z"/>
<path class="st1" d="M475,389.7h-13.3c-4.1,0-7.3-3.3-7.3-7.3V137c0-4.1,3.3-7.3,7.3-7.3H475c4.1,0,7.3,3.3,7.3,7.3v245.3
	C482.3,386.4,479.1,389.7,475,389.7z"/>
<path class="st1" d="M414,153.4v-20.5c0-2.1,1.7-3.8,3.8-3.8h60.8c2.1,0,3.8,1.7,3.8,3.8v20.5c0,2.1-1.7,3.8-3.8,3.8h-60.8
	C415.7,157.2,414,155.5,414,153.4z"/>
<path class="st1" d="M27.4,153.1v-20.5c0-2.1,1.7-3.8,3.8-3.8H92c2.1,0,3.8,1.7,3.8,3.8v20.5c0,2.1-1.7,3.8-3.8,3.8H31.2
	C29.1,156.8,27.4,155.2,27.4,153.1z"/>
<path class="st2" d="M389.7,4.3H119.3c-6.8,0-12.3,5.5-12.3,12.3v344.2c0,6.8,5.5,12.3,12.3,12.3h270.4c6.8,0,12.3-5.5,12.3-12.3
	V16.5C402,9.8,396.5,4.3,389.7,4.3z M377.4,348.4H131.6V28.8h245.8L377.4,348.4L377.4,348.4z"/>
<rect x="183.8" y="107.5" class="st3" width="142.5" height="17.5"/>
<rect x="183.8" y="143.1" class="st2" width="142.5" height="17.5"/>
<rect x="183.3" y="178.8" class="st2" width="142.5" height="17.5"/>
<rect x="183.3" y="214.9" class="st2" width="142.5" height="17.5"/>
<rect x="183.3" y="251.2" class="st2" width="142.5" height="17.5"/>
<rect x="183.8" y="287.5" class="st2" width="142.5" height="17.5"/>
<rect x="183.8" y="71.9" class="st2" width="142.5" height="17.5"/>
</svg>
