<?xml version="1.0" encoding="utf-8"?>
<!-- Generator: Adobe Illustrator 21.1.0, SVG Export Plug-In . SVG Version: 6.00 Build 0)  -->
<svg version="1.1" id="Layer_1" xmlns="http://www.w3.org/2000/svg" xmlns:xlink="http://www.w3.org/1999/xlink" x="0px" y="0px"
	 viewBox="0 0 508.1 508.1" style="enable-background:new 0 0 508.1 508.1;" xml:space="preserve">
<style type="text/css">
	.st0{fill:#FFFFFF;}
	.st1{fill:#B0BEC5;}
	.st2{fill:#3F3F3F;}
	.st3{fill:#4CC8EF;}
</style>
<path class="st0" d="M479.8,42.3c0-7.8-6.3-14.1-14.1-14.1H42.3c-7.8,0-14.1,6.3-14.1,14.1v273.7h451.6L479.8,42.3L479.8,42.3z"/>
<path class="st1" d="M28.2,392.6c0,7.8,6.3,14.1,14.1,14.1h423.3c7.8,0,14.1-6.3,14.1-14.1v-48.4H28.2V392.6z"/>
<g>
	<path class="st2" d="M465.7,0.1H42.3C19,0.1,0,19,0,42.3v350.3C0,416,19,435,42.3,435h154c-5,25.5-27.4,44.8-54.3,44.8h-33.3
		c-7.8,0-14.1,6.3-14.1,14.1s6.3,14.1,14.1,14.1h290.7c7.8,0,14.1-6.3,14.1-14.1s-6.3-14.1-14.1-14.1h-33.3
		c-26.9,0-49.4-19.3-54.3-44.8h154c23.3,0,42.3-19,42.3-42.3V42.3C508,19,489,0.1,465.7,0.1z M204.4,479.9
		c10.9-12.3,18.2-27.7,20.4-44.8h58.4c2.2,17.1,9.5,32.5,20.4,44.8H204.4z M479.8,392.6c0,7.8-6.3,14.1-14.1,14.1H42.3
		c-7.8,0-14.1-6.3-14.1-14.1v-48.4h451.6L479.8,392.6L479.8,392.6z M479.8,316.1H28.2V42.3c0-7.8,6.3-14.1,14.1-14.1h423.3
		c7.8,0,14.1,6.3,14.1,14.1v273.8H479.8z"/>
	<path class="st2" d="M238.1,389h31.8c7.8,0,14.1-6.3,14.1-14.1s-6.3-14.1-14.1-14.1h-31.8c-7.8,0-14.1,6.3-14.1,14.1
		S230.3,389,238.1,389z"/>
	<path class="st3" d="M128,107.3c14.4,0,26.1,11.7,26.1,26.1c0,7.8,6.3,14.1,14.1,14.1s14.1-6.3,14.1-14.1
		c0-25.1-17.1-46.2-40.2-52.4V68.7c0-7.8-6.3-14.1-14.1-14.1s-14.1,6.3-14.1,14.1V81c-23.1,6.2-40.2,27.3-40.2,52.4
		c0,30,26.4,54.2,56.4,54.2c-0.4,0.1,0,0,0.1,0c13.4,1.1,23.9,12.4,23.9,26c0,14.4-11.7,26.1-26.1,26.1s-26.1-11.7-26.1-26.1
		c0-7.8-6.3-14.1-14.1-14.1s-14.1,6.3-14.1,14.1c0,25.1,17.1,46.2,40.2,52.4v12.2c0,7.8,6.3,14.1,14.1,14.1s14.1-6.3,14.1-14.1
		v-12.1c23.1-6.2,40.2-27.3,40.2-52.4c0-30-24.4-54.3-54.4-54.3c0.4-0.1,0,0-0.1,0c-13.4-1.1-26-12.2-26-25.9
		C101.9,118.9,113.6,107.3,128,107.3z"/>
</g>
<path class="st2" d="M444,199.1l-113.6-46.3c-5.3-2.1-11.3-0.9-15.3,3.1s-5.2,10-3.1,15.3l46.3,113.6c2.2,5.3,7.4,8.8,13.1,8.8
	c4.7,0,11.4-2.9,13.5-10l8.9-29.1l16.2,16.2c5.5,5.9,14.6,5.2,20,0c5.5-5.5,5.5-14.4,0-20l-16.2-16.2l29.1-8.9
	c5.7-1.7,9.7-6.9,10-12.9C453.1,206.8,449.6,201.3,444,199.1z M373.6,223.8l-4.2,13.6l-18.7-45.9l45.9,18.7l-13.6,4.2
	C378.5,215.8,375,219.3,373.6,223.8z"/>
</svg>
