<?xml version="1.0" encoding="utf-8"?>
<!-- Generator: Adobe Illustrator 21.1.0, SVG Export Plug-In . SVG Version: 6.00 Build 0)  -->
<svg version="1.1" id="Calque_1" xmlns="http://www.w3.org/2000/svg" xmlns:xlink="http://www.w3.org/1999/xlink" x="0px" y="0px"
	 viewBox="0 0 507 215" style="enable-background:new 0 0 507 215;" xml:space="preserve">
<style type="text/css">
	.st0{fill:#3F3F3F;}
	.st1{fill:#B0BEC5;}
</style>
<g id="XMLID_141_">
	<g id="XMLID_142_">
		<path id="XMLID_160_" class="st0" d="M106,109.6c-0.1-0.4-0.1-1-0.1-1.8c0-5.1,1.7-9.1,5.1-11.9c3.4-2.9,7.1-4.3,11.2-4.3
			c5.4,0,9.2,2,11.3,6.1L106,109.6z M145.4,102.4c-0.1-6-2.3-10.9-6.8-14.7c-4.5-3.8-10.1-5.6-16.9-5.6c-4.3,0-8.4,0.9-12.2,2.8
			c-3.9,1.9-7.1,4.8-9.7,8.9c-2.6,4-3.9,8.6-3.9,13.9c0,7.6,2.5,13.8,7.5,18.4c5,4.7,11.1,7,18.1,7c8,0,15-3,20.9-9.1l-6.1-6.8
			c-3.6,4.3-8.2,6.5-13.7,6.5c-5.6,0-10-2-13.2-6L145.4,102.4L145.4,102.4z"/>
		<path id="XMLID_138_" class="st0" d="M83.9,85.1c-2.9,2-5.2,4.5-6.8,7.6v-10H66.6v49.6H77v-21.2c0-5.6,1.3-10.2,3.9-13.5
			c2.6-3.4,6.5-5,11.6-5h0.6L93,82.1C89.9,82.1,86.8,83.1,83.9,85.1"/>
		<path id="XMLID_137_" class="st0" d="M182.7,107.1c-1.7-1.1-3.2-2-4.7-2.6s-3-1.2-4.5-1.7c-1.6-0.5-3.3-1-5.4-1.5
			c-2-0.5-3.6-1-4.7-1.6c-1.6-0.7-2.4-1.9-2.4-3.5c0-1.8,0.8-3.2,2.3-4.1c1.6-0.9,3.6-1.4,6.1-1.4c4.7,0,9.1,1.3,13.1,4l3.9-7.7
			c-5.1-3.4-10.5-5-16.2-5s-10.4,1.4-13.9,4.1c-3.6,2.8-5.4,6.4-5.4,11c0,6.5,5.2,11.2,15.5,14c0.2,0.1,0.6,0.2,1.1,0.4
			c6.6,2,9.9,4.2,9.9,6.7c0,1.7-0.7,3.1-2,4.1c-1.4,1.1-3.2,1.6-5.6,1.6c-5.4,0-11-2.2-16.8-6.5l-5,8.1c3,2.4,6.4,4.2,10.3,5.5
			c3.9,1.3,7.6,2,11.2,2c5.3,0,9.7-1.4,13.1-4.2c3.4-2.8,5.1-6.6,5.1-11.3C187.8,112.8,186.1,109.4,182.7,107.1"/>
		<path id="XMLID_155_" class="st0" d="M44.7,99.8c-2.2,2.3-6.4,3.5-12.4,3.5H19.5V77.2h11.2c6,0,10.3,0.9,13.1,2.8s4.2,5,4.2,9.5
			C48,94.1,46.9,97.5,44.7,99.8 M52.5,72.9c-4.5-3.8-11.7-5.7-21.6-5.7H8.5v65.1h11v-19.1h11.6c9.6,0,16.7-1.8,21.3-5.5
			s6.9-9.4,6.9-17.3C59.3,82.6,57,76.7,52.5,72.9"/>
		<path id="XMLID_134_" class="st0" d="M212.2,124.1c-2.2,0-4-0.7-5.2-2.1s-1.9-3.3-1.9-5.6V91.2h13v-8.4h-13V67.2h-10.4V116
			c0,5.2,1.6,9.4,4.7,12.4c3.1,3.1,6.9,4.6,11.4,4.6c4.4,0,8.5-1.6,12.2-4.9l-4.3-7.4C216.6,123,214.4,124.1,212.2,124.1"/>
		<path id="XMLID_151_" class="st0" d="M259.9,119.4c-2.9,3-6.3,4.5-10.4,4.5c-4.1,0-7.7-1.5-10.7-4.5s-4.6-6.8-4.6-11.6
			c0-4.8,1.5-8.7,4.5-11.9c3-3.2,6.5-4.8,10.7-4.8s7.7,1.6,10.5,4.8c2.9,3.2,4.3,7.1,4.3,11.8C264.2,112.5,262.8,116.4,259.9,119.4
			 M264,91.4c-4.2-6.2-9.6-9.3-16.1-9.3s-12.2,2.3-17,6.9s-7.2,10.7-7.2,18.4c0,7.7,2.3,13.9,7,18.6s10.1,7.1,16.4,7.1
			c3.1,0,6.2-0.8,9.3-2.3c3.1-1.5,5.6-3.7,7.6-6.6v8.1h10.4V82.7H264V91.4z"/>
		<path id="XMLID_148_" class="st1" d="M429.1,119.3c-3,3-6.7,4.5-11.2,4.5s-8.3-1.5-11.2-4.5c-3-3-4.4-6.9-4.4-11.7
			s1.5-8.7,4.4-11.7c2.9-3,6.7-4.5,11.2-4.5s8.3,1.5,11.2,4.5s4.4,6.9,4.4,11.7S432.1,116.3,429.1,119.3 M417.9,82.1
			c-7.5,0-13.7,2.5-18.6,7.4c-5,4.9-7.5,11-7.5,18.1s2.5,13.2,7.5,18.1s11.2,7.4,18.6,7.4c7.4,0,13.7-2.5,18.6-7.4
			c5-4.9,7.5-11,7.5-18.1s-2.5-13.2-7.5-18.1C431.5,84.5,425.3,82.1,417.9,82.1"/>
		<path id="XMLID_145_" class="st1" d="M485.8,119.3c-3,3-6.6,4.5-10.7,4.5c-4.1,0-7.6-1.5-10.4-4.5c-2.9-3-4.3-6.9-4.3-11.6
			s1.4-8.6,4.3-11.8c2.9-3.1,6.4-4.7,10.5-4.7c4.2,0,7.7,1.6,10.7,4.7s4.5,7.1,4.5,11.8C490.3,112.5,488.8,116.3,485.8,119.3
			 M493.7,89c-4.7-4.6-10.4-6.9-17-6.9c-6.6,0-12,3.1-16.1,9.4v-8.7h-10.4v67.6h10.4v-25.5c5,5.5,10.6,8.2,16.8,8.2
			c6.2,0,11.7-2.4,16.4-7.2c4.7-4.8,7-11,7-18.6S498.4,93.5,493.7,89"/>
		<path id="XMLID_127_" class="st1" d="M367.5,82.1c-3.5,0-6.7,0.9-9.7,2.6s-5.3,4.1-6.8,7.2V63.4h-10.4v69H351v-26.8
			c0-4.6,1.3-8.1,4-10.5s5.8-3.6,9.4-3.6c7.6,0,11.4,4.6,11.4,13.7v27.2h10.4V102c0-6.5-1.7-11.4-5.2-14.8
			C377.6,83.8,373.1,82.1,367.5,82.1"/>
		<path id="XMLID_126_" class="st1" d="M328.1,101.1c-3.4-2.9-8.4-5.2-15.1-6.8c-6.7-1.6-11-3.1-13.1-4.5c-2-1.4-3.1-3.4-3.1-6.1
			c0-2.6,1-4.6,3.1-5.9c2-1.3,4.7-2,7.9-2s6.4,0.6,9.7,1.7c3.3,1.1,5.9,2.5,7.8,4.3l5.9-8.3c-3-2.5-6.5-4.4-10.6-5.8
			c-4.1-1.4-8.2-2-12.4-2c-6.5,0-11.9,1.6-16.3,4.9c-4.4,3.3-6.6,7.9-6.6,13.9s1.9,10.5,5.8,13.4c1.9,1.6,4.1,2.8,6.6,3.8
			s6.1,2,10.9,3.2c4.8,1.1,8.1,2.4,10.1,3.8s2.9,3.4,2.9,5.9s-1,4.5-3.1,6.1c-2.1,1.5-4.9,2.3-8.4,2.3c-7.1,0-13.9-2.9-20.5-8.6
			l-6.9,8.3c7.9,7,16.9,10.5,27.1,10.5c7,0,12.6-1.8,16.9-5.3s6.4-8.1,6.4-13.8S331.5,104,328.1,101.1"/>
	</g>
</g>
</svg>
