<?xml version="1.0" encoding="utf-8"?>
<!-- Generator: Adobe Illustrator 21.1.0, SVG Export Plug-In . SVG Version: 6.00 Build 0)  -->
<svg version="1.1" id="Layer_1" xmlns="http://www.w3.org/2000/svg" xmlns:xlink="http://www.w3.org/1999/xlink" x="0px" y="0px"
	 viewBox="0 0 512 512" style="enable-background:new 0 0 512 512;" xml:space="preserve">
<style type="text/css">
	.st0{fill:#B0BEC5;}
	.st1{fill:#4CC8EF;}
	.st2{fill:#3F3F3F;}
	.st3{fill:#FFFFFF;stroke:#000000;stroke-miterlimit:10;}
</style>
<g>
	<g>
		<g>
			<path class="st0" d="M187.7,341.3c-13.1,0-24.8,7.6-30.4,18.9c-4-1.2-8.1-1.9-12.2-1.9c-23.5,0-42.7,19.1-42.7,42.7
				c0,4.7,3.8,8.5,8.5,8.5s8.5-3.8,8.5-8.5c0-14.1,11.5-25.6,25.6-25.6c4.5,0,8.9,1.3,13.1,3.7c2.5,1.5,5.5,1.6,8.1,0.4
				c2.6-1.2,4.4-3.7,4.8-6.5c1.2-8.4,8.4-14.7,16.8-14.7c8.8,0,16.1,6.7,16.9,15.5c0.3,3.6,2.9,6.6,6.4,7.5c3.5,0.9,7.2-0.6,9.2-3.6
				c7.9-12.2,21.3-19.4,35.7-19.4c14.5,0,27.8,7.3,35.7,19.4c2,3.1,5.7,4.5,9.2,3.6c3.5-0.9,6.1-3.9,6.4-7.5
				c0.8-8.8,8.1-15.5,16.9-15.5c8.4,0,15.6,6.3,16.8,14.7c0.4,2.8,2.2,5.3,4.8,6.5c2.6,1.2,5.6,1.1,8.1-0.4
				c4.1-2.5,8.5-3.7,13.1-3.7c14.1,0,25.6,11.5,25.6,25.6c0,4.7,3.8,8.5,8.5,8.5s8.5-3.8,8.5-8.5c0-23.5-19.1-42.7-42.7-42.7
				c-4.1,0-8.2,0.6-12.2,1.9c-5.6-11.3-17.3-18.9-30.4-18.9c-11.9,0-22.3,6-28.4,15.3c-10.8-9.7-24.9-15.3-39.9-15.3
				s-29,5.5-39.9,15.3C210,347.2,199.6,341.3,187.7,341.3z"/>
			<path class="st1" d="M247.5,247.4v68.3c0,4.7,3.8,8.5,8.5,8.5c4.7,0,8.5-3.8,8.5-8.5v-68.3c0-4.7-3.8-8.5-8.5-8.5
				S247.5,242.7,247.5,247.4z"/>
			<path class="st2" d="M25.6,443.7c4.7,0,8.5-3.8,8.5-8.5v-256c0-12.4,13.2-25.6,25.6-25.6h102.4c4.7,0,8.5-3.8,8.5-8.5
				s-3.8-8.5-8.5-8.5H59.7c-21.9,0-42.7,20.7-42.7,42.7v256C17.1,439.8,20.9,443.7,25.6,443.7z"/>
			<path class="st2" d="M503.5,426.6h-8.5V179.1c0-21.9-20.7-42.7-42.7-42.7H349.9c-4.7,0-8.5,3.8-8.5,8.5s3.8,8.5,8.5,8.5h102.4
				c12.4,0,25.6,13.2,25.6,25.6v256c0,4.7,3.8,8.5,8.5,8.5h8.5v25.6c0,12.4-13.2,25.6-25.6,25.6H42.7c-9.6,0-19.6-7.8-23.7-17.1
				h450.3c4.7,0,8.5-3.8,8.5-8.5s-3.8-8.5-8.5-8.5H8.5c-4.7,0-8.5,3.8-8.5,8.5c0,21.9,20.7,42.7,42.7,42.7h426.7
				c21.9,0,42.7-20.7,42.7-42.7v-34.1C512,430.4,508.2,426.6,503.5,426.6z"/>
			<path class="st2" d="M153.6,298.6c0,4.7,3.8,8.5,8.5,8.5h25.6v8.5c0,4.7,3.8,8.5,8.5,8.5s8.5-3.8,8.5-8.5v-8.5h17.1
				c4.7,0,8.5-3.8,8.5-8.5s-3.8-8.5-8.5-8.5h-51.2v-8.5c0-25.1,8.6-35.7,17.7-46.8c8.1-9.9,16.4-20.1,16.4-38.5v-85.3
				c0-29.8,14-44.6,15.1-45.7L256,21.8l36.6,43.9c0.6,0.6,14.6,15.4,14.6,45.2v85.3c0,18.4,8.3,28.6,16.4,38.5
				c9.1,11.2,17.7,21.7,17.7,46.8v8.5h-51.2c-4.7,0-8.5,3.8-8.5,8.5s3.8,8.5,8.5,8.5h17.1v8.5c0,4.7,3.8,8.5,8.5,8.5
				s8.5-3.8,8.5-8.5v-8.5h25.6c4.7,0,8.5-3.8,8.5-8.5v-17.1c0-31.2-12-45.9-21.6-57.6c-7.3-8.9-12.6-15.4-12.6-27.7v-85.3
				c0-37.2-18.8-56.4-19-56.7L262.6,3c-3.2-3.9-9.9-3.9-13.1,0l-42.1,50.6c-0.8,0.8-19.6,20-19.6,57.2v85.3
				c0,12.3-5.3,18.8-12.6,27.7c-9.6,11.8-21.6,26.4-21.6,57.6L153.6,298.6L153.6,298.6z"/>
			<path class="st2" d="M170.7,179.1c0-4.7-3.8-8.5-8.5-8.5H85.3c-11.7,0-34.1,10.8-34.1,25.6v238.9c0,4.7,3.8,8.5,8.5,8.5h392.5
				c4.7,0,8.5-3.8,8.5-8.5V196.2c0-13.2-12.4-25.6-25.6-25.6h-85.3c-4.7,0-8.5,3.8-8.5,8.5s3.8,8.5,8.5,8.5h85.3
				c3.8,0,8.5,4.7,8.5,8.5v230.4H68.3l-0.1-230c1.1-3,11.6-9,17.1-9h76.8C166.8,187.7,170.7,183.8,170.7,179.1z"/>
		</g>
	</g>
</g>
<path class="st3" d="M274,157"/>
<path class="st1" d="M260,135c-10.6-4.3-13.7-6.8-13.7-11.5c0-3.7,2.8-8.1,10.7-8.1c7,0,12.4,2.8,12.4,2.8c0.6,0.3,1.2,0.5,1.8,0.5
	c1.5,0,2.9-0.9,3.5-2.4l1.9-4.9c0.7-1.8-0.3-3.4-1.6-3.9c-4.3-1.9-12.8-3.3-12.8-3.3c-0.1,0-0.6-0.1-0.6-0.7l0-7.1
	c0-2.2-1.8-3.9-4-3.9h-3.5c-2.2,0-4,1.8-4,3.9l0,7.5c0,0.6-0.6,0.8-0.9,0.9c-10.7,2.5-17.3,10.3-17.3,20.2c0,12.3,10.1,17.8,21.1,22
	c8.8,3.4,12.3,6.9,12.3,12c0,5.6-5.1,9.4-12.3,9.4c-6.2,0-14.6-3.9-14.6-4c-0.5-0.3-1.1-0.4-1.7-0.4c-1.6,0-3,1-3.5,2.5l-1.8,5
	c-0.7,1.9,0.4,3.4,1.6,4c5.1,2.7,15.1,4.2,15.5,4.3c0.1,0,0.7,0.2,0.7,0.8v7.5c0,2.2,1.8,3.9,4,3.9h3.6c2.2,0,4-1.8,4-3.9v-7.9
	c0-0.7,0.5-0.8,0.7-0.8c11.4-2.5,18.3-10.9,18.3-21.3C279.9,147.4,273.9,140.5,260,135z"/>
</svg>
