<?xml version="1.0" encoding="utf-8"?>
<!-- Generator: Adobe Illustrator 21.0.2, SVG Export Plug-In . SVG Version: 6.00 Build 0)  -->
<svg version="1.1" id="Capa_1" xmlns="http://www.w3.org/2000/svg" xmlns:xlink="http://www.w3.org/1999/xlink" x="0px" y="0px"
	 viewBox="0 0 500 330" style="enable-background:new 0 0 500 330;" xml:space="preserve">
<style type="text/css">
	.st0{fill:#3F3F3F;}
	.st1{fill:#4CC8EF;}
	.st2{fill:#FFFFFF;}
</style>
<path class="st0" d="M415.9,207.6c-17.3-11.4-40.9-12.7-59.8-3.1c-12,6-25.8,20.9-29.2,31.3c-0.6,2-1.4,4-1.8,4.4
	c-0.3,0.3-17.7-6.7-38.6-15.6l-38-16.3l0.3-13.9c0.5-23.3-4.5-40.6-17.1-59.2c-1.6-2.4-2.7-4.5-2.5-4.6c0.1-0.1,7.7-5.9,16.8-12.7
	l16.1-12.2c-1.1-2-1.9-4.2-3.4-6.3c-1.9-2.7-3.8-5.4-4.1-8.4c0,0,0,0,0,0c-0.3,2-3.5,4.5-17.5,15.2L219,120.1l-6-5
	c-12.2-10.2-28.1-17.7-43.8-20.7c-9.8-1.9-28.4-1.8-37.9,0.2c-30.9,6.3-56.1,26-69.7,54.5c-7.4,15.2-9,22.5-9,41.9
	c-0.1,19.7,1.6,27.7,9.4,43.5c21.8,44.7,73.5,66.2,120.5,50.2c25.8-8.8,47.4-28.7,58.5-54.1c2.9-6.6,3.6-7.5,5.4-7
	c1.1,0.4,18.7,7.8,39.1,16.5l37,15.9l0.6,7.8c1.1,13.9,5.9,24.7,15.8,35.4c8.7,9.5,20.7,16.4,32.6,18.8c12,2.4,27,0.3,38.2-5.3
	C451.9,291.4,455.3,233.7,415.9,207.6z M207,239.1l-3.3,1.4c-5.7,2.3-22.5,5.4-36.1,6.5c-14.4,1.1-21.4,1.1-36.4-0.1
	c-11.3-1-28.6-4.2-33.9-6.4l-3.3-1.4V232c0-6.4,0.3-7.3,2.8-9.7c1.5-1.4,8.8-5.5,16.2-9c14.8-7.1,23-13.1,23-16.8
	c0-2.8-3.4-11-4.9-12c-1.9-1.1-5.1-8.1-5.1-11.2c0-1.5,0.3-7.1,0.7-12.3c0.9-11.1,3.7-17.1,10-21.2c8.5-5.6,13.4-6,24.8-2
	c9.8,3.4,11,5.3,12,18c0.3,4.8,1,10.4,1.4,12.5c1.2,4.9-0.3,10.2-3.9,14.8c-3.3,4.2-6,10.2-6,13.4c0,3.7,8.3,9.7,23.2,16.8
	c17.8,8.4,18.8,9.5,18.8,18.7V239.1z M416.5,287.5l-7,1.8c-4.9,1.3-11.8,2-23,2.2c-15.9,0.4-23.9-0.3-32.5-2.8
	c-4.4-1.3-4.5-1.3-4.8-5.9c-0.3-5.3-0.4-5.2,12.3-10.9c7.1-3.3,13.5-8.3,13.5-10.8c0-0.9-1.4-3.9-3.1-6.6c-2.8-4.3-3.1-5.8-3-11.4
	c0.2-7.8,2.3-12.7,7-15.8c3.9-2.6,7.9-2.9,13.6-0.9c5.2,1.8,6.2,3.6,7.4,13c1,8.5,0.7,10.2-3.3,16.1c-1.4,2.1-2.6,4.5-2.6,5.5
	c0,2.8,4.6,6.3,15.3,11.5l10.2,5V287.5z"/>
<g>
	<circle class="st1" cx="300.7" cy="78.9" r="49.3"/>
</g>
<g>
	<path class="st2" d="M327.9,99.3l-5.7,1.5c-4,1.1-9.6,1.6-18.6,1.8c-12.9,0.3-19.3-0.2-26.3-2.3c-3.6-1.1-3.6-1.1-3.9-4.8
		c-0.2-4.3-0.3-4.2,10-8.8c5.7-2.7,10.9-6.7,10.9-8.7c0-0.7-1.1-3.2-2.5-5.3c-2.3-3.5-2.5-4.7-2.4-9.2c0.2-6.3,1.9-10.3,5.7-12.8
		c3.2-2.1,6.4-2.3,11-0.7c4.2,1.5,5,2.9,6,10.5c0.8,6.9,0.6,8.3-2.7,13c-1.1,1.7-2.1,3.6-2.1,4.5c0,2.3,3.7,5.1,12.4,9.3l8.3,4V99.3
		z"/>
</g>
</svg>
