<?xml version="1.0" encoding="utf-8"?>
<!-- Generator: Adobe Illustrator 21.0.2, SVG Export Plug-In . SVG Version: 6.00 Build 0)  -->
<svg version="1.1" id="Layer_1" xmlns="http://www.w3.org/2000/svg" xmlns:xlink="http://www.w3.org/1999/xlink" x="0px" y="0px"
	 viewBox="0 0 128 128" style="enable-background:new 0 0 128 128;" xml:space="preserve">
<style type="text/css">
	.st0{fill:#B0BEC5;}
	.st1{fill:#3F3F3F;}
	.st2{fill:#4CC8EF;}
</style>
<g>
	<g>
		<path class="st0" d="M120,0H24c-4.4,0-8,3.6-8,8v22.2c2.4-2.1,5.1-3.7,8-4.8V8h96v112H24v-17.5c-2.9-1-5.6-2.6-8-4.8V120
			c0,4.4,3.6,8,8,8h96c4.4,0,8-3.6,8-8V8C128,3.6,124.4,0,120,0z"/>
	</g>
</g>
<path class="st1" d="M32,40c2,0,4.1,0.8,5.7,2.3c3.1,3.1,3.1,8.2,0,11.3l-2.3,2.3h28.7c4.4,0,8,3.6,8,8s-3.6,8-8,8H35.4l2.3,2.3
	c3.1,3.1,3.1,8.2,0,11.3c-1.6,1.6-3.6,2.3-5.7,2.3s-4.1-0.8-5.7-2.3l-16-16c-3.1-3.1-3.1-8.2,0-11.3l16-16C27.9,40.8,30,40,32,40
	 M32,32c-4.3,0-8.3,1.7-11.3,4.7l-16,16c-3,3-4.7,7-4.7,11.3s1.7,8.3,4.7,11.3l16,16c3,3,7,4.7,11.3,4.7s8.3-1.7,11.3-4.7
	C46.4,88.2,48,84.1,48,80h16c8.8,0,16-7.2,16-16s-7.2-16-16-16H48c0-4.1-1.6-8.2-4.7-11.3C40.3,33.7,36.3,32,32,32L32,32z"/>
<path class="st2" d="M102.8,23.8v80h-8v-80H102.8 M110.8,15.8h-24v96h24V15.8L110.8,15.8z"/>
</svg>
