<?xml version="1.0" encoding="utf-8"?>
<!-- Generator: Adobe Illustrator 21.1.0, SVG Export Plug-In . SVG Version: 6.00 Build 0)  -->
<svg version="1.1" id="Capa_1" xmlns="http://www.w3.org/2000/svg" xmlns:xlink="http://www.w3.org/1999/xlink" x="0px" y="0px"
	 viewBox="0 0 512 512" style="enable-background:new 0 0 512 512;" xml:space="preserve">
<style type="text/css">
	.st0{fill:#3F3F3F;}
	.st1{fill:#B0BEC5;}
	.st2{fill:#4CC8EF;}
</style>
<g>
	<g>
		<path class="st0" d="M448.9,121c8.4-7.3,9.2-20.1,1.8-28.4c-3.6-4.1-7.3-8.1-11.2-11.9c0,0,0,0,0,0c0,0,0,0,0,0c0,0,0,0,0,0v0
			C392.6,33.7,330.3,7.9,264,7.9c-59.5,0-115.8,20.9-160.6,59.1L69.3,32.9c-5.1-5.1-12.5-7.1-19.4-5.2c-7,1.9-12.4,7.3-14.2,14.2
			L0.7,172.3c-1.9,6.9,0.1,14.4,5.2,19.4c3.8,3.8,9,5.9,14.2,5.9c1.7,0,3.5-0.2,5.2-0.7L155.7,162c6.9-1.9,12.4-7.3,14.2-14.2
			c1.9-6.9-0.1-14.4-5.2-19.4l-32.8-32.8C169,64.9,215.2,48.2,264,48.2c55.5,0,107.8,21.6,147,60.9c0,0,0,0,0,0c0,0,0,0,0,0
			c3.3,3.3,6.4,6.6,9.4,10.1c4,4.5,9.5,6.8,15.1,6.8C440.3,126,445.1,124.3,448.9,121z"/>
		<path class="st1" d="M208.7,456.6c-9-2.5-17.9-5.6-26.4-9.2c-10.2-4.3-22.1,0.4-26.4,10.6c-4.4,10.2,0.4,22.1,10.6,26.4
			c10.2,4.4,20.8,8.1,31.5,11c1.8,0.5,3.6,0.7,5.3,0.7c8.8,0,16.9-5.9,19.4-14.8C225.7,470.6,219.4,459.6,208.7,456.6z"/>
		<path class="st1" d="M301.2,460.7c-9.2,1.6-18.5,2.7-27.8,3.1c-11.1,0.5-19.7,9.9-19.2,21c0.5,10.8,9.4,19.2,20.1,19.2
			c0.3,0,0.6,0,0.9,0c11.1-0.5,22.3-1.8,33.2-3.7c10.9-2,18.2-12.5,16.2-23.4C322.7,466,312.1,458.7,301.2,460.7z"/>
		<path class="st1" d="M455.2,174.2c3.7,8.5,6.8,17.4,9.3,26.4c2.5,8.9,10.6,14.8,19.4,14.8c1.8,0,3.6-0.2,5.4-0.7
			c10.7-3,17-14,14.1-24.8c-3-10.7-6.7-21.3-11-31.5c-4.4-10.2-16.2-15-26.4-10.6C455.6,152.1,450.9,164,455.2,174.2z"/>
		<path class="st1" d="M386.3,424.3c-7.5,5.5-15.5,10.5-23.7,14.9c-9.8,5.3-13.4,17.5-8.2,27.3c3.6,6.7,10.6,10.6,17.7,10.6
			c3.2,0,6.5-0.8,9.5-2.4c9.7-5.3,19.3-11.3,28.3-17.8c9-6.6,10.9-19.1,4.4-28.1C407.9,419.8,395.3,417.8,386.3,424.3z"/>
		<path class="st1" d="M474.5,346.4c-9.8-5.3-22-1.6-27.3,8.2c-4.4,8.2-9.4,16.1-14.9,23.7c-6.5,9-4.6,21.6,4.4,28.1
			c3.6,2.6,7.7,3.9,11.8,3.9c6.2,0,12.3-2.9,16.3-8.3c6.5-9,12.5-18.5,17.8-28.3C488,363.8,484.3,351.7,474.5,346.4z"/>
		<path class="st1" d="M492.8,246.1c-0.3,0-0.6,0-0.9,0c-10.7,0-19.6,8.4-20.1,19.2c-0.4,9.3-1.5,18.7-3.1,27.8
			c-2,10.9,5.3,21.4,16.3,23.4c1.2,0.2,2.4,0.3,3.6,0.3c9.6,0,18-6.8,19.8-16.6c2-10.9,3.2-22.1,3.7-33.2
			C512.5,256,503.9,246.6,492.8,246.1z"/>
		<path class="st1" d="M117,403.2c-7.9-7.9-20.6-7.9-28.5,0c-7.9,7.9-7.9,20.6,0,28.5c3.9,3.9,7.9,7.6,12,11.2c3.8,3.4,8.5,5,13.3,5
			c5.6,0,11.2-2.3,15.1-6.8c7.3-8.3,6.5-21.1-1.8-28.4C123.6,409.6,120.3,406.4,117,403.2z"/>
	</g>
</g>
<g>
	<g>
		<path class="st0" d="M350.5,324.6c-4.1,4.8-7.4,10.5-9.7,16.9H183.9c-2.4-6.4-6-12.1-10.2-16.9h-15.2c-6.5,0-12.9-1.8-18.5-5.2h-5
			v16.2c0,7.2,4.7,14.9,8.4,18.1c3,2.6,9.4,5.2,15,5.2h208c12.9,0,23.5-10.5,23.5-23.4v-20c-6.2,5.6-14.4,9-23.5,9L350.5,324.6
			L350.5,324.6z"/>
		<path class="st0" d="M366.4,173h-208c-12.9,0-23.5,10.2-23.5,23.1v93.4c0,7.2,4.6,14.9,8.4,18.2c3,2.6,9.4,5.2,15,5.2h208
			c12.9,0,23.5-10.6,23.5-23.4v-93.4C389.9,183.2,379.3,173,366.4,173z M372.4,263.3c-13.7,4.9-26,16.2-31.6,32.2H183.9
			c-5.8-15.4-18.3-26.7-31.4-31.9v-41.5c13.4-4.9,25.6-16,31.3-32h157.1c5.6,16.9,17.5,27.6,31.5,32.3L372.4,263.3L372.4,263.3z"/>
		<path class="st2" d="M262.3,201.5c-22.8,0-41.3,18.5-41.3,41.3c0,22.8,18.5,41.3,41.3,41.3c22.8,0,41.3-18.5,41.3-41.3
			C303.6,220,285.1,201.5,262.3,201.5z M265.6,266.5v7.7h-7.3v-7.2c-5.2-0.2-10.2-1.6-13.1-3.3l2.3-8.9c3.2,1.8,7.7,3.4,12.7,3.4
			c4.4,0,7.3-1.7,7.3-4.7c0-2.9-2.4-4.7-8.1-6.6c-8.2-2.8-13.7-6.6-13.7-14c0-6.7,4.8-12,12.9-13.6V212h7.6v6.7
			c4.9,0.2,8.5,1.3,11,2.5l-2.2,8.6c-2-0.8-5.5-2.6-11-2.6c-5,0-6.6,2.1-6.6,4.3c0,2.5,2.7,4.1,9.2,6.6c9.1,3.2,12.7,7.4,12.7,14.3
			C279.3,259.2,274.4,265,265.6,266.5z"/>
		<path class="st0" d="M350.5,370.6c-4.1,4.8-7.4,10.4-9.7,16.9H183.9c-2.4-6.4-6-12.1-10.2-16.9h-15.2c-6.5,0-12.9-1.8-18.5-5.2h-5
			v16.2c0,7.2,4.7,14.9,8.4,18.1c3,2.6,9.4,5.2,15,5.2h208c12.9,0,23.5-10.5,23.5-23.4v-20c-6.2,5.6-14.4,9-23.5,9L350.5,370.6
			L350.5,370.6z"/>
	</g>
</g>
</svg>
