<?xml version="1.0" encoding="utf-8"?>
<!-- Generator: Adobe Illustrator 21.1.0, SVG Export Plug-In . SVG Version: 6.00 Build 0)  -->
<svg version="1.1" id="Layer_1" xmlns="http://www.w3.org/2000/svg" xmlns:xlink="http://www.w3.org/1999/xlink" x="0px" y="0px"
	 viewBox="0 0 128 128" style="enable-background:new 0 0 128 128;" xml:space="preserve">
<style type="text/css">
	.st0{fill:#4CC8EF;}
	.st1{fill:#3F3F3F;}
</style>
<g>
	<g>
		<path class="st0" d="M64,64c-6.6,0-12,5.4-12,12c0,5.2,3.4,9.6,8,11.3V100c0,2.2,1.8,4,4,4s4-1.8,4-4V87.3c4.6-1.7,8-6,8-11.3
			C76,69.4,70.6,64,64,64z"/>
	</g>
</g>
<path class="st1" d="M108,40h-8v-8c0-17.7-14.3-32-32-32h-8C42.3,0,28,14.3,28,32v8h-8c-8.8,0-16,7.2-16,16v56c0,8.8,7.2,16,16,16
	h88c8.8,0,16-7.2,16-16V56C124,47.2,116.8,40,108,40z M36,32C36,18.8,46.8,8,60,8h8c13.2,0,24,10.8,24,24v8h-8v-8
	c0-8.8-7.2-16-16-16h-8c-8.8,0-16,7.2-16,16v8h-8V32z M76,40H52v-8c0-4.4,3.6-8,8-8h8c4.4,0,8,3.6,8,8V40z M116,112c0,4.4-3.6,8-8,8
	H20c-4.4,0-8-3.6-8-8V56c0-4.4,3.6-8,8-8h88c4.4,0,8,3.6,8,8V112z"/>
</svg>
