<?xml version="1.0" encoding="utf-8"?>
<!-- Generator: Adobe Illustrator 21.1.0, SVG Export Plug-In . SVG Version: 6.00 Build 0)  -->
<svg version="1.1" id="Layer_1" xmlns="http://www.w3.org/2000/svg" xmlns:xlink="http://www.w3.org/1999/xlink" x="0px" y="0px"
	 viewBox="0 0 128 128" style="enable-background:new 0 0 128 128;" xml:space="preserve">
<style type="text/css">
	.st0{fill:#B0BEC5;}
	.st1{fill:#3F3F3F;}
	.st2{fill:#4CC8EF;}
</style>
<g>
	<g>
		<path class="st0" d="M20,48h8v-8h-8V48z M52,72h8v-8h-8V72z M68,72h8v-8h-8V72z M84,72h8v-8h-8V72z M52,88h8v-8h-8V88z M84,88h8
			v-8h-8V88z M52,104h8v-8h-8V104z M84,104h8v-8h-8V104z M108,96h8v-8h-8V96z M108,72v8h8v-8H108z M108,112h8v-8h-8V112z M52,56h8
			v-8h-8V56z M68,56h8v-8h-8V56z M84,56h8v-8h-8V56z M20,64h8v-8h-8V64z M20,80h8v-8h-8V80z M20,96h8v-8h-8V96z M20,112h8v-8h-8V112
			z M68,88h8v-8h-8V88z"/>
	</g>
</g>
<path class="st1" d="M124,120c0,4.4-3.6,8-8,8H12c-4.4,0-8-3.6-8-8V32c0-4.4,3.6-8,8-8h24V8c0-4.4,3.6-8,8-8h56c4.4,0,8,3.6,8,8v48
	h8c4.4,0,8,3.6,8,8V120z M36,32H12v88h24V32z M100,8H44v112h24V96h8v24h24V8z M116,64h-8v56h8V64z"/>
<rect x="52.1" y="17.7" class="st2" width="8" height="8"/>
<rect x="68" y="17.8" class="st2" width="8" height="8"/>
<rect x="84.1" y="17.8" class="st2" width="8" height="8"/>
<rect x="52.2" y="33.2" class="st2" width="8" height="8"/>
<rect x="68.1" y="33.3" class="st2" width="8" height="8"/>
<rect x="84.2" y="33.3" class="st2" width="8" height="8"/>
</svg>
