<?xml version="1.0" encoding="utf-8"?>
<!-- Generator: Adobe Illustrator 21.0.2, SVG Export Plug-In . SVG Version: 6.00 Build 0)  -->
<svg version="1.1" id="Capa_1" xmlns="http://www.w3.org/2000/svg" xmlns:xlink="http://www.w3.org/1999/xlink" x="0px" y="0px"
	 viewBox="0 0 480 121" style="enable-background:new 0 0 480 121;" xml:space="preserve">
<style type="text/css">
	.st0{fill:#3F3F3F;}
	.st1{fill:#4CC8EF;}
</style>
<g id="layer1">
	<path class="st0" d="M322.5,117.8c-0.3-0.7-0.4-17.7-0.3-37.8l0.3-36.5H336h13.5l0.3,3.3l0.3,3.3l3.9-3.5c3.8-3.4,10.5-6,13.8-5.4
		c1.5,0.3,1.7,2,1.7,14.3v14l-5.9,0.6c-4.4,0.5-6.4,1.3-8.5,3.3l-2.6,2.6L352,97.3l-0.5,21.2l-14.3,0.3
		C326.3,119,322.8,118.8,322.5,117.8z"/>
</g>
<g id="layer2">
	<path class="st0" d="M19.2,118.9c-4.8-0.9-13.3-5.2-15.8-8c-1.6-1.8-1.4-2.3,3.6-9.8c2.8-4.4,5.8-8.5,6.5-9.1
		c0.9-0.8,2.6-0.3,6.1,1.9c2.7,1.6,6.1,3.2,7.5,3.5c2.9,0.6,6.6-1.5,5.5-3.2c-0.4-0.6-4.7-3.2-9.7-5.8C10.2,81.8,5,75.2,5,65.4
		c0-8.1,6.2-17.3,14.5-21.7c5.6-2.9,17.3-3.5,25-1.2c6.9,2,15.5,6.1,15.5,7.4C60,51.1,49.1,67,48.3,67c-0.3,0-3-1.2-5.9-2.6
		c-5.7-2.8-9.8-2.6-9.2,0.4c0.2,0.9,4.1,3.7,8.7,6.2c9.4,5.1,15.6,10.5,17.7,15.5c1.7,4.2,1.8,11.4,0.2,16.9
		c-1.7,5.6-10,14.1-15.3,15.5C39.9,120.2,25.5,120.2,19.2,118.9z"/>
	<path class="st0" d="M83.7,119.1c-4.3-0.9-10.2-5.3-13.5-10.1c-4.7-6.9-5.3-11.6-5-39.6l0.3-25.9h14h14L94,68
		c0.3,13.5,0.9,25.1,1.3,25.8C95.8,94.4,97,95,98,95s2.2-0.6,2.7-1.2c0.4-0.7,1-12.3,1.3-25.8l0.5-24.5h14h14l0.3,26.4
		c0.3,30.9-0.3,34.4-7,41.8c-6.5,6.9-8.4,7.6-23.3,7.9C93.4,119.8,85.8,119.5,83.7,119.1z"/>
	<path class="st0" d="M260.4,119c-4.3-1.7-10.4-10.1-12.7-17.4c-3.2-10.2-3.2-31,0-41.2c2.5-8,8.5-15.8,14-18c7-3,18.2-0.9,22.3,4.2
		c1.4,1.5,1.5,1.5,2-0.7c0.6-2.4,0.7-2.4,14.5-2.4h14V81v37.5h-14c-13.8,0-13.9,0-14.5-2.4c-0.5-2.2-0.6-2.3-2-0.6
		c-0.8,1-2.9,2.4-4.7,3.2C275.8,120.1,263.7,120.4,260.4,119z M283.6,91.5c1.8-4.5,1.8-16.6-0.1-21.1c-1.1-2.8-1.9-3.5-3.7-3.2
		c-1.7,0.2-2.6,1.4-3.6,4.8c-1.5,5-1.1,17.5,0.8,20.9C278.7,96.2,281.9,95.5,283.6,91.5z"/>
	<path class="st1" d="M367.4,118.6c-6.6-2.9-10.3-12.1-8.3-20.1c1.5-6.1,7.9-12,14-12.9c8.2-1.2,15.3,2.5,18.8,9.7
		c3.7,7.6,2.3,15.3-3.9,21.2c-2.5,2.4-3.9,2.8-10.2,3.2C372.9,119.9,369.5,119.6,367.4,118.6z"/>
	<path class="st0" d="M415.4,119.1c-11.1-2.8-19.2-16.4-20.2-33.8c-1.2-21.6,7.2-38,21.9-42.8c5.6-1.9,17.3-1.7,22.2,0.3l2.8,1.2
		l-0.3,12.2l-0.3,12.3l-3.4-0.3c-7.2-0.7-9.3,1.2-10.6,10c-0.8,5.6,0.9,12.3,3.7,14.2c1.5,1.1,3.4,1.3,6.5,0.9l4.3-0.6v12.6
		c0,8.7-0.4,12.8-1.2,13.3C439.1,119.7,419.1,120.1,415.4,119.1z"/>
	<path class="st0" d="M138.5,117.8c-0.3-0.7-0.4-17.7-0.3-37.8l0.3-36.5H152h13.5l0.5,3.4l0.5,3.3l2-2.2c3.5-3.9,9.4-6.3,16-6.3
		c6.9,0,11,1.7,14.9,6.4l2.6,3.1l2.1-2.6c4.3-5.5,13.7-8.3,22-6.5c5.3,1.2,11.2,6.6,12.6,11.6c0.5,1.6,0.8,16.7,0.8,33.8v31H225
		h-14.5l-0.5-24c-0.3-13.2-0.7-24.1-0.8-24.2c-0.6-0.8-4.2-0.1-4.9,1c-0.4,0.6-1,11.6-1.3,24.2l-0.5,23h-14h-14l-0.5-24
		c-0.3-13.2-0.7-24.1-0.8-24.2c-0.6-0.8-4.1-0.1-5.1,1c-0.7,0.9-1.2,9.4-1.3,24.3l-0.3,22.9l-13.8,0.3
		C142.2,119,138.8,118.8,138.5,117.8z"/>
	<path class="st0" d="M448.5,117.8c-0.3-0.7-0.4-26.9-0.3-58.3l0.3-57h14h14v58v58l-13.8,0.3C452.3,119,448.8,118.7,448.5,117.8z"/>
</g>
</svg>
