<?xml version="1.0" encoding="utf-8"?>
<!-- Generator: Adobe Illustrator 21.0.2, SVG Export Plug-In . SVG Version: 6.00 Build 0)  -->
<svg version="1.1" id="Capa_1" xmlns="http://www.w3.org/2000/svg" xmlns:xlink="http://www.w3.org/1999/xlink" x="0px" y="0px"
	 viewBox="0 0 30 30" style="enable-background:new 0 0 30 30;" xml:space="preserve">
<style type="text/css">
	.st0{fill:#3F3F3F;}
	.st1{fill:#4CC8EF;}
	.st2{fill:#FFFFFF;}
</style>
<g>
	<path class="st0" d="M29.6,10.9l-1.4-7.4c-0.1-0.4-0.4-0.6-0.7-0.6h-25c-0.4,0-0.7,0.3-0.7,0.6L0.6,9.6c-0.2,0.5-0.3,1-0.3,1.5
		c0,1.5,0.8,2.9,2.1,3.6V25c0,1.2,1,2.2,2.2,2.2h14c0.4,0,0.8-0.3,0.8-0.8c0,0,0,0,0-0.1c0,0,0,0,0-0.1v-9h4v9c0,0,0,0,0,0.1
		c0,0,0,0,0,0.1c0,0.4,0.3,0.8,0.8,0.8h1.4c1.2,0,2.2-1,2.2-2.2V14.5c1.1-0.7,1.8-1.9,1.9-3.2C29.7,11.2,29.7,11,29.6,10.9z
		 M26.2,24.9c0,0.4-0.3,0.7-0.7,0.7h-0.7v-9.1c0-0.4-0.3-0.8-0.8-0.8h-5.5c-0.4,0-0.8,0.3-0.8,0.8v9.1H4.6c-0.4,0-0.7-0.3-0.7-0.7
		v-9.7c0.2,0,0.4,0.1,0.6,0.1c1.4,0,2.7-0.7,3.5-1.8c0.8,1.1,2,1.8,3.5,1.8s2.7-0.7,3.5-1.8c0.8,1.1,2,1.8,3.5,1.8s2.7-0.7,3.5-1.8
		c0.8,1.1,2,1.8,3.5,1.8c0.3,0,0.6,0,0.8-0.1L26.2,24.9z M28.1,11c0,2-2.2,3.5-4.4,2.2c-0.7-0.5-1-1.3-1-2.2c0-0.4-0.3-0.8-0.8-0.8
		c-0.5,0-0.8,0.3-0.8,0.7c-0.1,1.1-0.6,2.2-1.6,2.6c-2,0.7-3.8-0.6-3.8-2.5c0-0.4-0.3-0.8-0.8-0.8c-0.5,0-0.8,0.3-0.8,0.7
		c-0.1,1.1-0.6,2.2-1.6,2.6c-2,0.7-3.8-0.6-3.8-2.5c0-0.4-0.3-0.8-0.8-0.8S7.3,10.6,7.3,11c0,1.5-1.2,2.7-2.7,2.7S1.9,12.5,1.9,11
		c0-0.3,0.1-0.7,0.2-1V9.9l1.1-5.5H27l1.2,6.5C28.1,11,28.1,11,28.1,11z"/>
</g>
<path class="st1" d="M14.5,23.7H7.1c-1.1,0-1.9-0.9-1.9-1.9v-3.4c0-1.1,0.9-1.9,1.9-1.9h7.5c1.1,0,1.9,0.9,1.9,1.9v3.4
	C16.5,22.8,15.6,23.7,14.5,23.7z"/>
<path class="st2" d="M14.2,22.7H7.5c-0.5,0-1-0.4-1-1v-3.4c0-0.5,0.4-1,1-1h6.7c0.5,0,1,0.4,1,1v3.4C15.2,22.2,14.7,22.7,14.2,22.7z
	"/>
</svg>
