<!DOCTYPE svg PUBLIC "-//W3C//DTD SVG 20010904//EN" "http://www.w3.org/TR/2001/REC-SVG-20010904/DTD/svg10.dtd">
<svg version="1.0" xmlns="http://www.w3.org/2000/svg" width="1000px" height="1000px" viewBox="0 0 10000 10000" preserveAspectRatio="xMidYMid meet">
<g id="layer101" fill="#3f3f3f" stroke="none">
 <path d="M3127 9959 c-129 -31 -228 -89 -333 -194 -75 -74 -99 -105 -132 -175 -23 -47 -49 -114 -59 -150 -17 -62 -18 -245 -18 -3880 0 -3616 1 -3818 18 -3877 25 -90 51 -147 104 -225 114 -170 290 -278 501 -308 54 -8 597 -10 1842 -8 1652 3 1769 4 1825 21 268 79 448 257 522 520 17 59 18 261 18 3877 0 3635 -1 3818 -18 3880 -10 36 -36 103 -59 150 -33 70 -57 101 -132 175 -107 106 -205 163 -337 195 -83 20 -115 20 -1874 19 -1733 0 -1793 -1 -1868 -20z m2002 -278 c114 -35 205 -126 252 -250 17 -45 20 -73 17 -146 -3 -78 -8 -100 -35 -155 -41 -84 -110 -152 -192 -193 -61 -30 -72 -32 -171 -32 -99 0 -110 2 -171 32 -84 42 -150 108 -192 192 -27 56 -32 78 -35 156 -3 73 0 101 17 146 64 171 200 267 378 268 43 1 95 -6 132 -18z m2101 -4121 l0 -3060 -2230 0 -2230 0 0 3060 0 3060 2230 0 2230 0 0 -3060z m-1770 -3670 c25 -13 41 -65 30 -94 -21 -56 -17 -56 -491 -56 -420 0 -437 1 -462 20 -13 11 -28 31 -31 45 -7 27 15 80 36 88 25 10 899 7 918 -3z"/>
 <path d="M540 8830 c-255 -66 -457 -267 -521 -518 -19 -74 -19 -153 -19 -3882 0 -3738 0 -3808 19 -3883 53 -203 189 -372 377 -463 162 -79 17 -74 2025 -74 1755 0 1798 0 1873 20 215 55 382 193 477 395 49 104 69 206 69 348 l0 114 -722 7 c-927 9 -1025 13 -1140 53 -179 62 -357 198 -465 355 l-47 68 -1138 0 -1138 0 0 3060 0 3060 1070 0 1070 0 0 145 c0 109 -3 145 -12 145 -23 0 -119 49 -158 80 -48 38 -102 120 -125 189 -25 77 -17 206 17 282 45 99 132 178 236 215 l53 19 -3 140 -3 140 -860 2 c-823 2 -863 1 -935 -17z m2351 -8089 c26 -32 24 -77 -6 -106 l-24 -25 -440 0 -440 0 -27 23 c-38 33 -37 81 0 114 l28 24 445 -3 445 -3 19 -24z"/>
 <path d="M7670 8705 c0 -130 2 -146 18 -151 57 -17 146 -72 187 -115 67 -71 98 -145 103 -245 5 -102 -14 -172 -71 -255 -46 -68 -112 -119 -188 -146 l-49 -18 0 -142 0 -143 1070 0 1070 0 0 -3060 0 -3060 -1137 0 -1138 0 -29 -46 c-108 -171 -340 -337 -566 -406 l-75 -23 -854 -3 -854 -3 6 -147 c4 -113 10 -163 27 -217 80 -250 268 -432 515 -495 77 -20 111 -20 1874 -20 2015 0 1864 -5 2031 77 180 89 320 263 370 459 20 76 20 130 20 3884 0 3802 0 3806 -20 3884 -67 254 -266 450 -525 516 -75 19 -110 20 -932 20 l-853 0 0 -145z m376 -7958 c20 -17 27 -33 27 -57 0 -24 -7 -40 -27 -57 l-27 -23 -440 0 -440 0 -24 25 c-39 38 -29 106 18 125 12 5 216 9 454 9 l432 1 27 -23z"/>
 </g>
<g id="layer102" fill="#4cc8ef" stroke="none">
 <path d="M540 8830 c-255 -66 -457 -267 -521 -518 -19 -74 -19 -153 -19 -3882 0 -3738 0 -3808 19 -3883 53 -203 189 -372 377 -463 162 -79 17 -74 2025 -74 1755 0 1798 0 1873 20 215 55 382 193 477 395 49 104 69 206 69 348 l0 114 -722 7 c-927 9 -1025 13 -1140 53 -179 62 -357 198 -465 355 l-47 68 -1138 0 -1138 0 0 3060 0 3060 1070 0 1070 0 0 145 c0 109 -3 145 -12 145 -23 0 -119 49 -158 80 -48 38 -102 120 -125 189 -25 77 -17 206 17 282 45 99 132 178 236 215 l53 19 -3 140 -3 140 -860 2 c-823 2 -863 1 -935 -17z m2351 -8089 c26 -32 24 -77 -6 -106 l-24 -25 -440 0 -440 0 -27 23 c-38 33 -37 81 0 114 l28 24 445 -3 445 -3 19 -24z"/>
 <path d="M7670 8705 c0 -130 2 -146 18 -151 57 -17 146 -72 187 -115 67 -71 98 -145 103 -245 5 -102 -14 -172 -71 -255 -46 -68 -112 -119 -188 -146 l-49 -18 0 -142 0 -143 1070 0 1070 0 0 -3060 0 -3060 -1137 0 -1138 0 -29 -46 c-108 -171 -340 -337 -566 -406 l-75 -23 -854 -3 -854 -3 6 -147 c4 -113 10 -163 27 -217 80 -250 268 -432 515 -495 77 -20 111 -20 1874 -20 2015 0 1864 -5 2031 77 180 89 320 263 370 459 20 76 20 130 20 3884 0 3802 0 3806 -20 3884 -67 254 -266 450 -525 516 -75 19 -110 20 -932 20 l-853 0 0 -145z m376 -7958 c20 -17 27 -33 27 -57 0 -24 -7 -40 -27 -57 l-27 -23 -440 0 -440 0 -24 25 c-39 38 -29 106 18 125 12 5 216 9 454 9 l432 1 27 -23z"/>
 </g>
<g id="layer103" fill="#b0bec5" stroke="none">
 <path d="M7670 8705 c0 -130 2 -146 18 -151 57 -17 146 -72 187 -115 67 -71 98 -145 103 -245 5 -102 -14 -172 -71 -255 -46 -68 -112 -119 -188 -146 l-49 -18 0 -142 0 -143 1070 0 1070 0 0 -3060 0 -3060 -1137 0 -1138 0 -29 -46 c-108 -171 -340 -337 -566 -406 l-75 -23 -854 -3 -854 -3 6 -147 c4 -113 10 -163 27 -217 80 -250 268 -432 515 -495 77 -20 111 -20 1874 -20 2015 0 1864 -5 2031 77 180 89 320 263 370 459 20 76 20 130 20 3884 0 3802 0 3806 -20 3884 -67 254 -266 450 -525 516 -75 19 -110 20 -932 20 l-853 0 0 -145z m376 -7958 c20 -17 27 -33 27 -57 0 -24 -7 -40 -27 -57 l-27 -23 -440 0 -440 0 -24 25 c-39 38 -29 106 18 125 12 5 216 9 454 9 l432 1 27 -23z"/>
 </g>

</svg>