<?xml version="1.0" encoding="utf-8"?>
<!-- Generator: Adobe Illustrator 21.1.0, SVG Export Plug-In . SVG Version: 6.00 Build 0)  -->
<svg version="1.1" id="Camada_1" xmlns="http://www.w3.org/2000/svg" xmlns:xlink="http://www.w3.org/1999/xlink" x="0px" y="0px"
	 viewBox="0 0 664 186.1" style="enable-background:new 0 0 664 186.1;" xml:space="preserve">
<style type="text/css">
	.st0{fill:#B0BEC5;}
	.st1{fill:#3F3F3F;}
</style>
<g>
	<path class="st0" d="M394.6,80.1c5.5-1.8,8.3-0.7,10,5.1c4.9,16.5,10.4,32.8,16.2,50.7c3.9-12.3,7.4-23.1,10.8-33.9
		c1.7-5.4,3.8-10.8,5-16.4s3.9-7.5,10-5.5c5.6,27.3,11.3,55,17,83c-5,0-9.4,0-14.3,0c-2.8-14.3-5.6-28.5-8.6-44.2
		c-1.2,2.6-1.9,3.8-2.4,5.2c-4.5,12.2-8.8,24.5-13.5,36.7c-0.6,1.5-2.6,3.2-4.2,3.4c-1,0.1-3-2-3.6-3.4
		c-4.5-11.8-8.7-23.8-13.1-35.7c-0.6-1.8-1.4-3.5-2.7-6.5c-3.2,15.8-6.1,30.2-9.1,44.6c-4.9,0-9.3,0-14.2,0
		C383.5,135.3,389,107.8,394.6,80.1z"/>
	<path class="st1" d="M237.2,102.2c6.1,0,11.3,0,16.6,0c0,3.8,0,7.1,0,11.2c-5.4,0-10.7,0-16.2,0c0,11.1-0.3,21.4,0.1,31.7
		c0.2,5.1,3.9,7.5,9.5,7.1c2.8-0.2,5.5-1.1,8.3-1.6c2,11.9,1.2,13-10.3,13.7c-14.8,0.8-22-5.7-22.3-20.7c-0.2-9.8,0-19.6,0-29.4
		c-6.1,0-11.6-0.5-17.1,0.1c-5.1,0.6-8.9,6.4-9,13.1c-0.2,9.8-0.1,19.7-0.1,29.5c0,1.9,0,3.8,0,6.1c-4.9,0-9.3,0-14.1,0
		c0-20.2,0-40.4,0-60.5h13.9v3.4c7.9-4,16.4-2.5,25.6-3.5c0.5-3.1-0.2-10,2.2-12.8c2.5-2.9,7.9-3.4,12.8-5.3
		C237.2,90.5,237.2,96,237.2,102.2z"/>
	<path class="st0" d="M527.9,162.7c0-20.1,0-40.7,0-60.5l14.7,0.2c0,0,0,3,0,4.1c7.9-6,17.2-5.2,26.5-4.5c0.4-4.4-0.7-9.7,1.5-12.1
		c2.8-3,8.2-3.7,13.3-5.7c0,6.4,0,11.8,0,17.7c5.8,0,10.9,0,16.4,0c0,3.8,0,7.1,0,11.2c-5.2,0-10.4,0-15.9,0
		c0,11.3-0.3,21.8,0.1,32.3c0.2,4.8,3.9,7.1,9.3,6.7c2.8-0.2,5.6-1,9-1.7c0,3.1,0.4,6.2-0.2,9.1c-0.2,1.4-1.9,2.8-3.3,3.7
		c-1.1,0.7-2.8,0.5-4.2,0.6c-18.2,1.8-25.5-4.7-25.5-23.2c0-8.9,0-17.8,0-26.9c-6.2,0-12-0.5-17.6,0.1s-9.5,6-9.7,13.1
		c-0.3,9.8-0.1,19.7-0.2,29.5c0,1.9,0,3.9,0,6.2C537.2,162.7,532.8,162.7,527.9,162.7z"/>
	<path class="st1" d="M260.2,102.3c5,0,9.4,0,14.5,0c0,5.9,0,11.5,0,17.2c0.1,7.9-0.1,15.7,0.3,23.6c0.3,5.5,3.4,8.4,8.7,9.1
		c9,1.2,16.1-4.9,16.1-13.8c0-11.9,0-23.9,0-36.1c4.9,0,9.3,0,14,0c0,20.2,0,40.3,0,60.6c-4.6,0-8.8,0-13.5,0
		c-0.3-1.2-0.6-2.6-0.9-4.3c-7.7,4.2-15.3,6.7-23.9,4.9c-8.1-1.7-13.5-6.5-14.2-14.6c-1-10.6-0.8-21.4-1.1-32.1
		C260.1,112.2,260.2,107.6,260.2,102.3z"/>
	<path class="st1" d="M160.7,114c-3-0.2-5.1-0.3-7.6-0.4c0-3.8,0-7.4,0-11.3c7.2,0,14.3,0,21.7,0c0,20.2,0,40.3,0,60.6
		c-4.7,0-9.1,0-14.1,0C160.7,146.8,160.7,130.7,160.7,114z"/>
	<path class="st1" d="M176.2,86.3c0.1,4.4-3.5,8.2-8,8.4c-4.6,0.2-8.4-3.1-8.7-7.6c-0.3-4.6,3.5-8.6,8.2-8.6
		C172.3,78.4,176.1,81.9,176.2,86.3z"/>
	<path class="st1" d="M340.6,101.8c-15.6,4.1-24.3,17.6-22.8,35.8c0.9,11.2,5.9,20,16.6,24.1c12.3,4.7,24.3,3.3,36.2-3.4
		c-2.1-4-3.8-7.4-5.6-10.7c-8.4,5.2-16.8,6.6-25.3,2c-4.7-2.5-7.1-6.7-6.7-12.8h38.8c4,0.1,5.1-1.3,5.5-5.1
		C379.6,111.4,361.3,96.4,340.6,101.8z M348.3,126.1c-4.8,0-9.6,0-14.8,0c2.2-9.5,6.9-13.3,15.4-13.2c8.2,0.1,12.4,3.8,14.1,13.2
		C358,126.1,353.2,126.1,348.3,126.1z"/>
	<path class="st0" d="M519.3,143.1c-0.6-6.6-0.1-13.2-0.7-19.8c-0.7-8.3-2.7-16.3-11.5-19.7c-10.8-4.2-21.8-3.8-32.7,0.8
		c1.1,3.9,2.1,7.1,3,10.3c19.4-3.9,25.9-1.9,27.1,8.4c-11.9-0.9-21,0.8-27.3,4.8c-7.4,4.8-10.8,13.6-8.7,22.5
		c1.9,8,8.3,13.1,17.7,13.8c7.4,0.6,14.2-1.1,19.8-6.3c7.2,8.2,13,7,16.3,3.8C521.2,154.4,519.8,148.8,519.3,143.1z M504.7,143.7
		c-1.2,8.2-12.7,12.6-19.4,7.6c-4.8-3.6-3.7-12.1,2.2-15.2c5.4-2.8,11.1-3.1,17.2-1.4C504.8,137.7,505.1,140.8,504.7,143.7z"/>
	<path class="st1" d="M298.5,1.6c-22,3.9-43.5,9.9-64.2,18.5c-58.7,24.5-102,64.7-126.8,124c-0.6,1.3-1.3,2.6-2.3,4.6
		c-0.9-2.6-1.4-4.1-1.9-5.6c-6.8-19.7-13.5-39.5-20.5-59.2c-0.6-1.7-2.3-4.1-3.6-4.2c-5.8-0.5-11.6-0.2-17.9-0.2
		c0.7,2.3,1.1,3.8,1.7,5.3c11.5,31.1,23.2,62.2,34.6,93.3c1.6,4.4,3.2,6.5,8.5,6.5c3.8,0,5-3.7,5.9-6.7
		c7.1-22.6,16.3-44.2,28.3-64.5c2.2-3.7,4.6-7.4,7-11.5v-5.2h4c1.7-0.6,2.8-2.3,2.9-5.2c-0.6-1.5-0.9-3.2-0.9-4.9
		c0-8,6.5-14.5,14.5-14.5c0.6,0,1.3,0.1,1.9,0.1c1.7-0.3,3.4-0.9,4.5-2c28.2-27.6,62.1-45.4,99.4-57.1c10.3-3.2,20.8-6,31.3-9
		c1.5-0.4,1.1-1.5,0.1-1.8C302.8,1.6,300.6,1.3,298.5,1.6z"/>
</g>
</svg>
