<?xml version="1.0" encoding="utf-8"?>
<!-- Generator: Adobe Illustrator 21.1.0, SVG Export Plug-In . SVG Version: 6.00 Build 0)  -->
<svg version="1.1" id="Capa_1" xmlns="http://www.w3.org/2000/svg" xmlns:xlink="http://www.w3.org/1999/xlink" x="0px" y="0px"
	 viewBox="0 0 800 286" style="enable-background:new 0 0 800 286;" xml:space="preserve">
<style type="text/css">
	.st0{fill:#4CC8EF;}
	.st1{fill:#B0BEC5;}
	.st2{fill:#3F3F3F;}
	.st3{fill:#003756;}
</style>
<g id="layer1">
	<path class="st0" d="M653.9,158.3c-2-9.5-4.5-10.3-10.9-3.8c-2.4,2.5-4.8,4.5-5.3,4.5c-0.4,0-2.5-1.2-4.5-2.7s-3.8-2.8-3.9-2.8
		c-0.1,0,0.6-2.8,1.7-6c1.8-5.8,1.8-6.1,0-7.9c-1.7-1.7-2-1.7-7.3-0.2c-3,0.9-5.9,1.6-6.5,1.6c-0.5,0-2-2.1-3.3-4.6l-2.4-4.6
		l4.8-4.4c3.7-3.3,4.7-4.8,4.2-6.3c-0.3-1.1-1.4-2.2-2.3-2.4c-0.9-0.3-3.8-1-6.4-1.7l-4.8-1.3v-5.3c0-5.9-0.7-5.3,10.3-8
		c1.8-0.4,2.9-1.5,3.3-3.1c0.5-2-0.2-3.3-3.9-7.1l-4.6-4.7l2-3.7c1-2,2.3-3.9,2.8-4.2c0.5-0.3,3.1,0.1,5.7,0.9
		c6.6,2,7.3,1.9,8.6-0.9c0.8-1.9,0.7-3.6-0.6-7.5c-1.9-5.9-2-7.1-0.5-7.1c0.6,0,2.2-0.9,3.6-2c3.7-2.9,5.4-2.5,9.8,2
		c2.9,3,4.7,4,6.5,3.8c1.4-0.2,2.5-0.7,2.6-1.3c0-1.1,1.3-7.1,2-9.7c0.4-1.5,1.7-1.8,6.5-1.8c4,0,5.9,0.4,6,1.3
		c0.7,8,3,12.6,6.2,12.7c0.4,0,2.7-2,5-4.5c2.4-2.5,4.8-4.5,5.4-4.5c2,0,7.3,3.5,7.8,5.1c0.3,0.9-0.1,4-0.9,7
		c-1.7,6.8-0.8,8.4,4.3,7.3c2-0.3,4.6-0.8,5.8-0.9c1.2-0.2,2.6-0.6,3.1-0.9c0.9-0.5,5.2,7.2,5.2,9.3c0,0.5-2,2.7-4.5,4.8
		c-4.1,3.5-4.5,4.2-3.6,6.5c0.8,2,2.1,2.8,6.8,4l5.8,1.4l0.3,5.1l0.3,5.2l-3.8,1c-2.1,0.5-5,1.3-6.5,1.6c-4.4,1.1-4.1,4.3,1,9.7
		c4.2,4.4,4.4,4.8,3.3,7.5c-2.6,6.1-3.2,6.5-9.1,4.7c-4.4-1.3-5.7-1.4-7.7-0.3c-1.8,1-2.3,1.8-1.8,3.4c0.4,1.1,0.9,3.4,1.2,5
		c0.3,1.7,1,3.6,1.6,4.3c1.2,1.5,1.5,1.2-4.6,4.7l-4.8,2.8l-4.7-4.6c-5.9-5.8-8.3-5.6-10,0.9c-0.7,2.4-1.2,5.3-1.2,6.4
		c0,1.8-0.7,2-5.9,2h-6L653.9,158.3z M673.7,131.4c6.1-3.8,10-9.4,11.5-16.5c3.2-15.2-9.8-29.9-26.4-29.9c-8.2,0-19.2,8.6-21.6,16.9
		c-3.9,12.8,1.6,24.5,14.5,31.3C657.3,136.1,667.4,135.3,673.7,131.4z"/>
</g>
<g id="layer2">
	<path class="st1" d="M606.7,231.8c-0.3-1.3-1.1-4.1-1.7-6.3c-0.6-2.2-1.5-5.6-1.8-7.5c-0.6-3-1.2-3.6-4.6-4.5l-3.9-0.9l-6.8,7.2
		l-6.8,7.3l-4.3-2.2c-7.7-3.9-10-5.9-9.3-8.3c0.3-1.1,1.5-5.6,2.6-9.9l2-7.8l-2.3-1.9c-3-2.5-3.9-2.5-13.4,0.4
		c-9.1,2.8-8.9,2.9-13.9-6l-3.3-5.8l7.3-7.1c6.9-6.8,7.3-7.4,6.6-10.5c-0.7-3.6-2.2-4.4-14.3-7l-5.8-1.3v-8.8v-8.7l4.8-1.2
		c2.6-0.6,5.9-1.3,7.3-1.5c3.7-0.6,8.3-2.5,7.6-3.1c-0.3-0.3-0.2-1.7,0.4-3.1c0.8-2.2,0.2-3.1-6.1-9.1c-3.8-3.6-7-7.2-7-7.9
		c0-1.5,4.6-10.2,6.6-12.4c1.4-1.6,2-1.6,5.6-0.3c2.2,0.8,4.9,1.4,5.9,1.4s3.4,0.7,5.2,1.6c3.3,1.6,3.4,1.6,6-1l2.7-2.7l-2.1-7.7
		c-3.4-12.3-3.4-11.7-0.2-13.8c4.9-3.3,9.2-5.4,11-5.4c0.9,0,4.5,2.9,8.1,6.5c3.5,3.6,7.1,6.5,8,6.4c4.5-0.2,5.5-1.5,7.8-10.5
		c1.3-4.9,2.3-9.2,2.3-9.6c0.1-0.5,3.9-0.8,8.6-0.8h8.4l1.1,4.3c0.6,2.3,1.5,5.4,2,7c0.4,1.5,0.8,2.7,0.7,2.7s-2.4-0.7-5.1-1.5
		c-2.6-0.8-5.2-1.2-5.7-0.9c-0.5,0.3-1.8,2.2-2.8,4.2l-2,3.7l4.6,4.7c3.7,3.8,4.4,5.1,3.9,7.1c-0.4,1.6-1.5,2.7-3.3,3.1
		c-10.8,2.7-10.3,2.3-10.3,7.1c0,4.3-0.1,4.5-3.8,5.4c-16.3,4.4-28.6,25.1-25.2,42.3c3.2,16.4,14,27.5,30.4,31.3
		c6.2,1.4,7.5,1.5,14.3,0.1c8.5-1.8,14.2-4.8,19.9-10.6l3.9-4h17h17.1l5.6,5.8l5.7,5.7l-3.4,6.1c-1.9,3.4-4,6.6-4.7,7.1
		c-0.9,0.8-3.7,0.4-9.2-1.3c-9.8-3-10.7-3-13.3-0.1c-2.3,2.4-2.4,1.4,1.8,16.1c1.3,4.7,1.3,4.9-1.1,6.8c-1.4,1.1-4.6,3.1-7.3,4.4
		l-4.8,2.5l-6.7-7.2c-6.5-6.9-6.8-7.1-10.4-6.4c-2.6,0.5-3.9,1.3-4.3,2.9c-0.3,1.1-1,3.7-1.5,5.6c-0.4,1.9-1.3,5.4-2,7.8l-1.1,4.2
		h-8.3C607.8,234,607.2,233.9,606.7,231.8z"/>
	<path class="st1" d="M652.5,133.7c-1.7-0.8-4.4-3.2-6-5.3c-1.6-2.1-4.4-5.3-6.3-7c-3.1-2.6-3.6-3.7-4-8.7
		c-0.2-3.2,0.1-7.7,0.8-10.2c2.6-9.2,13.3-17.5,22.8-17.5c4.5,0,4.8,0.4,3.1,4.7c-0.6,1.5-1.7,5.2-2.4,8.1c-1.4,5.1-1.3,5.3,1.2,7.8
		s2.7,2.5,6.2,1.1c2-0.8,5.6-1.9,8.1-2.5s5.2-1.3,6.1-1.7c1-0.4,1.9,0.3,2.7,2c1.6,3.4,1.5,7.2-0.2,12.9
		c-3.1,10.3-11.3,16.6-22.4,17.3C657.9,134.9,654.4,134.6,652.5,133.7z"/>
</g>
<g id="layer3">
	<path class="st2" d="M725,229.9c-15.2-3-21.7-5-29.5-8.9l-5-2.6l-0.5-14.3c-0.3-7.9-0.3-14.7,0-15.2s2.3,0.3,4.3,1.6
		c5.1,3.5,15.8,8.3,22.5,10.2c7.4,2.1,29,2.3,34.7,0.4c6.7-2.3,11.2-5.9,13-10.4c4.4-10.9-5.5-20.9-27-27.1
		c-24.4-7.1-31.6-10.5-39.8-18.7c-3.4-3.5-5.6-6.4-5-6.6s3.5,0.3,6.4,1.1c5.8,1.8,6.4,1.4,9-4.7c1.1-2.7,0.9-3.1-3.3-7.5
		c-5.1-5.4-5.4-8.6-1-9.7c1.5-0.3,4.4-1.1,6.5-1.6l3.8-1l-0.3-5.2l-0.3-5.1l-5.8-1.4c-4.7-1.2-6-2-6.8-4c-0.9-2.3-0.5-3,3.8-6.7
		c4.5-4,4.7-4.3,3.5-6.9c-0.7-1.5-1-3.2-0.7-3.6c0.7-1.2,5.7-3.4,11-5.1c2.2-0.6,5.3-1.6,6.9-2.2c1.6-0.6,9.2-1.1,17-1.1
		c15.5,0,23.7,1.7,36.1,7.3l6.5,3v14c0,7.8-0.2,14.1-0.5,14.1s-3.6-1.5-7.3-3.4c-12-6.1-18.5-7.7-30.5-7.7
		c-10.8-0.1-13.3,0.4-21.3,4.3c-10.1,4.9-10.6,17.3-0.9,23.5c2.8,1.8,7,3.2,28.5,9.8c25.7,7.8,37.7,19.9,41.1,41.3
		c2.2,14.5-1.3,25.6-11.6,35.7c-7.7,7.8-14.8,11.4-27.5,14.1C747.9,231.1,732.1,231.3,725,229.9z"/>
	<path class="st2" d="M50.5,217.3c-2.1-6.5-5.9-18.3-8.5-26.3c-2.6-8-6.4-19.9-8.5-26.5c-2-6.6-5.9-18.5-8.5-26.5
		s-6.4-19.9-8.5-26.5c-2.1-6.6-5.5-17.2-7.6-23.6C6.7,81.4,5,75.9,5,75.6c0-0.3,6.9-0.6,15.3-0.6h15.4l1.3,4.3c0.7,2.3,2,6.7,3,9.7
		c2.6,8.1,7.6,24.6,9.5,31.5c1,3.3,2.5,8.5,3.5,11.5c2.8,8.5,7,22.3,13.2,43.5c1.2,3.9,2.4,7.3,2.8,7.7c0.6,0.8,2.8-5.4,9.6-27.2
		c2-6.3,6.2-19.4,9.4-29c3.2-9.6,7.5-22.9,9.5-29.5c2.1-6.6,4.5-14.2,5.4-17l1.7-5h12.9h12.9l1.7,5c3.4,10.5,12,37,19.8,61.5
		c4.5,14,9.4,29.2,10.9,33.7c1.4,4.6,2.9,8,3.3,7.5c0.6-0.6,1.5-3.3,6.9-21.2c1.8-6.1,7.3-24.1,14.2-46.5c1.7-5.5,3.6-11.8,4.3-14
		c0.7-2.2,2.2-7.1,3.4-11c1.1-3.8,2.6-8.9,3.3-11.2l1.3-4.3h15.2c8.4,0,15.3,0.3,15.3,0.6c0,0.4-1.3,4.5-2.9,9.3
		c-1.5,4.7-5,15.4-7.6,23.6c-2.6,8.3-6,18.8-7.5,23.5s-5.4,16.6-8.5,26.5c-3.2,9.9-7,21.8-8.5,26.5c-1.5,4.7-5.3,16.5-8.5,26.3
		l-5.7,17.8l-15-0.3l-15-0.3l-3.2-10c-4.2-12.7-11.2-34.6-16.1-50c-2.1-6.6-6.1-19-8.9-27.6l-5.2-15.6l-2.3,7.6
		c-4.4,14.1-18.6,58.2-25.7,79.6l-5.2,16l-15,0.3l-15,0.3L50.5,217.3z"/>
	<path class="st2" d="M239,152V75h14.5H268v31.5V138h31.5H331v-31.5V75h14.5H360v77v77h-14.5H331v-31.5V166h-31.5H268v31.5V229
		h-14.5H239V152z"/>
	<path class="st2" d="M374,152V75h16.3h16.2l7.5,11.2c4.1,6.1,8,11.6,8.7,12.3c0.6,0.7,3.5,4.8,6.5,9.2c13,19.6,20.1,29.3,20.9,28.7
		c0.5-0.3,2.8-3.3,5.1-6.7c2.3-3.4,4.4-6.4,4.7-6.7c0.3-0.3,3.2-4.4,6.3-9.2c3.2-4.8,6.5-9.6,7.3-10.5c0.8-1,5.5-7.8,10.5-15
		l9.1-13.3H509h16v77v77h-14.5H496v-54.7c-0.1-48.7-0.2-54.6-1.6-52.8c-0.8,1.1-2,2.7-2.7,3.5c-0.7,0.8-4.8,6.7-9.1,13
		c-11.3,16.4-12,17.4-12.7,18c-0.3,0.3-4.1,5.7-8.4,12c-4.3,6.3-8.4,12.1-9.1,12.7c-0.7,0.7-1.5,1.8-1.7,2.5c-0.8,1.8-3-1-16.6-20.7
		c-4.9-7.1-9.4-13.5-9.9-14.1c-0.5-0.6-2.7-3.7-4.8-7c-2.1-3.2-4.2-6.1-4.5-6.4c-0.3-0.3-3.1-4.3-6.2-8.9l-5.7-8.4v55.7V229h-14.5
		H374V152z"/>
	<path class="st3" d="M532.7,155.8"/>
	<path class="st3" d="M532.7,146.3"/>
	<path class="st3" d="M550,127.1"/>
	<path class="st3" d="M543.5,121.7"/>
</g>
</svg>
