<?xml version="1.0" encoding="utf-8"?>
<!-- Generator: Adobe Illustrator 21.1.0, SVG Export Plug-In . SVG Version: 6.00 Build 0)  -->
<svg version="1.1" id="Capa_1" xmlns="http://www.w3.org/2000/svg" xmlns:xlink="http://www.w3.org/1999/xlink" x="0px" y="0px"
	 viewBox="0 0 256 153" style="enable-background:new 0 0 256 153;" xml:space="preserve">
<style type="text/css">
	.st0{fill:#3F3F3F;}
	.st1{fill:#FFFFFF;}
</style>
<g>
	<path class="st0" d="M23.8,0h208.4C245.3,0,256,10.7,256,23.9v79.5c0,13.2-10.7,23.9-23.9,23.9h-74.7l10.3,25.1l-45.1-25.1H23.9
		C10.7,127.3,0,116.6,0,103.4V23.9C-0.1,10.8,10.6,0,23.8,0L23.8,0z"/>
	<path class="st1" d="M14.6,21.7c1.5-2,3.6-3,6.6-3.2c5.3-0.4,8.3,2.1,9.1,7.5c3.2,21.7,6.8,40.2,10.5,55.3l22.8-43.4
		c2.1-4,4.7-6,7.8-6.2c4.6-0.3,7.4,2.6,8.5,8.7C82.4,54.2,85.8,66,89.7,76c2.7-26.4,7.3-45.5,13.7-57.2c1.6-2.9,3.9-4.4,6.9-4.6
		c2.4-0.2,4.6,0.5,6.6,2.1c2,1.6,3,3.5,3.2,5.9c0.1,1.9-0.2,3.4-1,5c-4.1,7.5-7.4,20.1-10.1,37.6c-2.6,17-3.5,30.2-2.9,39.6
		c0.2,2.6-0.2,4.9-1.2,6.9c-1.2,2.3-3.1,3.5-5.5,3.7c-2.7,0.2-5.5-1-8.2-3.9c-9.7-9.9-17.4-24.7-23-44.3c-6.8,13.3-11.8,23.3-15,30
		c-6.1,11.8-11.3,17.8-15.7,18.1c-2.8,0.2-5.2-2.2-7.3-7.2c-5.3-13.6-11-40-17.2-79C12.5,26,13.1,23.6,14.6,21.7z M238.2,38.1
		c-3.7-6.6-9.3-10.5-16.7-12.1c-2-0.4-3.9-0.6-5.6-0.6c-10,0-18.1,5.2-24.5,15.6c-5.4,8.8-8.1,18.6-8.1,29.3c0,8,1.7,14.9,5,20.6
		c3.7,6.6,9.3,10.5,16.7,12.1c2,0.4,3.9,0.6,5.6,0.6c10.1,0,18.2-5.2,24.5-15.6c5.4-8.9,8.1-18.7,8.1-29.5
		C243.3,50.5,241.5,43.7,238.2,38.1z M225.1,66.9c-1.5,6.9-4.1,12-7.9,15.4c-3,2.7-5.8,3.9-8.4,3.3c-2.5-0.5-4.6-2.7-6.1-6.8
		c-1.2-3.2-1.9-6.5-1.9-9.5c0-2.6,0.2-5.2,0.7-7.6c0.9-4.3,2.7-8.4,5.5-12.4c3.4-5.1,7.1-7.2,10.8-6.5c2.5,0.5,4.6,2.7,6.1,6.8
		c1.2,3.2,1.9,6.5,1.9,9.5C225.8,61.9,225.6,64.5,225.1,66.9z M173.1,38.1c-3.7-6.6-9.4-10.5-16.7-12.1c-2-0.4-3.9-0.6-5.6-0.6
		c-10,0-18.1,5.2-24.5,15.6c-5.4,8.8-8.1,18.6-8.1,29.3c0,8,1.7,14.9,5,20.6c3.7,6.6,9.3,10.5,16.7,12.1c2,0.4,3.9,0.6,5.6,0.6
		c10.1,0,18.2-5.2,24.5-15.6c5.4-8.9,8.1-18.7,8.1-29.5C178.1,50.5,176.4,43.7,173.1,38.1z M159.9,66.9c-1.5,6.9-4.1,12-7.9,15.4
		c-3,2.7-5.8,3.9-8.4,3.3c-2.5-0.5-4.6-2.7-6.1-6.8c-1.2-3.2-1.9-6.5-1.9-9.5c0-2.6,0.2-5.2,0.7-7.6c0.9-4.3,2.7-8.4,5.5-12.4
		c3.4-5.1,7.1-7.2,10.8-6.5c2.5,0.5,4.6,2.7,6.1,6.8c1.2,3.2,1.9,6.5,1.9,9.5C160.7,61.9,160.4,64.5,159.9,66.9L159.9,66.9
		L159.9,66.9z"/>
</g>
</svg>
