<?xml version="1.0" encoding="UTF-8" standalone="no"?>
<!-- Generator: Adobe Illustrator 21.1.0, SVG Export Plug-In . SVG Version: 6.00 Build 0)  -->

<svg
   xmlns:dc="http://purl.org/dc/elements/1.1/"
   xmlns:cc="http://creativecommons.org/ns#"
   xmlns:rdf="http://www.w3.org/1999/02/22-rdf-syntax-ns#"
   xmlns:svg="http://www.w3.org/2000/svg"
   xmlns="http://www.w3.org/2000/svg"
   xmlns:sodipodi="http://sodipodi.sourceforge.net/DTD/sodipodi-0.dtd"
   xmlns:inkscape="http://www.inkscape.org/namespaces/inkscape"
   version="1.1"
   id="Capa_1"
   x="0px"
   y="0px"
   viewBox="0 0 300 85"
   style="enable-background:new 0 0 300 85;"
   xml:space="preserve"
   sodipodi:docname="op-sf.svg"
   inkscape:version="0.92.4 (5da689c313, 2019-01-14)"><metadata
   id="metadata45"><rdf:RDF><cc:Work
       rdf:about=""><dc:format>image/svg+xml</dc:format><dc:type
         rdf:resource="http://purl.org/dc/dcmitype/StillImage" /><dc:title /></cc:Work></rdf:RDF></metadata><defs
   id="defs43" /><sodipodi:namedview
   pagecolor="#ffffff"
   bordercolor="#666666"
   borderopacity="1"
   objecttolerance="10"
   gridtolerance="10"
   guidetolerance="10"
   inkscape:pageopacity="0"
   inkscape:pageshadow="2"
   inkscape:window-width="1920"
   inkscape:window-height="1001"
   id="namedview41"
   showgrid="false"
   showguides="true"
   inkscape:guide-bbox="true"
   inkscape:zoom="2.0553237"
   inkscape:cx="138.07378"
   inkscape:cy="2.7838663"
   inkscape:window-x="1591"
   inkscape:window-y="-9"
   inkscape:window-maximized="1"
   inkscape:current-layer="Capa_1"><sodipodi:guide
     position="276.35549,130.39309"
     orientation="1,0"
     id="guide854"
     inkscape:locked="false" /><sodipodi:guide
     position="-31.138647,18.488572"
     orientation="0,1"
     id="guide856"
     inkscape:locked="false" /><sodipodi:guide
     position="-29.192482,66.656167"
     orientation="0,1"
     id="guide858"
     inkscape:locked="false" /><sodipodi:guide
     position="20.434737,123.58151"
     orientation="1,0"
     id="guide817"
     inkscape:locked="false" /><sodipodi:guide
     position="-18.975113,40.869475"
     orientation="0,1"
     id="guide995"
     inkscape:locked="false" /><sodipodi:guide
     position="-28.705941,42.81564"
     orientation="0,1"
     id="guide830"
     inkscape:locked="false" /></sodipodi:namedview>
<style
   type="text/css"
   id="style2">
	.st0{fill:#3964C7;}
	.st1{fill:#12203F;}
</style>

<g
   transform="matrix(0.31258914,0,0,0.31258914,22.626938,3.7017963)"
   id="g24"><g
     id="g14"><path
       inkscape:connector-curvature="0"
       class="st0"
       d="m 395.01111,103.94765 c 0,-37.197932 -30.24011,-67.944461 -66.91074,-67.944461 -37.47464,0 -67.95196,31.259377 -67.95196,70.016381 0,38.23164 30.22564,68.71648 68.20364,68.71648 27.89505,0 53.98941,-19.12207 61.99539,-45.21191 H 356.2471 c -6.96774,11.37027 -16.26361,16.79149 -28.93576,16.79149 -15.7583,0 -30.22369,-11.36278 -34.35251,-26.86888 h 100.24204 c 1.54406,-7.49312 1.81024,-10.84992 1.81024,-15.4991 z M 291.91812,94.649292 c 4.14383,-18.342545 18.86292,-30.23317 36.68759,-30.23317 17.83719,0 31.78473,11.631951 36.16529,30.23317 z"
       id="path4"
       style="fill:#332e32;fill-opacity:1" /><g
       id="g12"><g
         id="g10"><path
           inkscape:connector-curvature="0"
           class="st1"
           d="m 82.310669,37.644703 c 12.251167,0 23.767911,3.06279 34.544801,9.188373 10.78232,6.12558 19.1982,14.438092 25.24219,24.942978 6.0494,10.499436 9.07412,21.836663 9.07412,34.011656 0,12.25117 -3.04647,23.70808 -9.13397,34.37072 -6.08751,10.66265 -14.37825,18.99692 -24.88313,25.00281 -10.49944,6.0059 -22.076036,9.00885 -34.729768,9.00885 -18.616105,0 -34.506714,-6.62064 -47.677258,-19.86734 C 21.582552,141.05605 15,124.96416 15,106.02708 15,85.735413 22.436651,68.832947 37.315395,55.303352 50.360817,43.530918 65.359245,37.644703 82.310669,37.644703 Z m 0.533134,30.671429 c -10.118629,0 -18.550827,3.51976 -25.280262,10.55928 -6.740314,7.039528 -10.102314,16.05381 -10.102314,27.031988 0,11.29914 3.323918,20.44943 9.982632,27.45088 6.653271,7.00143 15.080029,10.49943 25.280262,10.49943 10.200234,0 18.692269,-3.53609 25.465229,-10.61912 6.77295,-7.08304 10.16215,-16.18982 10.16215,-27.33119 0,-11.135939 -3.32935,-20.188307 -9.98263,-27.15167 C 101.71016,71.797813 93.207245,68.316132 82.843803,68.316132 Z"
           id="path6"
           style="fill:#332e32;fill-opacity:1" /><path
           inkscape:connector-curvature="0"
           class="st1"
           d="m 148.45172,40.98494 h 32.5809 v 13.306549 c 7.3877,-6.228943 14.08449,-10.559285 20.07952,-12.99646 6.00045,-2.437176 12.13691,-3.650326 18.41482,-3.650326 12.87134,0 23.79511,4.493545 32.77132,13.486072 7.54544,7.637936 11.32089,18.931633 11.32089,33.891983 v 85.807092 h -32.22186 v -56.86018 c 0,-15.498921 -0.69634,-25.786198 -2.08357,-30.872716 -1.39267,-5.086517 -3.80808,-8.959892 -7.26256,-11.625549 -3.45449,-2.660225 -7.71955,-3.99305 -12.80062,-3.99305 -6.58799,0 -12.24028,2.208687 -16.96231,6.615189 -4.72747,4.411942 -8.00242,10.510323 -9.82487,18.300583 -0.95201,4.052895 -1.43076,12.833263 -1.43076,26.341083 v 52.09464 h -32.5809 z"
           id="path8"
           style="fill:#332e32;fill-opacity:1" /></g></g></g><g
     id="g22"><path
       inkscape:connector-curvature="0"
       class="st2"
       d="m 422.43781,213.99681 v -55.36665 c 13.2535,12.47532 22.87112,16.63067 39.76385,16.63067 36.38412,0 65.23328,-30.92451 65.23328,-69.91011 0,-38.99281 -28.32569,-68.882748 -64.97394,-68.882748 -17.93292,0 -32.22675,6.756759 -42.63962,19.753506 V 40.887898 H 391.23111 V 213.99681 Z M 458.5625,65.058235 c 20.79376,0 37.68591,18.191834 37.68591,40.811325 0,22.61176 -16.89215,40.80618 -37.94531,40.80618 -21.05267,0 -37.94534,-17.935 -37.94534,-40.80618 0,-22.878395 16.89267,-40.811325 38.20474,-40.811325 z"
       id="path16"
       style="fill:#faab3e;fill-opacity:1;stroke:#faab3e;stroke-opacity:1" /><path
       inkscape:connector-curvature="0"
       class="st2"
       d="m 626.21692,40.887897 v 16.373837 c -9.6145,-12.216427 -27.29266,-20.793762 -43.68189,-20.793762 -36.90771,0 -64.97143,29.627937 -64.97143,68.613528 0,40.29455 26.76404,70.17933 63.15338,70.17933 16.1319,0 35.88544,-8.83416 45.49994,-20.26976 v 15.855 h 28.58765 V 40.887897 Z M 587.22925,146.67574 c -21.58698,0 -38.47968,-17.67351 -38.47968,-40.02534 0,-23.659235 16.63068,-41.592165 38.47968,-41.592165 22.09033,0 38.20733,17.152092 38.20733,40.292485 0,23.91092 -16.117,41.32502 -38.20733,41.32502 z"
       id="path18"
       style="fill:#faab3e;fill-opacity:1;stroke:#faab3e;stroke-opacity:1" /><polygon
       class="st2"
       points="688.55951,40.887898 652.95618,40.887898 700.5166,158.4512 676.60303,213.99681 710.14648,213.99681 785,40.887898 749.39612,40.887898 717.94812,124.19239 "
       id="polygon20"
       style="fill:#faab3e;fill-opacity:1;stroke:#faab3e;stroke-opacity:1" /></g></g><g
   transform="matrix(0.31258914,0,0,0.31258914,22.626938,3.7017963)"
   id="g28"><path
     inkscape:connector-curvature="0"
     class="st3"
     d="m 766.9126,159.14467 c 0,4.00702 -3.1452,7.1522 -7.23816,7.1522 -4.04981,0 -7.28131,-3.14518 -7.28131,-7.1522 0,-3.92069 3.2315,-7.06587 7.28131,-7.06587 4.09295,0 7.23816,3.14518 7.23816,7.06587 z m -12.70984,0 c 0,3.14517 2.32648,5.64397 5.51483,5.64397 3.10205,0 5.38538,-2.4988 5.38538,-5.6008 0,-3.14518 -2.28333,-5.68715 -5.42853,-5.68715 -3.1452,0 -5.47168,2.54197 -5.47168,5.64398 z m 4.35162,3.70521 h -1.63739 v -7.06585 c 0.64643,-0.12912 1.55103,-0.21547 2.7143,-0.21547 1.33593,0 1.93872,0.21547 2.45599,0.51727 0.38776,0.30141 0.68915,0.86144 0.68915,1.55101 0,0.7755 -0.60321,1.37871 -1.46466,1.63693 v 0.0863 c 0.68915,0.25864 1.0769,0.7755 1.29242,1.7233 0.21545,1.07732 0.34454,1.50783 0.51727,1.76646 h -1.76648 c -0.21545,-0.25863 -0.34497,-0.90461 -0.56049,-1.72329 -0.12908,-0.7755 -0.55999,-1.12007 -1.46466,-1.12007 h -0.77545 z m 0.0431,-4.00662 h 0.77552 c 0.9046,0 1.63696,-0.30182 1.63696,-1.03413 0,-0.6464 -0.47369,-1.07732 -1.50787,-1.07732 -0.43091,0 -0.7323,0.0432 -0.90461,0.0864 z"
     id="path26"
     style="fill:#faab3e;fill-opacity:1;stroke:#faab3e;stroke-opacity:1" /></g></svg>