<?xml version="1.0" encoding="utf-8"?>
<!-- Generator: Adobe Illustrator 21.1.0, SVG Export Plug-In . SVG Version: 6.00 Build 0)  -->
<svg version="1.1" id="Capa_1" xmlns="http://www.w3.org/2000/svg" xmlns:xlink="http://www.w3.org/1999/xlink" x="0px" y="0px"
	 viewBox="0 0 300 85" style="enable-background:new 0 0 300 85;" xml:space="preserve">
<style type="text/css">
	.st0{fill:#3964C7;}
	.st1{fill:#12203F;}
</style>
<g>
	<g>
		<g>
			<path class="st0" d="M50.6,37.3c0.1-0.3,0.1-0.5,0.2-0.8c0.4-1.2,1-2.2,1.7-3.1c0.7-0.9,1.6-1.6,2.7-2.1c1-0.5,2.2-0.8,3.4-0.8
				c1.2,0,2.2,0.2,3,0.7c0.8,0.5,1.4,1,1.8,1.6l4.4-3.9c-0.8-1.1-2-2-3.6-2.7c-1.6-0.7-3.4-1.1-5.4-1.1c-2.1,0-4.1,0.4-5.9,1.2
				c-1.8,0.8-3.4,1.9-4.8,3.3c-1.3,1.4-2.4,3.1-3.2,5c-0.3,0.8-0.6,1.7-0.8,2.6H50.6z"/>
			<path class="st0" d="M59.6,45.8c-1,0.5-2.1,0.7-3.2,0.7c-1,0-1.9-0.2-2.7-0.5c-0.8-0.3-1.4-0.8-1.9-1.4c-0.5-0.6-0.9-1.2-1.2-2
				c-0.3-0.8-0.4-1.6-0.4-2.4c0-0.2,0-0.3,0-0.5h-6.3c0,0.4,0,0.8,0,1.2c0,1.6,0.3,3.1,0.8,4.5c0.5,1.4,1.3,2.5,2.3,3.5
				c1,1,2.2,1.7,3.6,2.2c1.4,0.5,3,0.8,4.8,0.8c1.2,0,2.3-0.1,3.3-0.3c1-0.2,1.9-0.5,2.8-0.9c0.8-0.4,1.6-0.8,2.2-1.4
				c0.7-0.5,1.2-1,1.7-1.6l-3.3-3.9C61.4,44.6,60.6,45.3,59.6,45.8z"/>
		</g>
		<path class="st0" d="M75.3,36c0.6-0.9,1.3-1.6,2-2.2c0.8-0.6,1.8-0.9,2.9-0.9c0.2,0,0.4,0,0.7,0c0.2,0,0.4,0.1,0.6,0.1l-0.9,5.1
			c-0.3-0.1-0.5-0.1-0.7-0.1c-0.2,0-0.5,0-0.7,0c-0.8,0-1.5,0.1-2.1,0.4c-0.6,0.3-1,0.6-1.4,1.1c-0.4,0.4-0.6,0.9-0.8,1.3
			c-0.2,0.5-0.3,0.9-0.4,1.2l-1.6,9.1H67l2.5-14.1c0.1-0.5,0.2-1,0.3-1.7c0.1-0.7,0.2-1.4,0.2-1.9h5.4c0,0.1,0,0.3,0,0.5
			c0,0.2-0.1,0.5-0.1,0.7c0,0.2-0.1,0.5-0.1,0.7C75.3,35.7,75.2,35.9,75.3,36L75.3,36z"/>
		<path class="st0" d="M90.8,53.8c-0.5,0.9-1,1.8-1.5,2.5c-0.5,0.7-1.1,1.4-1.7,1.9c-0.6,0.5-1.3,0.9-2.1,1.1
			c-0.8,0.3-1.7,0.4-2.7,0.4c-1.1,0-2.1-0.1-2.9-0.4l0.9-4.7c0.5,0.2,1.1,0.3,1.7,0.3c0.8,0,1.5-0.2,1.9-0.6c0.5-0.4,0.9-1,1.3-1.8
			l0.9-1.5l-4.1-17.7h6.2L90.4,45h0.1l5.9-11.6h6.1L90.8,53.8z"/>
		<path class="st0" d="M104.5,59.7h-5.7l4.6-26.3h5.4l-0.4,2.5h0.1c0.7-0.9,1.5-1.6,2.5-2.1c1-0.5,2.1-0.8,3.3-0.8
			c1.2,0,2.2,0.2,3.1,0.6c0.9,0.4,1.7,0.9,2.4,1.6c0.6,0.7,1.1,1.5,1.5,2.4c0.3,0.9,0.5,2,0.5,3c0,1.5-0.2,3-0.7,4.3
			c-0.5,1.3-1.2,2.5-2,3.5c-0.9,1-1.9,1.8-3.1,2.4c-1.2,0.6-2.5,0.9-3.9,0.9c-1.3,0-2.4-0.2-3.4-0.7c-0.9-0.5-1.7-1.1-2.1-2h-0.1
			L104.5,59.7z M116.1,41.4c0-1.1-0.3-2-0.9-2.7c-0.6-0.7-1.5-1.1-2.7-1.1c-0.7,0-1.4,0.2-2,0.5c-0.6,0.3-1.2,0.7-1.6,1.2
			c-0.5,0.5-0.8,1.1-1.1,1.8c-0.3,0.7-0.4,1.4-0.4,2.2c0,1.1,0.3,2,1,2.7c0.7,0.7,1.6,1.1,2.7,1.1c0.8,0,1.4-0.1,2-0.4
			c0.6-0.3,1.1-0.7,1.5-1.2c0.4-0.5,0.8-1.1,1-1.8C116,42.9,116.1,42.2,116.1,41.4z"/>
		<path class="st0" d="M123.8,37.7l0.8-4.3h2.8l0.8-4.7h5.6l-0.8,4.7h3.8l-0.8,4.3h-3.7l-1.3,7c0,0.2,0,0.3-0.1,0.5
			c0,0.2,0,0.3,0,0.4c0,0.6,0.2,1,0.5,1.2c0.3,0.2,0.8,0.3,1.4,0.3c0.3,0,0.6,0,0.8-0.1c0.3,0,0.5-0.1,0.7-0.1l-0.5,4.1
			c-0.3,0.1-0.8,0.3-1.4,0.4c-0.6,0.1-1.2,0.2-1.7,0.2c-1.7,0-3.1-0.3-4-1c-1-0.7-1.5-1.8-1.5-3.3c0-0.3,0-0.6,0.1-1
			c0-0.4,0.1-0.7,0.2-1.1l1.4-7.5H123.8z"/>
		<path class="st0" d="M146.1,51.7c-1.3,0-2.5-0.2-3.6-0.5c-1.1-0.4-2.1-0.9-2.8-1.5c-0.8-0.7-1.4-1.5-1.9-2.5c-0.5-1-0.7-2-0.7-3.3
			c0-1.5,0.2-2.9,0.7-4.2c0.5-1.3,1.2-2.5,2.2-3.5c0.9-1,2.1-1.8,3.4-2.4c1.3-0.6,2.8-0.9,4.5-0.9c1.3,0,2.5,0.2,3.6,0.5
			c1.1,0.4,2.1,0.9,2.9,1.5c0.8,0.7,1.4,1.5,1.9,2.5c0.5,1,0.7,2,0.7,3.3c0,1.5-0.2,2.9-0.7,4.2c-0.5,1.3-1.2,2.5-2.2,3.5
			c-1,1-2.1,1.8-3.4,2.4C149.4,51.4,147.8,51.7,146.1,51.7z M151.4,41.3c0-1.1-0.3-2-1-2.7c-0.7-0.7-1.6-1.1-2.8-1.1
			c-0.8,0-1.4,0.2-2.1,0.5c-0.6,0.3-1.1,0.7-1.6,1.2c-0.4,0.5-0.8,1.1-1,1.8c-0.2,0.7-0.4,1.4-0.4,2.2c0,1.1,0.3,2,1,2.7
			c0.6,0.7,1.6,1.1,2.7,1.1c0.8,0,1.4-0.1,2.1-0.4c0.6-0.3,1.1-0.7,1.6-1.2c0.4-0.5,0.8-1.1,1-1.8C151.3,42.8,151.4,42.1,151.4,41.3
			z"/>
	</g>
	<g>
		<path class="st1" d="M181.6,47.6c-0.5,0.5-1.1,1.1-1.7,1.6c-0.7,0.5-1.4,1-2.2,1.4c-0.8,0.4-1.8,0.7-2.8,0.9
			c-1,0.2-2.1,0.3-3.3,0.3c-1.8,0-3.4-0.3-4.8-0.8c-1.4-0.5-2.6-1.3-3.6-2.2s-1.8-2.1-2.3-3.5c-0.5-1.4-0.8-2.8-0.8-4.5
			c0-2.2,0.4-4.2,1.1-6.1c0.8-1.9,1.8-3.6,3.2-5c1.3-1.4,2.9-2.5,4.8-3.3c1.8-0.8,3.8-1.2,5.9-1.2c2,0,3.8,0.4,5.4,1.1
			c1.6,0.7,2.8,1.6,3.6,2.7l-4.4,3.9c-0.4-0.6-1-1.2-1.8-1.6c-0.8-0.5-1.8-0.7-3-0.7c-1.3,0-2.4,0.3-3.4,0.8c-1,0.5-1.9,1.2-2.7,2.1
			c-0.7,0.9-1.3,1.9-1.7,3.1c-0.4,1.2-0.6,2.3-0.6,3.6c0,0.9,0.1,1.7,0.4,2.4c0.3,0.8,0.7,1.4,1.2,2c0.5,0.6,1.2,1,1.9,1.4
			c0.8,0.3,1.7,0.5,2.7,0.5c1.1,0,2.2-0.2,3.2-0.7c1-0.5,1.9-1.2,2.6-2L181.6,47.6z"/>
		<path class="st1" d="M192.2,51.7c-1.3,0-2.5-0.2-3.6-0.5c-1.1-0.4-2.1-0.9-2.8-1.5s-1.4-1.5-1.9-2.5c-0.5-1-0.7-2-0.7-3.3
			c0-1.5,0.2-2.9,0.7-4.2c0.5-1.3,1.2-2.5,2.2-3.5c0.9-1,2.1-1.8,3.4-2.4c1.3-0.6,2.8-0.9,4.5-0.9c1.3,0,2.5,0.2,3.6,0.5
			c1.1,0.4,2.1,0.9,2.9,1.5c0.8,0.7,1.4,1.5,1.9,2.5c0.5,1,0.7,2,0.7,3.3c0,1.5-0.2,2.9-0.7,4.2c-0.5,1.3-1.2,2.5-2.2,3.5
			c-1,1-2.1,1.8-3.4,2.4S193.9,51.7,192.2,51.7z M197.5,41.3c0-1.1-0.3-2-1-2.7c-0.7-0.7-1.6-1.1-2.8-1.1c-0.8,0-1.4,0.2-2.1,0.5
			c-0.6,0.3-1.1,0.7-1.6,1.2c-0.4,0.5-0.8,1.1-1,1.8c-0.2,0.7-0.4,1.4-0.4,2.2c0,1.1,0.3,2,1,2.7c0.6,0.7,1.6,1.1,2.7,1.1
			c0.8,0,1.4-0.1,2.1-0.4c0.6-0.3,1.1-0.7,1.6-1.2c0.4-0.5,0.8-1.1,1-1.8C197.4,42.8,197.5,42.1,197.5,41.3z"/>
		<path class="st1" d="M207.9,35.4c0.1-0.7,0.2-1.4,0.2-1.9h5.4c0,0.3-0.1,0.7-0.1,1.2c-0.1,0.5-0.1,1-0.2,1.3h0.1
			c0.3-0.4,0.6-0.8,0.9-1.1c0.4-0.4,0.8-0.7,1.2-1c0.4-0.3,0.9-0.5,1.5-0.7c0.5-0.2,1.1-0.2,1.8-0.2c1.4,0,2.5,0.3,3.4,0.9
			c0.8,0.6,1.4,1.3,1.8,2.3c0.7-0.9,1.5-1.7,2.5-2.3c0.9-0.6,2.1-0.9,3.4-0.9c1,0,1.9,0.2,2.6,0.5c0.7,0.3,1.3,0.7,1.8,1.2
			c0.5,0.5,0.8,1.1,1.1,1.8c0.2,0.7,0.3,1.4,0.3,2.1c0,0.3,0,0.6,0,0.9c0,0.3-0.1,0.6-0.1,0.8l-2,10.9h-5.7l1.7-9.6
			c0.1-0.5,0.2-1,0.2-1.5c0-0.7-0.2-1.3-0.5-1.7c-0.4-0.5-0.9-0.7-1.8-0.7c-0.5,0-1,0.1-1.4,0.3c-0.4,0.2-0.8,0.5-1.1,0.9
			c-0.3,0.4-0.6,0.8-0.7,1.3c-0.2,0.5-0.3,1-0.4,1.5l-1.7,9.5h-5.7l1.8-10.1c0.1-0.4,0.1-0.7,0.1-1c0-0.7-0.2-1.3-0.5-1.7
			c-0.3-0.5-0.9-0.7-1.6-0.7c-1,0-1.8,0.4-2.4,1.2c-0.6,0.8-1,1.7-1.2,2.8l-1.7,9.6h-5.7l2.5-14.1C207.7,36.7,207.8,36.1,207.9,35.4
			z"/>
		<path class="st1" d="M242.2,59.7h-5.7l4.6-26.3h5.4l-0.4,2.5h0.1c0.7-0.9,1.5-1.6,2.5-2.1c1-0.5,2.1-0.8,3.3-0.8
			c1.2,0,2.2,0.2,3.1,0.6c0.9,0.4,1.7,0.9,2.3,1.6c0.6,0.7,1.1,1.5,1.5,2.4c0.3,0.9,0.5,2,0.5,3c0,1.5-0.2,3-0.7,4.3
			c-0.5,1.3-1.2,2.5-2,3.5c-0.9,1-1.9,1.8-3.1,2.4c-1.2,0.6-2.5,0.9-3.9,0.9c-1.3,0-2.4-0.2-3.4-0.7c-1-0.5-1.7-1.1-2.1-2H244
			L242.2,59.7z M253.8,41.4c0-1.1-0.3-2-0.9-2.7c-0.6-0.7-1.5-1.1-2.7-1.1c-0.7,0-1.4,0.2-2,0.5c-0.6,0.3-1.2,0.7-1.6,1.2
			c-0.5,0.5-0.8,1.1-1.1,1.8c-0.3,0.7-0.4,1.4-0.4,2.2c0,1.1,0.3,2,1,2.7c0.7,0.7,1.6,1.1,2.7,1.1c0.8,0,1.4-0.1,2-0.4
			c0.6-0.3,1.1-0.7,1.5-1.2c0.4-0.5,0.8-1.1,1-1.8C253.6,42.9,253.8,42.2,253.8,41.4z"/>
		<path class="st1" d="M268.6,36c0.6-0.9,1.3-1.6,2-2.2c0.8-0.6,1.8-0.9,2.9-0.9c0.2,0,0.4,0,0.7,0c0.2,0,0.4,0.1,0.6,0.1l-0.9,5.1
			c-0.3-0.1-0.5-0.1-0.7-0.1c-0.2,0-0.5,0-0.7,0c-0.8,0-1.5,0.1-2.1,0.4c-0.6,0.3-1,0.6-1.4,1.1c-0.4,0.4-0.6,0.9-0.8,1.3
			c-0.2,0.5-0.3,0.9-0.4,1.2l-1.6,9.1h-5.7l2.5-14.1c0.1-0.5,0.2-1,0.3-1.7c0.1-0.7,0.2-1.4,0.2-1.9h5.4c0,0.1,0,0.3,0,0.5
			c0,0.2-0.1,0.5-0.1,0.7c0,0.2-0.1,0.5-0.1,0.7C268.6,35.7,268.6,35.9,268.6,36L268.6,36z"/>
		<path class="st1" d="M291.1,38.6c0,0.3,0,0.7-0.1,1.1c0,0.4-0.1,0.7-0.2,1.1l-1.2,6.9c-0.1,0.6-0.2,1.2-0.3,1.9
			c-0.1,0.6-0.1,1.2-0.1,1.6h-5.1c0-0.3,0-0.6,0-0.9c0-0.3,0.1-0.7,0.1-1h-0.1c-1.3,1.5-3.1,2.3-5.4,2.3c-0.6,0-1.3-0.1-1.9-0.2
			c-0.7-0.2-1.2-0.4-1.8-0.8c-0.5-0.4-1-0.9-1.3-1.5c-0.3-0.6-0.5-1.3-0.5-2.2c0-1.4,0.4-2.6,1.1-3.5c0.7-0.9,1.6-1.6,2.8-2.1
			c1.2-0.5,2.5-0.8,3.9-1c1.5-0.2,2.9-0.3,4.4-0.3c0-0.2,0.1-0.4,0.1-0.5c0-0.1,0-0.2,0-0.3c0-0.7-0.2-1.2-0.7-1.5
			c-0.5-0.3-1.2-0.5-2-0.5c-0.8,0-1.6,0.2-2.4,0.5c-0.8,0.3-1.6,0.7-2.2,1.2l-2.4-3.3c1.1-0.9,2.3-1.5,3.7-2
			c1.4-0.5,2.8-0.7,4.1-0.7c1.1,0,2.1,0.1,3,0.3c0.9,0.2,1.7,0.6,2.3,1.1c0.7,0.5,1.2,1.1,1.5,1.8C290.9,36.8,291.1,37.6,291.1,38.6
			z M284.8,43.4c-0.7,0-1.4,0-2.2,0.1c-0.7,0.1-1.4,0.2-2,0.4c-0.6,0.2-1.1,0.5-1.4,0.8c-0.4,0.3-0.6,0.8-0.6,1.3
			c0,0.7,0.2,1.2,0.7,1.4c0.5,0.2,1,0.4,1.6,0.4c1.1,0,2-0.3,2.7-1c0.7-0.7,1.2-1.5,1.4-2.5l0.2-0.9H284.8z"/>
	</g>
	<path class="st0" d="M27.9,39.8l-5.4,6l-3.6-6h-2.2c-0.7,0-1.2-0.5-1.2-1.2v0c0-0.7,0.5-1.2,1.2-1.2h2.4l5.5-6.7l3.3,6.7h7.8
		l2.3-12.1H22.2c-7.4,0-13.3,6-13.3,13.3s6,13.3,13.3,13.3c7,0,11.3-5.2,13-12.1H27.9z"/>
</g>
</svg>
