<?xml version="1.0" encoding="utf-8"?>
<!-- Generator: Adobe Illustrator 21.1.0, SVG Export Plug-In . SVG Version: 6.00 Build 0)  -->
<svg version="1.1" id="Capa_1" xmlns="http://www.w3.org/2000/svg" xmlns:xlink="http://www.w3.org/1999/xlink" x="0px" y="0px"
	 viewBox="0 0 376.5 329.9" style="enable-background:new 0 0 376.5 329.9;" xml:space="preserve">
<style type="text/css">
	.st0{fill:#FFFFFF;}
</style>
<path class="st0" d="M271.1,196.7v61.6c0,15.3-5.4,28.3-16.3,39.2s-23.9,16.3-39.2,16.3H55.4c-15.3,0-28.3-5.4-39.2-16.3
	S0,273.5,0,258.3V98.1c0-15.3,5.4-28.3,16.3-39.2s23.9-16.3,39.2-16.3H191c1.8,0,3.3,0.6,4.4,1.7c1.2,1.2,1.7,2.6,1.7,4.4v12.3
	c0,1.8-0.6,3.3-1.7,4.4s-2.6,1.7-4.4,1.7H55.4c-8.5,0-15.7,3-21.8,9s-9,13.3-9,21.8v160.2c0,8.5,3,15.7,9,21.8s13.3,9,21.8,9h160.2
	c8.5,0,15.7-3,21.8-9c6-6,9-13.3,9-21.8v-61.6c0-1.8,0.6-3.3,1.7-4.4s2.6-1.7,4.4-1.7h12.3c1.8,0,3.3,0.6,4.4,1.7
	C270.5,193.4,271.1,194.9,271.1,196.7z M345,30.3v98.6c0,3.3-1.2,6.2-3.7,8.7c-2.4,2.4-5.3,3.7-8.7,3.7c-3.3,0-6.2-1.2-8.7-3.7
	l-33.9-33.9L164.6,229.2c-1.3,1.3-2.8,1.9-4.4,1.9c-1.7,0-3.1-0.6-4.4-1.9l-21.9-21.9c-1.3-1.3-1.9-2.8-1.9-4.4
	c0-1.7,0.6-3.1,1.9-4.4L259.3,72.9L225.4,39c-2.4-2.4-3.7-5.3-3.7-8.7s1.2-6.2,3.7-8.7s5.3-3.7,8.7-3.7h98.6c3.3,0,6.2,1.2,8.7,3.7
	C343.8,24.1,345,27,345,30.3z"/>
</svg>
