<svg xmlns="http://www.w3.org/2000/svg" viewBox="0 0 69.83 65.64"><defs><style>.cls-1{fill:none;}.cls-2{fill:#fff;}</style></defs><title>Recurso 6</title><g id="Capa_2" data-name="Capa 2"><g id="Objects"><polygon class="cls-1" points="32.39 15.06 69.83 15.06 51.28 32.02 32.39 15.06"/><g id="layer3"><path id="rect4208" class="cls-2" d="M13.13,0A13.13,13.13,0,0,0,0,13.13V52.51A13.13,13.13,0,0,0,13.13,65.64H52.51A13.13,13.13,0,0,0,65.64,52.51V13.13A13.13,13.13,0,0,0,52.51,0ZM28.59,9A10.58,10.58,0,1,1,18,19.54,10.58,10.58,0,0,1,28.59,9ZM50.25,19.26A2.32,2.32,0,0,1,52,21.53V25.8H56.3a2.3,2.3,0,1,1,0,4.59H52v4.27a2.3,2.3,0,1,1-4.59.06s0,0,0-.06V30.39H43.17A2.31,2.31,0,0,1,41,27.33a2.13,2.13,0,0,1,.77-1.07,2.38,2.38,0,0,1,1.44-.47h4.27V21.53A2.3,2.3,0,0,1,50.25,19.26ZM36.32,30.9c5.94,4.74,10.6,7.66,10.6,25.8H10.27c0-17.8,4.66-21.05,10.6-25.8a20.09,20.09,0,0,0,15.46,0Z"/></g></g></g></svg>